SplineFontDB: 3.0
FontName: VTFMisterPixel
FullName: VTF MisterPixel
FamilyName: VTF MisterPixel
Weight: Regular
Copyright: Copyright (c) 2003-2011, Christophe Badani
Version: 001.001
ItalicAngle: 0
UnderlinePosition: -125
UnderlineWidth: 62
Ascent: 812
Descent: 188
InvalidEm: 0
sfntRevision: 0x00010148
LayerCount: 2
Layer: 0 0 "Back" 1
Layer: 1 0 "Fore" 0
XUID: [1021 591 -286901576 10517911]
FSType: 0
OS2Version: 2
OS2_WeightWidthSlopeOnly: 0
OS2_UseTypoMetrics: 1
CreationTime: 1318439099
ModificationTime: 1326643292
PfmFamily: 17
TTFWeight: 400
TTFWidth: 5
LineGap: 0
VLineGap: 0
Panose: 2 0 5 3 2 0 0 2 0 4
OS2TypoAscent: 812
OS2TypoAOffset: 0
OS2TypoDescent: -188
OS2TypoDOffset: 0
OS2TypoLinegap: 0
OS2WinAscent: 812
OS2WinAOffset: 0
OS2WinDescent: 188
OS2WinDOffset: 0
HheadAscent: 812
HheadAOffset: 0
HheadDescent: -188
HheadDOffset: 0
OS2SubXSize: 700
OS2SubYSize: 650
OS2SubXOff: 0
OS2SubYOff: 140
OS2SupXSize: 700
OS2SupYSize: 650
OS2SupXOff: 0
OS2SupYOff: 477
OS2StrikeYSize: 50
OS2StrikeYPos: 250
OS2CapHeight: 0
OS2XHeight: 0
OS2Vendor: 'LT  '
OS2CodePages: 20000001.00000000
OS2UnicodeRanges: 800000af.50002048.00000000.00000000
Lookup: 1 0 0 "'aalt' Access All Alternates in Latin lookup 0" { "'aalt' Access All Alternates in Latin lookup 0 subtable"  } ['aalt' ('latn' <'dflt' > ) ]
Lookup: 1 0 0 "'smcp' Lowercase to Small Capitals in Latin lookup 1" { "'smcp' Lowercase to Small Capitals in Latin lookup 1 subtable"  } ['smcp' ('latn' <'dflt' > ) ]
Lookup: 1 0 0 "'c2sc' Capitals to Small Capitals in Latin lookup 2" { "'c2sc' Capitals to Small Capitals in Latin lookup 2 subtable"  } ['c2sc' ('latn' <'dflt' > ) ]
Lookup: 1 0 0 "'onum' Oldstyle Figures in Latin lookup 3" { "'onum' Oldstyle Figures in Latin lookup 3 subtable" ("oldstyle") } ['onum' ('latn' <'dflt' > ) ]
MarkAttachClasses: 1
DEI: 91125

StartChar: exclam
Encoding: 33 33 2
Width: 251
GlyphClass: 2
Flags: MW
HStem: 0 131<60 191 60 191> 673 20G<60 191 191 191>
VStem: 60 131<0 131 0 131 188 693>
LayerCount: 2
Back
Fore
SplineSet
60 188 m 1
 60 693 l 1
 191 693 l 1
 191 188 l 1
 60 188 l 1
60 0 m 1
 60 131 l 1
 191 131 l 1
 191 0 l 1
 60 0 l 1
EndSplineSet
EndChar

StartChar: quotedbl
Encoding: 34 34 3
Width: 313
GlyphClass: 2
Flags: MW
HStem: 438 255<60 128 60 128 60 185 185 253>
VStem: 60 68<438 693 438 693> 185 68<438 693 438 693>
LayerCount: 2
Back
Fore
SplineSet
185 438 m 1
 185 693 l 1
 253 693 l 1
 253 438 l 1
 185 438 l 1
60 438 m 1
 60 693 l 1
 128 693 l 1
 128 438 l 1
 60 438 l 1
EndSplineSet
EndChar

StartChar: numbersign
Encoding: 35 35 4
Width: 751
GlyphClass: 2
Flags: MW
HStem: 0 193<123 185 60 253 123 123 373 435 373 373> 125 68<60 123 60 185 316 373 566 628> 375 68<123 185 123 248 378 435 628 691> 375 193<123 378 123 378 316 316 316 378 248 435 566 628 566 566>
VStem: 123 130<0 125 0 125> 185 131<193 375 193 375> 248 130<443 568 443 568> 373 130<0 125 0 125> 435 131<193 375 193 375> 498 130<443 568>
LayerCount: 2
Back
Fore
SplineSet
566 375 m 1x6480
 566 193 l 1
 628 193 l 1
 628 125 l 1
 503 125 l 1x6480
 503 0 l 1xa480
 373 0 l 1xa5
 373 125 l 1
 253 125 l 1x65
 253 0 l 1xa480
 123 0 l 1xa880
 123 125 l 1
 60 125 l 1
 60 193 l 1x6880
 185 193 l 1
 185 375 l 1
 123 375 l 1
 123 443 l 1
 248 443 l 1x6480
 248 568 l 1x5480
 378 568 l 1x5280
 378 443 l 1
 498 443 l 1x6280
 498 568 l 1x5480
 628 568 l 1x5440
 628 443 l 1
 691 443 l 1
 691 375 l 1x6440
 566 375 l 1x6480
435 375 m 1
 316 375 l 1
 316 193 l 1
 435 193 l 1
 435 375 l 1
EndSplineSet
EndChar

StartChar: dollar
Encoding: 36 36 5
Width: 438
GlyphClass: 2
Flags: MW
HStem: 0 68<60 185 60 248 60 316 60 253> 63 193<316 378 316 378> 250 68<191 248> 313 193<60 123 60 123> 500 68<253 378 123 191> 500 193<191 253 185 378 191 191>
VStem: 123 68<250 500 313 500 318 568> 185 68<-125 0 -125 0 568 693> 248 68<0 250>
LayerCount: 2
Back
Fore
SplineSet
316 63 m 1x4880
 316 0 l 1xa880
 253 0 l 1
 253 -125 l 1
 185 -125 l 1
 185 0 l 1xa9
 60 0 l 1
 60 68 l 1
 248 68 l 1
 248 250 l 1
 123 250 l 1xaa80
 123 313 l 1
 60 313 l 1
 60 506 l 1
 123 506 l 1x92
 123 568 l 1xaa
 185 568 l 1xa9
 185 693 l 1
 253 693 l 1xa5
 253 568 l 1xa9
 378 568 l 1
 378 500 l 1
 191 500 l 1
 191 318 l 1
 316 318 l 1xaa80
 316 256 l 1
 378 256 l 1
 378 63 l 1
 316 63 l 1x4880
EndSplineSet
EndChar

StartChar: percent
Encoding: 37 37 6
Width: 813
GlyphClass: 2
Flags: MW
HStem: -62 68<60 123 60 128 60 123> 0 68<128 185 123 191 128 128 566 685> 63 68<191 248 185 253 191 191> 125 68<253 310 248 316 253 253> 188 68<316 373 310 378 316 316 566 566 566 685> 250 68<378 435 373 441 378 378> 313 68<128 248 128 253 123 248 441 498 441 441> 375 68<503 560 498 566 503 503> 438 68<566 623 566 566> 500 68<128 248 128 128 628 685 628 628> 563 68<691 691 691 753>
VStem: 60 68<-62 0 -62 6 -62 6 381 500> 123 68<6 63 0 68 0 68> 185 68<68 125 63 131 63 131> 248 68<131 188 125 193 125 193 381 500 500 500> 310 68<193 250 188 256 188 256> 373 68<256 313 250 318 250 318> 435 68<318 375 313 381 313 381> 498 68<68 188 68 193 68 193 381 438> 560 68<443 500 438 506 438 506> 623 68<506 563> 685 68<68 188 188 188 568 631>
LayerCount: 2
Back
Fore
SplineSet
691 63 m 1x2a52a8
 691 0 l 1x4a32a8
 560 0 l 1x4a5294
 560 63 l 1x2a5294
 498 63 l 1x2a52a4
 498 193 l 1x5252a4
 560 193 l 1x525294
 560 256 l 1x4a5294
 691 256 l 1x4a52a8
 691 193 l 1x5252a8
 753 193 l 1x5252a4
 753 63 l 1x2a52a4
 691 63 l 1x2a52a8
691 563 m 1
 691 500 l 1x4954a8
 628 500 l 1x4a5294
 628 438 l 1x4a9294
 566 438 l 1x4a92a4
 566 375 l 1x4952a4
 503 375 l 1x495244
 503 313 l 1x4a5244
 441 313 l 1x4a52a4
 441 250 l 1x4452a4
 378 250 l 1x445124
 378 188 l 1x4a5124
 316 188 l 1x4a52a4
 316 125 l 1x5252a4
 253 125 l 1x5254a4
 253 63 l 1x2a54a4
 191 63 l 1x2a4aa4
 191 0 l 1x4a4aa4
 128 0 l 1x4a52a4
 128 -62 l 1
 60 -62 l 1
 60 6 l 1x8a52a4
 123 6 l 1x8a4aa4
 123 68 l 1x4a4aa4
 185 68 l 1x4a54a4
 185 131 l 1x2a54a4
 248 131 l 1x2a52a4
 248 193 l 1x5252a4
 310 193 l 1x525124
 310 256 l 1x4a5124
 373 256 l 1x4a52a4
 373 318 l 1x4452a4
 435 318 l 1x445244
 435 381 l 1x4a5244
 498 381 l 1x4a52a4
 498 443 l 1x4952a4
 560 443 l 1x495294
 560 506 l 1x4a9294
 623 506 l 1x4a92a8
 623 568 l 1x4a52a8
 685 568 l 1x4a52a4
 685 631 l 1
 753 631 l 1
 753 563 l 1x4a32a4
 691 563 l 1
253 375 m 1
 253 313 l 1x4a54a4
 123 313 l 1x4a4aa4
 123 375 l 1x494aa4
 60 375 l 1x4952a4
 60 506 l 1x4a92a4
 123 506 l 1x4a8aa4
 123 568 l 1x4a4aa4
 253 568 l 1x4a54a4
 253 506 l 1x4a94a4
 316 506 l 1x4a92a4
 316 375 l 1x4952a4
 253 375 l 1
685 188 m 1
 566 188 l 1
 566 68 l 1
 685 68 l 1
 685 188 l 1
248 500 m 1x4a52a4
 128 500 l 1
 128 381 l 1
 248 381 l 1
 248 500 l 1x4a52a4
EndSplineSet
EndChar

StartChar: ampersand
Encoding: 38 38 7
Width: 688
GlyphClass: 2
Flags: MW
HStem: 0 68<191 373 191 378 566 628> 63 68<378 566> 188 68 250 68<123 310 123 191> 375 68<316 316 316 373 310 378> 438 130<378 441> 563 68<253 373 253 253>
VStem: 123 68<0 250 63 250 68 318> 185 68<318 563 375 563 381 631> 310 68<381 438> 373 68<68 256 188 256 443 563 563 563> 498 68<0 131 63 131 193 318>
LayerCount: 2
Back
Fore
SplineSet
498 0 m 1x9b30
 498 63 l 1
 378 63 l 1x5b50
 378 0 l 1
 123 0 l 1x9b50
 123 63 l 1
 60 63 l 1
 60 256 l 1
 123 256 l 1x6b30
 123 318 l 1x9b30
 185 318 l 1
 185 375 l 1x9ab0
 123 375 l 1x9b30
 123 568 l 1x9530
 185 568 l 1x94b0
 185 631 l 1
 378 631 l 1x9ad0
 378 568 l 1x9550
 441 568 l 1
 441 438 l 1x9530
 378 438 l 1x9550
 378 375 l 1
 316 375 l 1
 316 318 l 1
 378 318 l 1x9b50
 378 256 l 1xab50
 441 256 l 1xab30
 441 193 l 1
 498 193 l 1
 498 318 l 1
 566 318 l 1x5b30
 566 188 l 1
 503 188 l 1
 503 131 l 1
 566 131 l 1x6b30
 566 68 l 1
 628 68 l 1
 628 0 l 1
 498 0 l 1x9b30
373 563 m 1x9b30
 253 563 l 1
 253 381 l 1
 310 381 l 1
 310 443 l 1x9ad0
 373 443 l 1
 373 563 l 1x9b30
373 188 m 1xab30
 310 188 l 1xab50
 310 250 l 1
 191 250 l 1x9b50
 191 68 l 1
 373 68 l 1
 373 188 l 1xab30
EndSplineSet
EndChar

StartChar: quotesingle
Encoding: 39 39 8
Width: 188
GlyphClass: 2
Flags: MW
HStem: 438 255<60 128 60 128>
VStem: 60 68<438 693 438 693>
LayerCount: 2
Back
Fore
SplineSet
60 438 m 1
 60 693 l 1
 128 693 l 1
 128 438 l 1
 60 438 l 1
EndSplineSet
EndChar

StartChar: parenleft
Encoding: 40 40 9
Width: 501
GlyphClass: 2
Flags: MW
HStem: -62 68<378 441 378 441> 0 68<248 378> 63 68<185 316> 125 131<123 253 123 253> 250 256<60 123 60 123> 500 131<123 253 123 191> 625 68<185 316 185 253> 688 68<248 378 248 316> 750 68<378 441 378 378>
VStem: 123 68<125 500 250 500 256 631> 185 68<63 256 125 256> 248 68<0 131 63 131> 310 68<-62 68 0 68>
LayerCount: 2
Back
Fore
SplineSet
310 -62 m 1xa2c8
 310 0 l 1x42c8
 248 0 l 1x42d0
 248 63 l 1xa2d0
 185 63 l 1xa2a0
 185 125 l 1x92a0
 123 125 l 1x92d0
 123 250 l 1
 60 250 l 1
 60 506 l 1
 123 506 l 1xaad0
 123 631 l 1xa4d0
 185 631 l 1xa4a0
 185 693 l 1xa2a0
 248 693 l 1xa2d0
 248 756 l 1xa150
 310 756 l 1xa148
 310 818 l 1
 441 818 l 1
 441 750 l 1
 378 750 l 1xa2c8
 378 688 l 1xa148
 316 688 l 1xa150
 316 625 l 1xa2d0
 253 625 l 1xa2a0
 253 500 l 1xa4a0
 191 500 l 1
 191 256 l 1x94d0
 253 256 l 1x92a0
 253 131 l 1xa2a0
 316 131 l 1xa2d0
 316 68 l 1x42d0
 378 68 l 1x42c8
 378 6 l 1
 441 6 l 1
 441 -62 l 1
 310 -62 l 1xa2c8
EndSplineSet
EndChar

StartChar: parenright
Encoding: 41 41 10
Width: 501
GlyphClass: 2
Flags: MW
HStem: -62 68<60 123 60 191 60 123> 0 68<123 253 123 191> 63 68<185 316 185 253> 125 131<248 378 248 316> 250 256<378 441 378 441> 500 131<248 378 248 378> 625 68<185 316> 688 68<123 253> 750 68<60 123 60 191>
VStem: 123 68<-62 68> 185 68<0 131> 248 68<63 256> 310 68<125 500>
LayerCount: 2
Back
Fore
SplineSet
378 250 m 1xaaa8
 378 125 l 1x92a8
 316 125 l 1x9290
 316 63 l 1xaa90
 253 63 l 1xaaa8
 253 0 l 1x4aa8
 191 0 l 1x4ac8
 191 -62 l 1
 60 -62 l 1
 60 6 l 1
 123 6 l 1xaac8
 123 68 l 1x4ac8
 185 68 l 1x4aa8
 185 131 l 1xaaa8
 248 131 l 1xaa90
 248 256 l 1x9290
 310 256 l 1
 310 500 l 1x94a8
 248 500 l 1xa490
 248 625 l 1xaa90
 185 625 l 1xaaa8
 185 688 l 1xa928
 123 688 l 1xa948
 123 750 l 1
 60 750 l 1
 60 818 l 1
 191 818 l 1xaac8
 191 756 l 1xa948
 253 756 l 1xa928
 253 693 l 1xaaa8
 316 693 l 1xaa90
 316 631 l 1xa490
 378 631 l 1xa4a8
 378 506 l 1
 441 506 l 1
 441 250 l 1
 378 250 l 1xaaa8
EndSplineSet
EndChar

StartChar: asterisk
Encoding: 42 42 11
Width: 438
GlyphClass: 2
Flags: MW
HStem: 375 68<60 123 60 128 60 123 316 378> 438 130<128 185 128 185 253 310 128 253> 563 68<60 123 60 128 316 316 316 378> 673 20G<185 253 253 253>
VStem: 60 68<375 438 375 443 375 443 568 631> 185 68<313 438 313 438 568 693> 310 68<375 438 438 438 568 631>
CounterMasks: 1 0e
LayerCount: 2
Back
Fore
SplineSet
310 375 m 1xbe
 310 438 l 1
 253 438 l 1
 253 313 l 1
 185 313 l 1
 185 438 l 1
 128 438 l 1x5e
 128 375 l 1
 60 375 l 1
 60 443 l 1
 123 443 l 1
 123 563 l 1
 60 563 l 1
 60 631 l 1
 128 631 l 1xbe
 128 568 l 1
 185 568 l 1
 185 693 l 1
 253 693 l 1
 253 568 l 1
 310 568 l 1x5e
 310 631 l 1
 378 631 l 1
 378 563 l 1
 316 563 l 1
 316 443 l 1
 378 443 l 1
 378 375 l 1
 310 375 l 1xbe
EndSplineSet
EndChar

StartChar: plus
Encoding: 43 43 12
Width: 563
GlyphClass: 2
Flags: MW
HStem: 250 68<60 248 60 248 316 503>
VStem: 248 68<63 250 63 250 318 506>
LayerCount: 2
Back
Fore
SplineSet
316 250 m 1
 316 63 l 1
 248 63 l 1
 248 250 l 1
 60 250 l 1
 60 318 l 1
 248 318 l 1
 248 506 l 1
 316 506 l 1
 316 318 l 1
 503 318 l 1
 503 250 l 1
 316 250 l 1
EndSplineSet
EndChar

StartChar: comma
Encoding: 44 44 13
Width: 251
GlyphClass: 2
Flags: MW
HStem: -187 68<60 123 60 128 60 123> 0 131<60 123 60 191>
VStem: 60 68<-187 -125 -187 -119 -187 -119> 123 68<-119 0 0 0>
LayerCount: 2
Back
Fore
SplineSet
128 -125 m 1xe0
 128 -187 l 1
 60 -187 l 1
 60 -119 l 1xe0
 123 -119 l 1
 123 0 l 1xd0
 60 0 l 1
 60 131 l 1xe0
 191 131 l 1
 191 -125 l 1xd0
 128 -125 l 1xe0
EndSplineSet
EndChar

StartChar: hyphen
Encoding: 45 45 14
Width: 438
GlyphClass: 2
Flags: MW
HStem: 250 68<60 378 60 378>
VStem: 60 318<250 318 250 318>
LayerCount: 2
Back
Fore
SplineSet
60 250 m 1
 60 318 l 1
 378 318 l 1
 378 250 l 1
 60 250 l 1
EndSplineSet
EndChar

StartChar: period
Encoding: 46 46 15
Width: 251
GlyphClass: 2
Flags: MW
HStem: 0 131<60 191 60 191>
VStem: 60 131<0 131 0 131>
LayerCount: 2
Back
Fore
SplineSet
60 0 m 1
 60 131 l 1
 191 131 l 1
 191 0 l 1
 60 0 l 1
EndSplineSet
EndChar

StartChar: slash
Encoding: 47 47 16
Width: 563
GlyphClass: 2
Flags: MW
HStem: -62 130<60 123 60 191 60 123> 63 130<123 253 123 191> 188 130<185 316 185 253> 313 130<248 378 248 316> 438 130<310 441 310 378> 563 130<441 441 441 503>
VStem: 123 68<-62 193> 185 68<63 318> 248 68<188 443> 310 68<313 568> 373 68<438 693>
LayerCount: 2
Back
Fore
SplineSet
441 563 m 1xa6a0
 441 438 l 1xaaa0
 378 438 l 1xaa40
 378 313 l 1x9640
 316 313 l 1x96a0
 316 188 l 1xa6a0
 253 188 l 1xa520
 253 63 l 1x4520
 191 63 l 1x46a0
 191 -62 l 1
 60 -62 l 1
 60 68 l 1
 123 68 l 1xa6a0
 123 193 l 1x46a0
 185 193 l 1x4520
 185 318 l 1xa520
 248 318 l 1xa6a0
 248 443 l 1x96a0
 310 443 l 1x9640
 310 568 l 1xaa40
 373 568 l 1xaaa0
 373 693 l 1
 503 693 l 1
 503 563 l 1
 441 563 l 1xa6a0
EndSplineSet
EndChar

StartChar: zero
Encoding: 48 48 17
Width: 501
GlyphClass: 2
Flags: MW
HStem: 0 68<191 310 191 378> 548 20G<60 123 123 123 378 441 441 441> 563 68<191 310 191 191>
VStem: 60 131<68 563 68 568 68 568> 310 131<68 563 563 563>
LayerCount: 2
Back
Fore
SplineSet
378 63 m 1xb8
 378 0 l 1
 123 0 l 1
 123 63 l 1
 60 63 l 1
 60 568 l 1
 123 568 l 1xd8
 123 631 l 1
 378 631 l 1xb8
 378 568 l 1
 441 568 l 1xd8
 441 63 l 1
 378 63 l 1xb8
310 563 m 1xb8
 191 563 l 1
 191 68 l 1
 310 68 l 1
 310 563 l 1xb8
EndSplineSet
Substitution2: "'onum' Oldstyle Figures in Latin lookup 3 subtable" zero.osf
Substitution2: "'aalt' Access All Alternates in Latin lookup 0 subtable" zero.osf
EndChar

StartChar: one
Encoding: 49 49 18
Width: 376
GlyphClass: 2
Flags: MW
HStem: 0 21G<185 185 185 316> 438 68<60 123 60 128 60 123> 500 68<128 185 128 128>
VStem: 60 68<438 500 438 506 438 506> 185 131<0 500 500 500 568 631 0 631>
LayerCount: 2
Back
Fore
SplineSet
185 0 m 1xd8
 185 500 l 1
 128 500 l 1xb8
 128 438 l 1
 60 438 l 1
 60 506 l 1
 123 506 l 1xd8
 123 568 l 1
 185 568 l 1
 185 631 l 1
 316 631 l 1xb8
 316 0 l 1
 185 0 l 1xd8
EndSplineSet
Substitution2: "'onum' Oldstyle Figures in Latin lookup 3 subtable" one.osf
Substitution2: "'aalt' Access All Alternates in Latin lookup 0 subtable" one.osf
EndChar

StartChar: two
Encoding: 50 50 19
Width: 501
GlyphClass: 2
Flags: MW
HStem: 0 68<191 441 191 441> 0 193<60 123 60 123 60 441> 188 68<123 253 123 191> 250 68<185 316 185 253> 313 68<248 378 248 316> 375 193<378 441> 438 130<60 123 60 191 60 123> 563 68<191 310 191 191>
VStem: 60 131<68 188 68 193 68 193 438 563> 185 68<188 318> 248 68<250 381> 310 68<313 563>
LayerCount: 2
Back
Fore
SplineSet
60 0 m 1x9190
 60 193 l 1
 123 193 l 1x5190
 123 256 l 1xa190
 185 256 l 1xa150
 185 318 l 1x9150
 248 318 l 1x91a0
 248 381 l 1x89a0
 310 381 l 1
 310 563 l 1
 191 563 l 1x8990
 191 438 l 1
 60 438 l 1
 60 568 l 1
 123 568 l 1x9290
 123 631 l 1
 378 631 l 1x9190
 378 568 l 1
 441 568 l 1x9290
 441 375 l 1
 378 375 l 1x9490
 378 313 l 1x8990
 316 313 l 1x89a0
 316 250 l 1x91a0
 253 250 l 1x9150
 253 188 l 1xa150
 191 188 l 1xa190
 191 68 l 1
 441 68 l 1
 441 0 l 1
 60 0 l 1x9190
EndSplineSet
Substitution2: "'onum' Oldstyle Figures in Latin lookup 3 subtable" two.osf
Substitution2: "'aalt' Access All Alternates in Latin lookup 0 subtable" two.osf
EndChar

StartChar: three
Encoding: 51 51 20
Width: 501
GlyphClass: 2
Flags: MW
HStem: 0 68<191 310 191 378> 63 130<60 123 60 191> 313 68<185 310 185 310> 375 193<378 441> 438 130<60 123 60 191 60 123> 563 68<191 310 191 191>
VStem: 60 131<68 193 68 193 68 193 438 563> 310 131<68 313 313 313 381 563 563 563>
LayerCount: 2
Back
Fore
SplineSet
378 63 m 1x53
 378 0 l 1
 123 0 l 1xa7
 123 63 l 1
 60 63 l 1
 60 193 l 1
 191 193 l 1x67
 191 68 l 1
 310 68 l 1
 310 313 l 1
 185 313 l 1
 185 381 l 1
 310 381 l 1
 310 563 l 1
 191 563 l 1xa7
 191 438 l 1
 60 438 l 1
 60 568 l 1
 123 568 l 1xab
 123 631 l 1
 378 631 l 1xa7
 378 568 l 1
 441 568 l 1xab
 441 375 l 1
 378 375 l 1
 378 318 l 1
 441 318 l 1
 441 63 l 1
 378 63 l 1x53
EndSplineSet
Substitution2: "'onum' Oldstyle Figures in Latin lookup 3 subtable" three.osf
Substitution2: "'aalt' Access All Alternates in Latin lookup 0 subtable" three.osf
EndChar

StartChar: four
Encoding: 52 52 21
Width: 563
GlyphClass: 2
Flags: MW
HStem: 0 193<128 441 128 310> 125 68<128 310 128 310 441 503> 250 131<128 185 123 191 128 128> 375 131<191 248 185 253 191 191> 500 131<253 310 253 253>
VStem: 60 68<193 250 193 256 193 256> 123 68<256 375 250 381 250 381> 185 68<381 500 375 506 375 506> 310 131<0 125 0 125 193 500 500 500>
LayerCount: 2
Back
Fore
SplineSet
441 125 m 1x6a80
 441 0 l 1
 310 0 l 1xaa80
 310 125 l 1
 60 125 l 1
 60 256 l 1x6c80
 123 256 l 1
 123 381 l 1x6a80
 185 381 l 1x6980
 185 506 l 1
 248 506 l 1x5180
 248 631 l 1
 441 631 l 1
 441 193 l 1
 503 193 l 1
 503 125 l 1
 441 125 l 1x6a80
310 500 m 1
 253 500 l 1x6980
 253 375 l 1x5180
 191 375 l 1x5280
 191 250 l 1x6a80
 128 250 l 1
 128 193 l 1
 310 193 l 1x6c80
 310 500 l 1
EndSplineSet
Substitution2: "'onum' Oldstyle Figures in Latin lookup 3 subtable" four.osf
Substitution2: "'aalt' Access All Alternates in Latin lookup 0 subtable" four.osf
EndChar

StartChar: five
Encoding: 53 53 22
Width: 501
GlyphClass: 2
Flags: MW
HStem: 0 68<191 310 191 378> 63 130<60 123 60 191> 375 68<191 310> 375 193<60 123 60 310 60 123> 563 68<191 441 191 191>
VStem: 60 131<68 193 68 193 68 193 443 563> 310 131<68 375 375 375>
LayerCount: 2
Back
Fore
SplineSet
378 63 m 1x6e
 378 0 l 1
 123 0 l 1xae
 123 63 l 1
 60 63 l 1
 60 193 l 1
 191 193 l 1x6e
 191 68 l 1
 310 68 l 1
 310 375 l 1
 60 375 l 1xae
 60 568 l 1
 123 568 l 1x96
 123 631 l 1
 441 631 l 1
 441 563 l 1
 191 563 l 1
 191 443 l 1
 378 443 l 1
 378 381 l 1
 441 381 l 1
 441 63 l 1
 378 63 l 1x6e
EndSplineSet
Substitution2: "'onum' Oldstyle Figures in Latin lookup 3 subtable" five.osf
Substitution2: "'aalt' Access All Alternates in Latin lookup 0 subtable" five.osf
EndChar

StartChar: six
Encoding: 54 54 23
Width: 501
GlyphClass: 2
Flags: MW
HStem: 0 68<191 310 191 378> 63 255<378 441 378 441> 313 68<191 310 191 378> 548 20G<60 123 123 123> 563 68<191 378 191 191>
VStem: 60 131<68 313 381 563> 310 131<68 313 313 313>
LayerCount: 2
Back
Fore
SplineSet
378 63 m 1x4e
 378 0 l 1
 123 0 l 1
 123 63 l 1
 60 63 l 1
 60 568 l 1
 123 568 l 1xb6
 123 631 l 1
 378 631 l 1
 378 563 l 1
 191 563 l 1
 191 381 l 1
 378 381 l 1xae
 378 318 l 1
 441 318 l 1
 441 63 l 1
 378 63 l 1x4e
310 313 m 1
 191 313 l 1
 191 68 l 1
 310 68 l 1
 310 313 l 1
EndSplineSet
Substitution2: "'onum' Oldstyle Figures in Latin lookup 3 subtable" six.osf
Substitution2: "'aalt' Access All Alternates in Latin lookup 0 subtable" six.osf
EndChar

StartChar: seven
Encoding: 55 55 24
Width: 501
GlyphClass: 2
Flags: MW
HStem: 0 193<123 185 123 253 123 185> 188 130<185 316 185 253> 313 130<248 378 248 316> 563 68<60 310 60 441>
VStem: 185 68<0 318> 248 68<188 443> 310 68<313 563>
LayerCount: 2
Back
Fore
SplineSet
378 438 m 1xba
 378 313 l 1xba
 316 313 l 1xb4
 316 188 l 1x54
 253 188 l 1x5a
 253 0 l 1
 123 0 l 1
 123 193 l 1
 185 193 l 1xba
 185 318 l 1x5a
 248 318 l 1x54
 248 443 l 1xb4
 310 443 l 1
 310 563 l 1
 60 563 l 1
 60 631 l 1
 441 631 l 1
 441 438 l 1
 378 438 l 1xba
EndSplineSet
Substitution2: "'onum' Oldstyle Figures in Latin lookup 3 subtable" seven.osf
Substitution2: "'aalt' Access All Alternates in Latin lookup 0 subtable" seven.osf
EndChar

StartChar: eight
Encoding: 56 56 25
Width: 501
GlyphClass: 2
Flags: MW
HStem: 0 68<191 310 191 378> 63 255<60 123 60 123 378 441> 313 68<191 310 191 310> 375 193<60 123 60 123 378 441> 563 68<191 310 191 191>
VStem: 60 131<68 313 68 318 68 318 381 563> 310 131<68 313 313 313 381 563 563 563>
LayerCount: 2
Back
Fore
SplineSet
378 63 m 1x56
 378 0 l 1
 123 0 l 1xae
 123 63 l 1
 60 63 l 1
 60 318 l 1
 123 318 l 1
 123 375 l 1
 60 375 l 1
 60 568 l 1
 123 568 l 1x56
 123 631 l 1
 378 631 l 1xae
 378 568 l 1
 441 568 l 1
 441 375 l 1
 378 375 l 1
 378 318 l 1
 441 318 l 1
 441 63 l 1
 378 63 l 1x56
310 563 m 1
 191 563 l 1
 191 381 l 1
 310 381 l 1
 310 563 l 1
310 313 m 1
 191 313 l 1
 191 68 l 1
 310 68 l 1
 310 313 l 1
EndSplineSet
Substitution2: "'onum' Oldstyle Figures in Latin lookup 3 subtable" eight.osf
Substitution2: "'aalt' Access All Alternates in Latin lookup 0 subtable" eight.osf
EndChar

StartChar: nine
Encoding: 57 57 26
Width: 501
GlyphClass: 2
Flags: MW
HStem: 0 68<123 248 123 253 123 248> 63 68<253 310 248 378 253 253> 250 68<191 248 191 253> 313 68<253 310 253 253> 548 20G<60 123 123 123 378 441 441 441> 563 68<191 310 191 191>
VStem: 60 131<318 563 318 568 318 568> 123 130<0 63 0 68 0 68 250 313> 310 131<131 313 313 313 381 563 563 563>
LayerCount: 2
Back
Fore
SplineSet
378 125 m 1xa680
 378 63 l 1
 253 63 l 1x5580
 253 0 l 1xa580
 123 0 l 1
 123 68 l 1xa680
 248 68 l 1xa580
 248 131 l 1
 310 131 l 1
 310 313 l 1
 253 313 l 1x5580
 253 250 l 1xa580
 123 250 l 1xa680
 123 313 l 1
 60 313 l 1
 60 568 l 1
 123 568 l 1x9a80
 123 631 l 1
 378 631 l 1xa680
 378 568 l 1
 441 568 l 1xaa80
 441 125 l 1
 378 125 l 1xa680
310 563 m 1
 191 563 l 1
 191 318 l 1
 248 318 l 1xa680
 248 381 l 1x9680
 310 381 l 1
 310 563 l 1
EndSplineSet
Substitution2: "'onum' Oldstyle Figures in Latin lookup 3 subtable" nine.osf
Substitution2: "'aalt' Access All Alternates in Latin lookup 0 subtable" nine.osf
EndChar

StartChar: colon
Encoding: 58 58 27
Width: 251
GlyphClass: 2
Flags: MW
HStem: 0 131<60 191 60 191> 438 130<60 191 60 191>
VStem: 60 131<0 131 0 131 438 568>
LayerCount: 2
Back
Fore
SplineSet
60 438 m 1
 60 568 l 1
 191 568 l 1
 191 438 l 1
 60 438 l 1
60 0 m 1
 60 131 l 1
 191 131 l 1
 191 0 l 1
 60 0 l 1
EndSplineSet
EndChar

StartChar: semicolon
Encoding: 59 59 28
Width: 251
GlyphClass: 2
Flags: MW
HStem: -187 68<60 123 60 128 60 123> 0 131<60 123 60 191> 438 130<60 191 60 191>
VStem: 60 68<-187 -125 -187 -119 -187 -119> 123 68<-119 0 0 0>
LayerCount: 2
Back
Fore
SplineSet
60 438 m 1xe8
 60 568 l 1
 191 568 l 1
 191 438 l 1
 60 438 l 1xe8
128 -125 m 1xf0
 128 -187 l 1
 60 -187 l 1
 60 -119 l 1xf0
 123 -119 l 1
 123 0 l 1xe8
 60 0 l 1
 60 131 l 1xf0
 191 131 l 1
 191 -125 l 1xe8
 128 -125 l 1xf0
EndSplineSet
EndChar

StartChar: less
Encoding: 60 60 29
Width: 563
GlyphClass: 2
Flags: MW
HStem: -62 68<441 503 441 503> 0 68<310 441> 63 68<248 378> 125 68<185 316> 188 68<123 253> 250 68<60 123 60 123> 313 68<123 253 123 191> 375 68<185 316 185 253> 438 68<248 378 248 316> 500 68<310 441 310 378> 563 68<441 503 441 441>
VStem: 123 68<188 313 250 313 256 381> 185 68<125 256 188 256> 248 68<63 193 125 193> 310 68<0 131 63 131> 373 68<-62 68 0 68>
LayerCount: 2
Back
Fore
SplineSet
373 -62 m 1x9529
 373 0 l 1x5529
 310 0 l 1x552a
 310 63 l 1xa52a
 248 63 l 1xa524
 248 125 l 1x9524
 185 125 l 1x952a
 185 188 l 1x892a
 123 188 l 1x8932
 123 250 l 1
 60 250 l 1
 60 318 l 1
 123 318 l 1x9532
 123 381 l 1x9232
 185 381 l 1x922a
 185 443 l 1x952a
 248 443 l 1x9524
 248 506 l 1x94a4
 310 506 l 1x94aa
 310 568 l 1x954a
 373 568 l 1x9549
 373 631 l 1
 503 631 l 1
 503 563 l 1
 441 563 l 1x9529
 441 500 l 1x9549
 378 500 l 1x954a
 378 438 l 1x94aa
 316 438 l 1x94a4
 316 375 l 1x9524
 253 375 l 1x952a
 253 313 l 1x922a
 191 313 l 1
 191 256 l 1x8a32
 253 256 l 1x892a
 253 193 l 1x952a
 316 193 l 1x9524
 316 131 l 1xa524
 378 131 l 1xa52a
 378 68 l 1x552a
 441 68 l 1x5529
 441 6 l 1
 503 6 l 1
 503 -62 l 1
 373 -62 l 1x9529
EndSplineSet
EndChar

StartChar: equal
Encoding: 61 61 30
Width: 563
GlyphClass: 2
Flags: MW
HStem: 125 68<60 503 60 503> 375 68<60 503 60 503>
VStem: 60 443<125 193 125 193 375 443 125 443>
LayerCount: 2
Back
Fore
SplineSet
60 375 m 1
 60 443 l 1
 503 443 l 1
 503 375 l 1
 60 375 l 1
60 125 m 1
 60 193 l 1
 503 193 l 1
 503 125 l 1
 60 125 l 1
EndSplineSet
EndChar

StartChar: greater
Encoding: 62 62 31
Width: 563
GlyphClass: 2
Flags: MW
HStem: -62 68<60 123 60 191 60 123> 0 68<123 253 123 191> 63 68<185 316 185 253> 125 68<248 378 248 316> 188 68<310 441 310 378> 250 68<441 503 441 503> 313 68<310 441> 375 68<248 378> 438 68<185 316> 500 68<123 253> 563 68<60 123 60 191>
VStem: 123 68<-62 68> 185 68<0 131> 248 68<63 193> 310 68<125 256> 373 68<188 313 188 313>
LayerCount: 2
Back
Fore
SplineSet
441 250 m 1xa4b1
 441 188 l 1xa8b1
 378 188 l 1xa8b2
 378 125 l 1x94b2
 316 125 l 1x94b4
 316 63 l 1xa4b4
 253 63 l 1xa4aa
 253 0 l 1x44aa
 191 0 l 1x44b2
 191 -62 l 1
 60 -62 l 1
 60 6 l 1
 123 6 l 1xa4b2
 123 68 l 1x44b2
 185 68 l 1x44aa
 185 131 l 1xa4aa
 248 131 l 1xa4b4
 248 193 l 1x94b4
 310 193 l 1x94b2
 310 256 l 1xa8b2
 373 256 l 1
 373 313 l 1xaab1
 310 313 l 1xa2b2
 310 375 l 1xa532
 248 375 l 1xa534
 248 438 l 1xa4b4
 185 438 l 1xa4aa
 185 500 l 1xa44a
 123 500 l 1xa452
 123 563 l 1
 60 563 l 1
 60 631 l 1
 191 631 l 1xa4b2
 191 568 l 1xa452
 253 568 l 1xa44a
 253 506 l 1xa4aa
 316 506 l 1xa4b4
 316 443 l 1xa534
 378 443 l 1xa532
 378 381 l 1xa2b2
 441 381 l 1xa2b1
 441 318 l 1
 503 318 l 1
 503 250 l 1
 441 250 l 1xa4b1
EndSplineSet
EndChar

StartChar: question
Encoding: 63 63 32
Width: 501
GlyphClass: 2
Flags: MW
HStem: 0 131<123 253 123 253> 188 130<123 248 123 253 123 248> 313 68<253 310 248 378 253 253> 563 68<60 123 60 128 60 123> 625 68<128 310 128 128>
VStem: 60 68<563 625 563 631 563 631> 123 130<0 131 0 131 188 313> 310 131<381 625 625 625>
LayerCount: 2
Back
Fore
SplineSet
378 375 m 1xad
 378 313 l 1
 253 313 l 1xab
 253 188 l 1
 123 188 l 1
 123 318 l 1
 248 318 l 1xcb
 248 381 l 1
 310 381 l 1
 310 625 l 1
 128 625 l 1xad
 128 563 l 1
 60 563 l 1
 60 631 l 1
 123 631 l 1xb5
 123 693 l 1
 378 693 l 1xad
 378 631 l 1
 441 631 l 1xb5
 441 375 l 1
 378 375 l 1xad
123 0 m 1
 123 131 l 1
 253 131 l 1
 253 0 l 1
 123 0 l 1
EndSplineSet
EndChar

StartChar: at
Encoding: 64 64 33
Width: 751
GlyphClass: 2
Flags: MW
HStem: -62 68<253 566 253 566 248 566> 0 68<191 248 185 253> 63 68<128 185 123 191 316 435 503 623> 125 131<60 310 248 310 248 310> 250 68<316 435 316 316> 375 68<248 435> 438 68<128 185 123 191 128 128 566 623> 500 68<191 248 185 253 191 191 503 560> 563 68<253 498 253 253>
VStem: 60 68<131 438 131 443 131 443> 123 68<68 125 125 125 443 500> 185 68<6 63 63 63 506 563> 248 68<131 250 131 256 131 256> 310 131<63 125 63 125> 435 68<131 250 250 250 318 375 375 375> 498 68<-62 125 506 563 563 563> 560 68<443 500 500 500> 623 68<131 438 438 438>
LayerCount: 2
Back
Fore
SplineSet
628 125 m 1xacca80
 628 63 l 1xacca80
 498 63 l 1xacc940
 498 125 l 1
 441 125 l 1x94c540
 441 63 l 1
 310 63 l 1xacc440
 310 125 l 1x94c440
 248 125 l 1
 248 256 l 1x94ca40
 310 256 l 1x94c440
 310 318 l 1xacc440
 435 318 l 1
 435 375 l 1
 248 375 l 1
 248 443 l 1xacca40
 441 443 l 1
 441 381 l 1xacc440
 503 381 l 1xacca40
 503 131 l 1
 623 131 l 1
 623 438 l 1xaaca40
 560 438 l 1xaaca80
 560 500 l 1xad4a80
 498 500 l 1xad4940
 498 563 l 1
 253 563 l 1xacd140
 253 500 l 1xad5240
 191 500 l 1xad2a40
 191 438 l 1xaaaa40
 128 438 l 1
 128 131 l 1xaaca40
 191 131 l 1xacaa40
 191 68 l 1x4caa40
 253 68 l 1x4cd240
 253 6 l 1xacd240
 566 6 l 1
 566 -62 l 1
 248 -62 l 1xacc940
 248 0 l 1x4cca40
 185 0 l 1x4cd240
 185 63 l 1xacd240
 123 63 l 1xacaa40
 123 125 l 1x94aa40
 60 125 l 1
 60 443 l 1x94ca40
 123 443 l 1xacaa40
 123 506 l 1xaaaa40
 185 506 l 1xaad240
 185 568 l 1xad5240
 248 568 l 1xad4a40
 248 631 l 1
 503 631 l 1xacca40
 503 568 l 1xad4a40
 566 568 l 1xad4940
 566 506 l 1xaac940
 628 506 l 1xaaca80
 628 443 l 1xacca80
 691 443 l 1
 691 125 l 1xacca40
 628 125 l 1xacca80
435 250 m 1
 316 250 l 1
 316 131 l 1
 435 131 l 1
 435 250 l 1
EndSplineSet
EndChar

StartChar: A
Encoding: 65 65 34
Width: 563
GlyphClass: 2
Flags: MW
HStem: 0 21G<60 191 60 60 373 503 373 373> 313 68<191 373 191 373> 625 68<191 373 191 191>
VStem: 60 131<0 313 0 381 381 625> 373 130<0 313 313 313 381 625 625 625>
LayerCount: 2
Back
Fore
SplineSet
373 0 m 1
 373 313 l 1
 191 313 l 1
 191 0 l 1
 60 0 l 1
 60 631 l 1
 123 631 l 1
 123 693 l 1
 441 693 l 1
 441 631 l 1
 503 631 l 1
 503 0 l 1
 373 0 l 1
373 625 m 1
 191 625 l 1
 191 381 l 1
 373 381 l 1
 373 625 l 1
EndSplineSet
Substitution2: "'c2sc' Capitals to Small Capitals in Latin lookup 2 subtable" a.sc
Substitution2: "'aalt' Access All Alternates in Latin lookup 0 subtable" a.sc
EndChar

StartChar: B
Encoding: 66 66 35
Width: 563
GlyphClass: 2
Flags: MW
HStem: 0 68<191 373 191 441> 63 255<441 503 441 503> 313 68<191 373 191 373> 375 256<441 503 441 503> 625 68<191 373 191 191>
VStem: 60 131<68 313 381 625> 373 68<0 313>
LayerCount: 2
Back
Fore
SplineSet
441 63 m 1x56
 441 0 l 1
 60 0 l 1
 60 693 l 1
 441 693 l 1xae
 441 631 l 1
 503 631 l 1
 503 375 l 1
 441 375 l 1
 441 318 l 1
 503 318 l 1
 503 63 l 1
 441 63 l 1x56
373 625 m 1
 191 625 l 1
 191 381 l 1
 373 381 l 1
 373 625 l 1
373 313 m 1
 191 313 l 1
 191 68 l 1
 373 68 l 1
 373 313 l 1
EndSplineSet
Substitution2: "'c2sc' Capitals to Small Capitals in Latin lookup 2 subtable" b.sc
Substitution2: "'aalt' Access All Alternates in Latin lookup 0 subtable" b.sc
EndChar

StartChar: C
Encoding: 67 67 36
Width: 563
GlyphClass: 2
Flags: MW
HStem: 0 68<191 373 191 441> 63 130<441 503 441 441> 500 131<441 503> 625 68<191 373 191 191>
VStem: 60 131<68 625 68 631 68 631> 373 68<0 193>
LayerCount: 2
Back
Fore
SplineSet
441 63 m 1x5c
 441 0 l 1
 123 0 l 1
 123 63 l 1
 60 63 l 1
 60 631 l 1
 123 631 l 1
 123 693 l 1
 441 693 l 1x9c
 441 631 l 1
 503 631 l 1
 503 500 l 1
 373 500 l 1xac
 373 625 l 1
 191 625 l 1
 191 68 l 1
 373 68 l 1x9c
 373 193 l 1
 503 193 l 1
 503 63 l 1
 441 63 l 1x5c
EndSplineSet
Substitution2: "'c2sc' Capitals to Small Capitals in Latin lookup 2 subtable" c.sc
Substitution2: "'aalt' Access All Alternates in Latin lookup 0 subtable" c.sc
EndChar

StartChar: D
Encoding: 68 68 37
Width: 626
GlyphClass: 2
Flags: MW
HStem: 0 68<191 435 191 441> 548 20G<503 566 566 566> 625 68<191 435 191 191>
VStem: 60 131<68 625 68 693 68 693> 435 68<68 125 568 625 625 625>
LayerCount: 2
Back
Fore
SplineSet
503 125 m 1
 503 63 l 1
 441 63 l 1
 441 0 l 1
 60 0 l 1
 60 693 l 1
 441 693 l 1
 441 631 l 1
 503 631 l 1
 503 568 l 1
 566 568 l 1
 566 125 l 1
 503 125 l 1
435 625 m 1
 191 625 l 1
 191 68 l 1
 435 68 l 1
 435 625 l 1
EndSplineSet
Substitution2: "'c2sc' Capitals to Small Capitals in Latin lookup 2 subtable" d.sc
Substitution2: "'aalt' Access All Alternates in Latin lookup 0 subtable" d.sc
EndChar

StartChar: E
Encoding: 69 69 38
Width: 501
GlyphClass: 2
Flags: MW
HStem: 0 68<191 441 191 441> 313 68<191 378 191 378> 625 68<191 441 191 191>
VStem: 60 131<68 313 381 625>
LayerCount: 2
Back
Fore
SplineSet
60 0 m 1
 60 693 l 1
 441 693 l 1
 441 625 l 1
 191 625 l 1
 191 381 l 1
 378 381 l 1
 378 313 l 1
 191 313 l 1
 191 68 l 1
 441 68 l 1
 441 0 l 1
 60 0 l 1
EndSplineSet
Substitution2: "'c2sc' Capitals to Small Capitals in Latin lookup 2 subtable" e.sc
Substitution2: "'aalt' Access All Alternates in Latin lookup 0 subtable" e.sc
EndChar

StartChar: F
Encoding: 70 70 39
Width: 501
GlyphClass: 2
Flags: MW
HStem: 0 21G<60 191 60 60> 313 68<191 378 191 378> 625 68<191 191 191 441>
VStem: 60 131<0 313 381 625>
LayerCount: 2
Back
Fore
SplineSet
191 625 m 1
 191 381 l 1
 378 381 l 1
 378 313 l 1
 191 313 l 1
 191 0 l 1
 60 0 l 1
 60 693 l 1
 441 693 l 1
 441 625 l 1
 191 625 l 1
EndSplineSet
Substitution2: "'c2sc' Capitals to Small Capitals in Latin lookup 2 subtable" f.sc
Substitution2: "'aalt' Access All Alternates in Latin lookup 0 subtable" f.sc
EndChar

StartChar: G
Encoding: 71 71 40
Width: 626
GlyphClass: 2
Flags: MW
HStem: 0 68<191 435 191 441 191 566 191 498> 313 68<373 435 373 566> 500 131<503 566> 625 68<191 435 191 191>
VStem: 60 131<68 625 68 631 68 631> 435 131<68 313 313 313 500 625 625 625>
LayerCount: 2
Back
Fore
SplineSet
498 0 m 1xdc
 498 63 l 1
 441 63 l 1
 441 0 l 1
 123 0 l 1
 123 63 l 1
 60 63 l 1
 60 631 l 1
 123 631 l 1
 123 693 l 1
 503 693 l 1xdc
 503 631 l 1
 566 631 l 1
 566 500 l 1
 435 500 l 1xec
 435 625 l 1
 191 625 l 1
 191 68 l 1
 435 68 l 1
 435 313 l 1
 373 313 l 1
 373 381 l 1
 566 381 l 1
 566 0 l 1
 498 0 l 1xdc
EndSplineSet
Substitution2: "'c2sc' Capitals to Small Capitals in Latin lookup 2 subtable" g.sc
Substitution2: "'aalt' Access All Alternates in Latin lookup 0 subtable" g.sc
EndChar

StartChar: H
Encoding: 72 72 41
Width: 626
GlyphClass: 2
Flags: MW
HStem: 0 21G<60 191 60 60 435 566 435 435> 313 68<191 435 191 435> 673 20G<60 191 191 191 435 566 566 566>
VStem: 60 131<0 313 0 381 381 693> 435 131<0 313 313 313 381 693 0 693>
LayerCount: 2
Back
Fore
SplineSet
435 0 m 1
 435 313 l 1
 191 313 l 1
 191 0 l 1
 60 0 l 1
 60 693 l 1
 191 693 l 1
 191 381 l 1
 435 381 l 1
 435 693 l 1
 566 693 l 1
 566 0 l 1
 435 0 l 1
EndSplineSet
Substitution2: "'c2sc' Capitals to Small Capitals in Latin lookup 2 subtable" h.sc
Substitution2: "'aalt' Access All Alternates in Latin lookup 0 subtable" h.sc
EndChar

StartChar: I
Encoding: 73 73 42
Width: 251
GlyphClass: 2
Flags: MW
HStem: 0 21G<60 60 60 191> 673 20G<60 191 191 191>
VStem: 60 131<0 693 0 693>
LayerCount: 2
Back
Fore
SplineSet
60 0 m 1
 60 693 l 1
 191 693 l 1
 191 0 l 1
 60 0 l 1
EndSplineSet
Substitution2: "'c2sc' Capitals to Small Capitals in Latin lookup 2 subtable" i.sc
Substitution2: "'aalt' Access All Alternates in Latin lookup 0 subtable" i.sc
EndChar

StartChar: J
Encoding: 74 74 43
Width: 501
GlyphClass: 2
Flags: MW
HStem: 0 68<191 310 191 378> 63 193<60 123 60 191 60 441 60 378> 673 20G<310 441 441 441>
VStem: 60 131<68 256 68 256 68 256> 310 131<68 693 63 693>
LayerCount: 2
Back
Fore
SplineSet
378 63 m 1x78
 378 0 l 1
 123 0 l 1xb8
 123 63 l 1
 60 63 l 1
 60 256 l 1
 191 256 l 1x78
 191 68 l 1
 310 68 l 1xb8
 310 693 l 1
 441 693 l 1
 441 63 l 1
 378 63 l 1x78
EndSplineSet
Substitution2: "'c2sc' Capitals to Small Capitals in Latin lookup 2 subtable" j.sc
Substitution2: "'aalt' Access All Alternates in Latin lookup 0 subtable" j.sc
EndChar

StartChar: K
Encoding: 75 75 44
Width: 626
GlyphClass: 2
Flags: MW
HStem: 0 68<503 566 503 566> 313 68<191 373 191 373> 438 255<441 503 441 441> 673 20G<60 191 191 191 373 503 503 503>
VStem: 60 131<0 313 0 381 381 693> 373 68<0 438 313 438 381 438 375 693>
LayerCount: 2
Back
Fore
SplineSet
373 0 m 1xdc
 373 313 l 1
 191 313 l 1
 191 0 l 1
 60 0 l 1
 60 693 l 1
 191 693 l 1
 191 381 l 1
 373 381 l 1
 373 693 l 1
 503 693 l 1
 503 438 l 1
 441 438 l 1
 441 375 l 1
 378 375 l 1xec
 378 318 l 1
 503 318 l 1
 503 68 l 1
 566 68 l 1
 566 0 l 1
 373 0 l 1xdc
EndSplineSet
Substitution2: "'c2sc' Capitals to Small Capitals in Latin lookup 2 subtable" k.sc
Substitution2: "'aalt' Access All Alternates in Latin lookup 0 subtable" k.sc
EndChar

StartChar: L
Encoding: 76 76 45
Width: 501
GlyphClass: 2
Flags: MW
HStem: 0 68<191 441 191 441> 673 20G<60 191 191 191>
VStem: 60 131<68 693 68 693 68 693>
LayerCount: 2
Back
Fore
SplineSet
60 0 m 1
 60 693 l 1
 191 693 l 1
 191 68 l 1
 441 68 l 1
 441 0 l 1
 60 0 l 1
EndSplineSet
Substitution2: "'c2sc' Capitals to Small Capitals in Latin lookup 2 subtable" l.sc
Substitution2: "'aalt' Access All Alternates in Latin lookup 0 subtable" l.sc
EndChar

StartChar: M
Encoding: 77 77 46
Width: 813
GlyphClass: 2
Flags: MW
HStem: 0 21G<60 191 60 60 623 753 623 623> 375 68<310 435 378 503 378 441> 438 68<248 378> 500 68<191 316 191 316> 500 193<60 248 60 191>
VStem: 60 131<0 500 631 693> 248 68<438 568 500 568> 310 68<375 506 438 506> 373 68<313 375 313 375> 435 68<375 506> 498 68<438 568> 623 130<0 500 500 500 631 693 0 693>
LayerCount: 2
Back
Fore
SplineSet
623 0 m 1xa6b0
 623 500 l 1
 566 500 l 1x96b0
 566 438 l 1xa6b0
 503 438 l 1xa650
 503 375 l 1xc650
 441 375 l 1
 441 313 l 1
 373 313 l 1
 373 375 l 1xc6b0
 310 375 l 1xc530
 310 438 l 1xa530
 248 438 l 1xa6b0
 248 500 l 1
 191 500 l 1x96b0
 191 0 l 1
 60 0 l 1
 60 693 l 1
 191 693 l 1
 191 631 l 1
 253 631 l 1x8eb0
 253 568 l 1
 316 568 l 1x96b0
 316 506 l 1xa6b0
 378 506 l 1xa530
 378 443 l 1
 435 443 l 1xc550
 435 506 l 1xa650
 498 506 l 1xa6b0
 498 568 l 1
 560 568 l 1
 560 631 l 1
 623 631 l 1x96b0
 623 693 l 1
 753 693 l 1x8eb0
 753 0 l 1
 623 0 l 1xa6b0
EndSplineSet
Substitution2: "'c2sc' Capitals to Small Capitals in Latin lookup 2 subtable" m.sc
Substitution2: "'aalt' Access All Alternates in Latin lookup 0 subtable" m.sc
EndChar

StartChar: N
Encoding: 78 78 47
Width: 688
GlyphClass: 2
Flags: MW
HStem: 0 193<441 498 441 628 435 498> 125 68<373 498> 250 68<310 441> 375 68<248 378> 500 68<191 316 191 316> 500 193<191 248 191 191>
VStem: 60 131<0 500 0 693> 248 68<443 500 500 500> 310 68<318 375 375 375> 373 68<193 250 250 250> 498 130<193 693 0 693>
LayerCount: 2
Back
Fore
SplineSet
435 0 m 1xb760
 435 125 l 1
 373 125 l 1
 373 250 l 1x7b60
 310 250 l 1
 310 375 l 1x7aa0
 248 375 l 1
 248 500 l 1
 191 500 l 1x7b60
 191 0 l 1
 60 0 l 1
 60 693 l 1
 253 693 l 1xb760
 253 568 l 1
 316 568 l 1
 316 443 l 1x7b60
 378 443 l 1
 378 318 l 1x7aa0
 441 318 l 1
 441 193 l 1
 498 193 l 1x7b60
 498 693 l 1
 628 693 l 1
 628 0 l 1
 435 0 l 1xb760
EndSplineSet
Substitution2: "'c2sc' Capitals to Small Capitals in Latin lookup 2 subtable" n.sc
Substitution2: "'aalt' Access All Alternates in Latin lookup 0 subtable" n.sc
EndChar

StartChar: O
Encoding: 79 79 48
Width: 626
GlyphClass: 2
Flags: MW
HStem: 0 68<191 435 191 503> 625 68<191 435 191 191>
VStem: 60 131<68 625 68 631 68 631> 435 131<68 625 625 625>
LayerCount: 2
Back
Fore
SplineSet
503 63 m 1
 503 0 l 1
 123 0 l 1
 123 63 l 1
 60 63 l 1
 60 631 l 1
 123 631 l 1
 123 693 l 1
 503 693 l 1
 503 631 l 1
 566 631 l 1
 566 63 l 1
 503 63 l 1
435 625 m 1
 191 625 l 1
 191 68 l 1
 435 68 l 1
 435 625 l 1
EndSplineSet
Substitution2: "'c2sc' Capitals to Small Capitals in Latin lookup 2 subtable" o.sc
Substitution2: "'aalt' Access All Alternates in Latin lookup 0 subtable" o.sc
EndChar

StartChar: P
Encoding: 80 80 49
Width: 563
GlyphClass: 2
Flags: MW
HStem: 0 21G<60 191 60 60> 250 68<191 373 191 441 191 373> 625 68<191 373 191 191>
VStem: 60 131<0 250 0 318 318 625> 373 68<250 625>
LayerCount: 2
Back
Fore
SplineSet
441 313 m 1
 441 250 l 1
 191 250 l 1
 191 0 l 1
 60 0 l 1
 60 693 l 1
 441 693 l 1
 441 631 l 1
 503 631 l 1
 503 313 l 1
 441 313 l 1
373 625 m 1
 191 625 l 1
 191 318 l 1
 373 318 l 1
 373 625 l 1
EndSplineSet
Substitution2: "'c2sc' Capitals to Small Capitals in Latin lookup 2 subtable" p.sc
Substitution2: "'aalt' Access All Alternates in Latin lookup 0 subtable" p.sc
EndChar

StartChar: Q
Encoding: 81 81 50
Width: 626
GlyphClass: 2
Flags: MW
HStem: -187 68<441 503 441 503 435 503> -125 68<378 435 373 441> 0 68<191 310 378 435 191 503 378 378> 625 68<191 435 191 191>
VStem: 60 131<68 625 68 631 68 631> 310 68<-57 0 -57 0 -57 0> 373 68<-119 -62 -62 -62> 435 131<68 625 625 625>
LayerCount: 2
Back
Fore
SplineSet
503 63 m 1xbd
 503 0 l 1
 378 0 l 1
 378 -57 l 1x7d
 441 -57 l 1x7a
 441 -119 l 1xba
 503 -119 l 1
 503 -187 l 1
 435 -187 l 1xbd
 435 -125 l 1x7d
 373 -125 l 1
 373 -62 l 1x7a
 310 -62 l 1x7d
 310 0 l 1
 123 0 l 1
 123 63 l 1
 60 63 l 1
 60 631 l 1
 123 631 l 1
 123 693 l 1
 503 693 l 1
 503 631 l 1
 566 631 l 1
 566 63 l 1
 503 63 l 1xbd
435 625 m 1
 191 625 l 1
 191 68 l 1
 435 68 l 1
 435 625 l 1
EndSplineSet
Substitution2: "'c2sc' Capitals to Small Capitals in Latin lookup 2 subtable" q.sc
Substitution2: "'aalt' Access All Alternates in Latin lookup 0 subtable" q.sc
EndChar

StartChar: R
Encoding: 82 82 51
Width: 626
GlyphClass: 2
Flags: MW
HStem: 0 68<503 566 503 566> 313 68<191 373 191 373> 375 256<441 503 441 503> 625 68<191 373 191 191>
VStem: 60 131<0 313 0 381 381 625> 373 68<65 375 313 375 318 625>
LayerCount: 2
Back
Fore
SplineSet
373 0 m 1xdc
 373 65 l 1
 373 313 l 1
 191 313 l 1
 191 0 l 1
 60 0 l 1
 60 693 l 1
 441 693 l 1xdc
 441 631 l 1
 503 631 l 1
 503 375 l 1
 441 375 l 1
 441 318 l 1
 503 318 l 1xac
 503 68 l 1
 566 68 l 1
 566 0 l 1
 373 0 l 1xdc
373 625 m 1
 191 625 l 1
 191 381 l 1
 373 381 l 1
 373 625 l 1
EndSplineSet
Substitution2: "'c2sc' Capitals to Small Capitals in Latin lookup 2 subtable" r.sc
Substitution2: "'aalt' Access All Alternates in Latin lookup 0 subtable" r.sc
EndChar

StartChar: S
Encoding: 83 83 52
Width: 563
GlyphClass: 2
Flags: MW
HStem: 0 68<191 373 191 441> 63 130<60 123 60 191> 63 255<441 503 441 503> 313 68<191 373> 375 256<60 123 60 123> 500 131<441 503> 625 68<191 373 191 191>
VStem: 60 131<68 193 68 193 68 193 381 625> 373 68<0 313>
LayerCount: 2
Back
Fore
SplineSet
441 63 m 1x2380
 441 0 l 1
 123 0 l 1x9380
 123 63 l 1
 60 63 l 1
 60 193 l 1
 191 193 l 1x5380
 191 68 l 1
 373 68 l 1
 373 313 l 1
 123 313 l 1x9380
 123 375 l 1
 60 375 l 1
 60 631 l 1
 123 631 l 1x8980
 123 693 l 1
 441 693 l 1x9380
 441 631 l 1
 503 631 l 1
 503 500 l 1
 373 500 l 1x9580
 373 625 l 1
 191 625 l 1
 191 381 l 1
 441 381 l 1x9380
 441 318 l 1
 503 318 l 1
 503 63 l 1
 441 63 l 1x2380
EndSplineSet
Substitution2: "'c2sc' Capitals to Small Capitals in Latin lookup 2 subtable" s.sc
Substitution2: "'aalt' Access All Alternates in Latin lookup 0 subtable" s.sc
EndChar

StartChar: T
Encoding: 84 84 53
Width: 625
GlyphClass: 2
Flags: MW
HStem: 0 21G<247 378 247 247> 625 68<60 247 60 565 378 565 378 378>
VStem: 247 131<0 625 0 625>
LayerCount: 2
Back
Fore
SplineSet
378 625 m 1
 378 0 l 1
 247 0 l 1
 247 625 l 1
 60 625 l 1
 60 693 l 1
 565 693 l 1
 565 625 l 1
 378 625 l 1
EndSplineSet
Substitution2: "'c2sc' Capitals to Small Capitals in Latin lookup 2 subtable" t.sc
Substitution2: "'aalt' Access All Alternates in Latin lookup 0 subtable" t.sc
EndChar

StartChar: U
Encoding: 85 85 54
Width: 563
GlyphClass: 2
Flags: MW
HStem: 0 68<191 310 191 316> 63 68<316 373 310 435 316 316> 673 20G<60 191 191 191 373 503 503 503>
VStem: 60 131<68 693 68 693 68 693> 435 68<0 63 63 63>
LayerCount: 2
Back
Fore
SplineSet
435 0 m 1xb8
 435 63 l 1
 316 63 l 1x78
 316 0 l 1
 123 0 l 1xb8
 123 63 l 1
 60 63 l 1x78
 60 693 l 1
 191 693 l 1
 191 68 l 1
 310 68 l 1xb8
 310 131 l 1
 373 131 l 1x78
 373 693 l 1
 503 693 l 1
 503 0 l 1
 435 0 l 1xb8
EndSplineSet
Substitution2: "'c2sc' Capitals to Small Capitals in Latin lookup 2 subtable" u.sc
Substitution2: "'aalt' Access All Alternates in Latin lookup 0 subtable" u.sc
EndChar

StartChar: V
Encoding: 86 86 55
Width: 688
GlyphClass: 2
Flags: MW
HStem: 0 131<316 373 316 441 248 373> 125 193<185 316 185 316 253 503 253 441> 313 193<123 253 123 253> 500 193<60 123 60 191 566 628 566 566>
VStem: 123 68<313 693 500 693> 185 68<125 506 313 506> 248 68<0 318 125 318> 373 68<0 318> 435 68<125 506> 498 68<313 693>
LayerCount: 2
Back
Fore
SplineSet
628 500 m 1x9480
 566 500 l 1x9440
 566 313 l 1xa440
 503 313 l 1xa480
 503 125 l 1x5480
 441 125 l 1x55
 441 0 l 1
 248 0 l 1x93
 248 125 l 1x5280
 185 125 l 1x5480
 185 313 l 1xa480
 123 313 l 1xa880
 123 500 l 1
 60 500 l 1
 60 693 l 1
 191 693 l 1x9880
 191 506 l 1xa880
 253 506 l 1xa480
 253 318 l 1x5480
 316 318 l 1x5280
 316 131 l 1
 373 131 l 1x93
 373 318 l 1x55
 435 318 l 1x5480
 435 506 l 1xa480
 498 506 l 1xa440
 498 693 l 1x9440
 628 693 l 1
 628 500 l 1x9480
EndSplineSet
Substitution2: "'c2sc' Capitals to Small Capitals in Latin lookup 2 subtable" v.sc
Substitution2: "'aalt' Access All Alternates in Latin lookup 0 subtable" v.sc
EndChar

StartChar: W
Encoding: 87 87 56
Width: 876
GlyphClass: 2
Flags: MW
HStem: 0 131<253 310 253 316 185 310 566 623> 63 68<253 378 253 316> 125 68 673 20G<60 191 191 191 685 816 816 816>
VStem: 60 131<193 693 193 693 193 693> 185 131<0 63 0 63> 310 68<63 193> 373 130<193 506 193 506> 498 68<63 193 125 193> 560 131<0 63 0 63> 685 131<193 693>
LayerCount: 2
Back
Fore
SplineSet
816 125 m 1x3aa0
 753 125 l 1x3aa0
 753 63 l 1x5aa0
 691 63 l 1x5a40
 691 0 l 1
 560 0 l 1x9a40
 560 63 l 1x5a40
 498 63 l 1x5aa0
 498 125 l 1
 378 125 l 1x3aa0
 378 63 l 1x5aa0
 316 63 l 1x54a0
 316 0 l 1
 185 0 l 1x94a0
 185 63 l 1x54a0
 123 63 l 1x5aa0
 123 125 l 1
 60 125 l 1
 60 693 l 1
 191 693 l 1
 191 193 l 1x3aa0
 253 193 l 1x34a0
 253 131 l 1x54a0
 310 131 l 1x5aa0
 310 193 l 1x3aa0
 373 193 l 1
 373 506 l 1
 503 506 l 1
 503 193 l 1x3920
 566 193 l 1x3aa0
 566 131 l 1x5aa0
 623 131 l 1x5a40
 623 193 l 1x3a40
 685 193 l 1
 685 693 l 1
 816 693 l 1
 816 125 l 1x3aa0
EndSplineSet
Substitution2: "'c2sc' Capitals to Small Capitals in Latin lookup 2 subtable" w.sc
Substitution2: "'aalt' Access All Alternates in Latin lookup 0 subtable" w.sc
EndChar

StartChar: X
Encoding: 88 88 57
Width: 626
GlyphClass: 2
Flags: MW
HStem: 0 131<60 123 60 191 60 123 503 566> 125 131<123 253 123 191> 250 68<185 373 185 253> 375 68<185 373 253 378 253 441> 438 130<123 253 123 253> 563 130<60 123 60 191 503 503 503 566>
VStem: 123 68<0 256> 185 68<125 318> 248 130<318 375 318 375> 373 68<125 318 250 318> 435 68<0 256 125 256>
LayerCount: 2
Back
Fore
SplineSet
566 0 m 1xb620
 435 0 l 1xb620
 435 125 l 1x5620
 373 125 l 1x5640
 373 250 l 1
 253 250 l 1xb540
 253 125 l 1x5520
 191 125 l 1x5620
 191 0 l 1
 60 0 l 1
 60 131 l 1
 123 131 l 1xb620
 123 256 l 1x5620
 185 256 l 1x5520
 185 318 l 1xb520
 248 318 l 1
 248 375 l 1xb6a0
 185 375 l 1xb520
 185 438 l 1xa920
 123 438 l 1xaa20
 123 563 l 1
 60 563 l 1
 60 693 l 1
 191 693 l 1xb620
 191 568 l 1xaa20
 253 568 l 1xa920
 253 443 l 1
 373 443 l 1xb540
 373 568 l 1xaa40
 435 568 l 1xaa20
 435 693 l 1
 566 693 l 1
 566 563 l 1
 503 563 l 1xb620
 503 438 l 1xaa20
 441 438 l 1xaa40
 441 375 l 1xb640
 378 375 l 1
 378 318 l 1xb6a0
 441 318 l 1xb640
 441 256 l 1x5640
 503 256 l 1x5620
 503 131 l 1
 566 131 l 1
 566 0 l 1xb620
EndSplineSet
Substitution2: "'c2sc' Capitals to Small Capitals in Latin lookup 2 subtable" x.sc
Substitution2: "'aalt' Access All Alternates in Latin lookup 0 subtable" x.sc
EndChar

StartChar: Y
Encoding: 89 89 58
Width: 626
GlyphClass: 2
Flags: MW
HStem: 0 21G<248 378 248 248> 313 68<185 373 253 441 253 378> 375 131<123 253 123 253> 500 193<60 123 60 191 503 566 503 503>
VStem: 123 68<375 693 500 693> 185 68<313 506 375 506> 248 130<0 313 0 313> 373 68<313 506> 435 68<375 693>
LayerCount: 2
Back
Fore
SplineSet
503 500 m 1xda80
 503 375 l 1xaa80
 441 375 l 1xa9
 441 313 l 1xd9
 378 313 l 1
 378 0 l 1
 248 0 l 1
 248 313 l 1xda80
 185 313 l 1xd480
 185 375 l 1xa480
 123 375 l 1xaa80
 123 500 l 1
 60 500 l 1
 60 693 l 1
 191 693 l 1xda80
 191 506 l 1xaa80
 253 506 l 1xa480
 253 381 l 1
 373 381 l 1xd5
 373 506 l 1xa9
 435 506 l 1xaa80
 435 693 l 1
 566 693 l 1
 566 500 l 1
 503 500 l 1xda80
EndSplineSet
Substitution2: "'c2sc' Capitals to Small Capitals in Latin lookup 2 subtable" y.sc
Substitution2: "'aalt' Access All Alternates in Latin lookup 0 subtable" y.sc
EndChar

StartChar: Z
Encoding: 90 90 59
Width: 501
GlyphClass: 2
Flags: MW
HStem: 0 68<191 441 191 441> 0 193<60 123 60 123 60 441> 188 130<123 253 123 191> 313 68<185 316 185 253> 375 131<248 378 248 316> 500 193<378 441 378 378> 625 68<60 310 60 441>
VStem: 123 68<68 318> 185 68<188 381> 248 68<313 506> 310 68<375 625>
LayerCount: 2
Back
Fore
SplineSet
60 0 m 1x9320
 60 193 l 1
 123 193 l 1x5320
 123 318 l 1xa320
 185 318 l 1xa2a0
 185 381 l 1x92a0
 248 381 l 1x9340
 248 506 l 1x8b40
 310 506 l 1
 310 625 l 1
 60 625 l 1
 60 693 l 1
 441 693 l 1x8b20
 441 500 l 1
 378 500 l 1x9520
 378 375 l 1x8b20
 316 375 l 1x8b40
 316 313 l 1x9340
 253 313 l 1x92a0
 253 188 l 1xa2a0
 191 188 l 1xa320
 191 68 l 1
 441 68 l 1
 441 0 l 1
 60 0 l 1x9320
EndSplineSet
Substitution2: "'c2sc' Capitals to Small Capitals in Latin lookup 2 subtable" z.sc
Substitution2: "'aalt' Access All Alternates in Latin lookup 0 subtable" z.sc
EndChar

StartChar: bracketleft
Encoding: 91 91 60
Width: 376
GlyphClass: 2
Flags: MW
HStem: -62 68<191 316 191 316> 0 21G<60 123 60 60> 673 20G<60 123 123 123> 688 68<191 316 191 191>
VStem: 60 131<6 688 6 693 6 693>
LayerCount: 2
Back
Fore
SplineSet
123 -62 m 1x98
 123 0 l 1
 60 0 l 1
 60 693 l 1
 123 693 l 1x68
 123 756 l 1
 316 756 l 1
 316 688 l 1
 191 688 l 1
 191 6 l 1
 316 6 l 1
 316 -62 l 1
 123 -62 l 1x98
EndSplineSet
EndChar

StartChar: backslash
Encoding: 92 92 61
Width: 563
GlyphClass: 2
Flags: MW
HStem: -62 130<373 503 441 503 441 503> 63 130<310 441 310 441> 188 130<248 378 248 378> 313 130<185 316 185 316> 438 130<123 253 123 253> 563 130<60 123 60 191>
VStem: 123 68<438 693 563 693> 185 68<313 568 438 568> 248 68<188 443 313 443> 310 68<63 318 188 318> 373 68<-62 193 63 193>
LayerCount: 2
Back
Fore
SplineSet
373 -62 m 1x96a0
 373 63 l 1x56a0
 310 63 l 1x5640
 310 188 l 1xa640
 248 188 l 1xa6a0
 248 313 l 1x96a0
 185 313 l 1x9520
 185 438 l 1x8920
 123 438 l 1x8aa0
 123 563 l 1
 60 563 l 1
 60 693 l 1
 191 693 l 1x96a0
 191 568 l 1x8aa0
 253 568 l 1x8920
 253 443 l 1x9520
 316 443 l 1x96a0
 316 318 l 1xa6a0
 378 318 l 1xa640
 378 193 l 1x5640
 441 193 l 1x56a0
 441 68 l 1
 503 68 l 1
 503 -62 l 1
 373 -62 l 1x96a0
EndSplineSet
EndChar

StartChar: bracketright
Encoding: 93 93 62
Width: 376
GlyphClass: 2
Flags: MW
HStem: -62 68<60 185 60 253 60 185> 0 21G<253 253 253 316> 673 20G<253 316 316 316> 688 68<60 185 60 253>
VStem: 185 131<6 688 688 688>
LayerCount: 2
Back
Fore
SplineSet
253 0 m 1x68
 253 -62 l 1
 60 -62 l 1
 60 6 l 1
 185 6 l 1
 185 688 l 1
 60 688 l 1
 60 756 l 1
 253 756 l 1x98
 253 693 l 1
 316 693 l 1
 316 0 l 1
 253 0 l 1x68
EndSplineSet
EndChar

StartChar: asciicircum
Encoding: 94 94 63
Width: 688
GlyphClass: 2
Flags: MW
HStem: 0 131<60 123 60 128 60 123 566 628> 125 131<128 185 123 191 128 128 503 560> 250 131<191 248 185 253 191 191 441 498> 375 131<253 310 248 316 253 253 378 435 248 373> 500 131<316 373 316 316>
VStem: 60 68<0 125 0 131 0 131> 123 68<131 250 125 256 125 256> 185 68<256 375 250 381 250 381> 248 68<381 500 375 506 375 506> 310 68<506 631 506 631> 373 68<381 500 500 500> 435 68<256 375 375 375> 498 68<131 250 250 250> 560 68<0 125 125 125>
LayerCount: 2
Back
Fore
SplineSet
560 0 m 1x9554
 560 125 l 1x5554
 498 125 l 1x5548
 498 250 l 1xa548
 435 250 l 1xa554
 435 375 l 1x9554
 373 375 l 1x9524
 373 500 l 1
 316 500 l 1x8ca4
 316 375 l 1x9494
 253 375 l 1x9554
 253 250 l 1xa554
 191 250 l 1xa254
 191 125 l 1x5254
 128 125 l 1x5554
 128 0 l 1
 60 0 l 1
 60 131 l 1x9554
 123 131 l 1x9254
 123 256 l 1x5254
 185 256 l 1x5554
 185 381 l 1xa554
 248 381 l 1xa494
 248 506 l 1x9494
 310 506 l 1x9554
 310 631 l 1
 378 631 l 1x8d54
 378 506 l 1x9554
 441 506 l 1x9524
 441 381 l 1xa524
 503 381 l 1xa554
 503 256 l 1x5554
 566 256 l 1x5548
 566 131 l 1x9548
 628 131 l 1
 628 0 l 1
 560 0 l 1x9554
EndSplineSet
EndChar

StartChar: underscore
Encoding: 95 95 64
Width: 1000
GlyphClass: 2
Flags: MW
HStem: -187 68<0 1000 0 1000>
VStem: 0 1000<-187 -119 -187 -119>
LayerCount: 2
Back
Fore
SplineSet
0 -187 m 1
 0 -119 l 1
 1000 -119 l 1
 1000 -187 l 1
 0 -187 l 1
EndSplineSet
EndChar

StartChar: grave
Encoding: 96 96 65
Width: 251
GlyphClass: 2
Flags: MW
HStem: 625 68<123 191 128 191 128 191> 688 68<60 123 60 128>
VStem: 60 68<693 756 693 756 693 756> 123 68<625 688 688 688>
LayerCount: 2
Back
Fore
SplineSet
123 625 m 1x90
 123 688 l 1x50
 60 688 l 1
 60 756 l 1
 128 756 l 1x60
 128 693 l 1xa0
 191 693 l 1
 191 625 l 1
 123 625 l 1x90
EndSplineSet
EndChar

StartChar: a
Encoding: 97 97 66
Width: 501
GlyphClass: 2
Flags: MW
HStem: 0 68<191 310 191 316 191 441 191 373> 63 193<60 123 60 123> 250 68<191 310 191 191> 375 131<60 123 60 191 60 123> 500 68<191 310 191 191>
VStem: 123 68<0 250 63 250 68 318> 310 131<68 250 250 250 318 500 500 500>
LayerCount: 2
Back
Fore
SplineSet
373 0 m 1xae
 373 63 l 1
 316 63 l 1
 316 0 l 1
 123 0 l 1xae
 123 63 l 1
 60 63 l 1
 60 256 l 1
 123 256 l 1x4e
 123 318 l 1
 310 318 l 1
 310 500 l 1
 191 500 l 1xae
 191 375 l 1
 60 375 l 1
 60 506 l 1
 123 506 l 1xb6
 123 568 l 1
 378 568 l 1xae
 378 506 l 1
 441 506 l 1xb6
 441 0 l 1
 373 0 l 1xae
310 250 m 1
 191 250 l 1
 191 68 l 1
 310 68 l 1
 310 250 l 1
EndSplineSet
Substitution2: "'smcp' Lowercase to Small Capitals in Latin lookup 1 subtable" a.sc
Substitution2: "'aalt' Access All Alternates in Latin lookup 0 subtable" a.sc
EndChar

StartChar: b
Encoding: 98 98 67
Width: 501
GlyphClass: 2
Flags: MW
HStem: 0 68<60 310 191 310 191 378 185 310> 500 68<191 310 191 378>
VStem: 60 131<68 500 568 756> 310 131<68 500 500 500>
LayerCount: 2
Back
Fore
SplineSet
378 63 m 1
 378 0 l 1
 185 0 l 1
 185 63 l 1
 128 63 l 1
 128 0 l 1
 60 0 l 1
 60 756 l 1
 191 756 l 1
 191 568 l 1
 378 568 l 1
 378 506 l 1
 441 506 l 1
 441 63 l 1
 378 63 l 1
310 500 m 1
 191 500 l 1
 191 68 l 1
 310 68 l 1
 310 500 l 1
EndSplineSet
Substitution2: "'smcp' Lowercase to Small Capitals in Latin lookup 1 subtable" b.sc
Substitution2: "'aalt' Access All Alternates in Latin lookup 0 subtable" b.sc
EndChar

StartChar: c
Encoding: 99 99 68
Width: 501
GlyphClass: 2
Flags: MW
HStem: 0 68<191 310 191 378> 63 130<378 441 378 378> 375 131<378 441> 500 68<191 310 191 191>
VStem: 60 131<68 500 68 506 68 506> 310 131<68 193 63 193 375 500 500 500>
LayerCount: 2
Back
Fore
SplineSet
378 63 m 1x5c
 378 0 l 1
 123 0 l 1x9c
 123 63 l 1
 60 63 l 1
 60 506 l 1
 123 506 l 1x6c
 123 568 l 1
 378 568 l 1x9c
 378 506 l 1
 441 506 l 1
 441 375 l 1
 310 375 l 1xac
 310 500 l 1
 191 500 l 1
 191 68 l 1
 310 68 l 1x9c
 310 193 l 1
 441 193 l 1
 441 63 l 1
 378 63 l 1x5c
EndSplineSet
Substitution2: "'smcp' Lowercase to Small Capitals in Latin lookup 1 subtable" c.sc
Substitution2: "'aalt' Access All Alternates in Latin lookup 0 subtable" c.sc
EndChar

StartChar: d
Encoding: 100 100 69
Width: 501
GlyphClass: 2
Flags: MW
HStem: 0 68<191 248 191 253> 63 68<253 310 248 373 253 253> 438 68<253 310> 500 68<191 248 191 191>
VStem: 60 131<68 500 68 506 68 506> 310 131<131 438 438 438 506 756 0 756>
LayerCount: 2
Back
Fore
SplineSet
373 0 m 1x9c
 373 63 l 1
 253 63 l 1x6c
 253 0 l 1
 123 0 l 1x9c
 123 63 l 1
 60 63 l 1
 60 506 l 1
 123 506 l 1x6c
 123 568 l 1
 253 568 l 1x9c
 253 506 l 1
 310 506 l 1xac
 310 756 l 1
 441 756 l 1
 441 0 l 1
 373 0 l 1x9c
310 438 m 1
 248 438 l 1xac
 248 500 l 1
 191 500 l 1
 191 68 l 1
 248 68 l 1x9c
 248 131 l 1
 310 131 l 1
 310 438 l 1
EndSplineSet
Substitution2: "'smcp' Lowercase to Small Capitals in Latin lookup 1 subtable" d.sc
Substitution2: "'aalt' Access All Alternates in Latin lookup 0 subtable" d.sc
EndChar

StartChar: e
Encoding: 101 101 70
Width: 501
GlyphClass: 2
Flags: MW
HStem: 0 68<191 310 191 378> 63 130<378 441 378 378> 250 68<191 310 191 378 191 310> 313 193<378 441> 500 68<191 310 191 191>
VStem: 60 131<68 250 68 318 318 500> 310 68<0 193>
LayerCount: 2
Back
Fore
SplineSet
378 63 m 1x6e
 378 0 l 1
 123 0 l 1xae
 123 63 l 1
 60 63 l 1
 60 506 l 1
 123 506 l 1
 123 568 l 1
 378 568 l 1x6e
 378 506 l 1
 441 506 l 1
 441 313 l 1
 378 313 l 1x96
 378 250 l 1
 191 250 l 1
 191 68 l 1
 310 68 l 1xae
 310 193 l 1
 441 193 l 1
 441 63 l 1
 378 63 l 1x6e
310 500 m 1
 191 500 l 1
 191 318 l 1
 310 318 l 1
 310 500 l 1
EndSplineSet
Substitution2: "'smcp' Lowercase to Small Capitals in Latin lookup 1 subtable" e.sc
Substitution2: "'aalt' Access All Alternates in Latin lookup 0 subtable" e.sc
EndChar

StartChar: f
Encoding: 102 102 71
Width: 316
GlyphClass: 2
Flags: MW
HStem: 0 21G<60 191 60 60> 500 68<-2 60 -2 60 191 316> 673 20G<60 123 123 123> 688 68<191 316 191 191>
VStem: 60 131<0 500 0 500 568 688>
LayerCount: 2
Back
Fore
SplineSet
191 500 m 1xd8
 191 0 l 1
 60 0 l 1
 60 500 l 1
 -2 500 l 1
 -2 568 l 1
 60 568 l 1
 60 693 l 1
 123 693 l 1xe8
 123 756 l 1
 316 756 l 1
 316 688 l 1
 191 688 l 1
 191 568 l 1
 316 568 l 1
 316 500 l 1
 191 500 l 1xd8
EndSplineSet
Substitution2: "'smcp' Lowercase to Small Capitals in Latin lookup 1 subtable" f.sc
Substitution2: "'aalt' Access All Alternates in Latin lookup 0 subtable" f.sc
EndChar

StartChar: g
Encoding: 103 103 72
Width: 501
GlyphClass: 2
Flags: MW
HStem: -187 68<191 310 191 316> -125 68<60 123 60 191> 0 68<191 310 191 310> 500 68<191 310 191 191>
VStem: 60 131<-119 -57 -119 -57 -119 -57 -119 68 68 500> 310 131<-119 0 0 0 68 500 500 500>
LayerCount: 2
Back
Fore
SplineSet
316 -125 m 1x7c
 316 -187 l 1
 123 -187 l 1xbc
 123 -125 l 1
 60 -125 l 1
 60 -57 l 1
 191 -57 l 1x7c
 191 -119 l 1
 310 -119 l 1xbc
 310 0 l 1
 123 0 l 1
 123 63 l 1
 60 63 l 1
 60 506 l 1
 123 506 l 1
 123 568 l 1
 378 568 l 1
 378 506 l 1
 441 506 l 1
 441 -125 l 1
 316 -125 l 1x7c
310 500 m 1
 191 500 l 1
 191 68 l 1
 310 68 l 1
 310 500 l 1
EndSplineSet
Substitution2: "'smcp' Lowercase to Small Capitals in Latin lookup 1 subtable" g.sc
Substitution2: "'aalt' Access All Alternates in Latin lookup 0 subtable" g.sc
EndChar

StartChar: h
Encoding: 104 104 73
Width: 501
GlyphClass: 2
Flags: MW
HStem: 0 21G<60 191 60 60 310 441 310 310> 438 68<191 248 191 253 191 248> 500 68<253 310 253 253>
VStem: 60 131<0 438 0 506 506 756> 310 131<0 500 500 500>
LayerCount: 2
Back
Fore
SplineSet
310 0 m 1xb8
 310 500 l 1
 253 500 l 1xb8
 253 438 l 1
 191 438 l 1
 191 0 l 1
 60 0 l 1
 60 756 l 1
 191 756 l 1
 191 506 l 1
 248 506 l 1xd8
 248 568 l 1
 378 568 l 1xb8
 378 506 l 1
 441 506 l 1xd8
 441 0 l 1
 310 0 l 1xb8
EndSplineSet
Substitution2: "'smcp' Lowercase to Small Capitals in Latin lookup 1 subtable" h.sc
Substitution2: "'aalt' Access All Alternates in Latin lookup 0 subtable" h.sc
EndChar

StartChar: i
Encoding: 105 105 74
Width: 251
GlyphClass: 2
Flags: MW
HStem: 0 21G<60 60 60 191> 548 20G<60 191 191 191> 625 131<60 191 60 191>
VStem: 60 131<0 568 0 568 625 756>
LayerCount: 2
Back
Fore
SplineSet
60 625 m 1
 60 756 l 1
 191 756 l 1
 191 625 l 1
 60 625 l 1
60 0 m 1
 60 568 l 1
 191 568 l 1
 191 0 l 1
 60 0 l 1
EndSplineSet
Substitution2: "'smcp' Lowercase to Small Capitals in Latin lookup 1 subtable" i.sc
Substitution2: "'aalt' Access All Alternates in Latin lookup 0 subtable" i.sc
EndChar

StartChar: j
Encoding: 106 106 75
Width: 251
GlyphClass: 2
Flags: MW
HStem: -187 68<3 60 3 128 -2 60> -125 68<-65 -2 -65 3> 548 20G<60 191 191 191> 625 131<60 191 60 191>
VStem: -65 68<-119 -57 -119 -57 -119 -57> 60 131<-119 568 -125 568 625 756>
LayerCount: 2
Back
Fore
SplineSet
60 625 m 1xbc
 60 756 l 1
 191 756 l 1
 191 625 l 1
 60 625 l 1xbc
128 -125 m 1x7c
 128 -187 l 1
 -2 -187 l 1xbc
 -2 -125 l 1
 -65 -125 l 1
 -65 -57 l 1
 3 -57 l 1x7c
 3 -119 l 1
 60 -119 l 1xbc
 60 568 l 1
 191 568 l 1
 191 -125 l 1
 128 -125 l 1x7c
EndSplineSet
Substitution2: "'smcp' Lowercase to Small Capitals in Latin lookup 1 subtable" j.sc
Substitution2: "'aalt' Access All Alternates in Latin lookup 0 subtable" j.sc
EndChar

StartChar: k
Encoding: 107 107 76
Width: 503
GlyphClass: 2
Flags: MW
HStem: 0 68<441 503 441 503> 250 68<248 378> 313 68<191 248 191 248> 375 68<248 378 248 316> 438 130<378 441 378 378>
VStem: 60 131<0 313 0 381 381 756> 248 68<250 375 313 375 318 443> 310 131<68 250 250 250 443 568>
LayerCount: 2
Back
Fore
SplineSet
310 0 m 1xad
 310 250 l 1xcd
 248 250 l 1xce
 248 313 l 1
 191 313 l 1
 191 0 l 1
 60 0 l 1
 60 756 l 1
 191 756 l 1
 191 381 l 1
 248 381 l 1xae
 248 443 l 1x96
 310 443 l 1x95
 310 568 l 1
 441 568 l 1
 441 438 l 1
 378 438 l 1xad
 378 375 l 1x95
 316 375 l 1
 316 318 l 1xd6
 378 318 l 1
 378 256 l 1
 441 256 l 1xcd
 441 68 l 1
 503 68 l 1
 503 0 l 1
 310 0 l 1xad
EndSplineSet
Substitution2: "'smcp' Lowercase to Small Capitals in Latin lookup 1 subtable" k.sc
Substitution2: "'aalt' Access All Alternates in Latin lookup 0 subtable" k.sc
EndChar

StartChar: l
Encoding: 108 108 77
Width: 283
GlyphClass: 2
Flags: MW
HStem: 0 68<191 253 191 253>
VStem: 60 131<68 756 68 756 68 756>
LayerCount: 2
Back
Fore
SplineSet
123 0 m 1
 123 63 l 1
 60 63 l 1
 60 756 l 1
 191 756 l 1
 191 68 l 1
 253 68 l 1
 253 0 l 1
 123 0 l 1
EndSplineSet
Substitution2: "'smcp' Lowercase to Small Capitals in Latin lookup 1 subtable" l.sc
Substitution2: "'aalt' Access All Alternates in Latin lookup 0 subtable" l.sc
EndChar

StartChar: m
Encoding: 109 109 78
Width: 751
GlyphClass: 2
Flags: MW
HStem: 0 21G<60 191 60 60 310 441 310 310 560 691 560 560> 438 68<191 248 128 253 191 191 441 498 441 441> 500 68<253 310 253 253 503 560 503 503>
VStem: 60 131<0 438 0 568 0 568> 310 131<0 438 0 500 0 500> 560 131<0 500 500 500>
CounterMasks: 1 1c
LayerCount: 2
Back
Fore
SplineSet
560 0 m 1xbc
 560 500 l 1
 503 500 l 1xbc
 503 438 l 1
 441 438 l 1xdc
 441 0 l 1
 310 0 l 1
 310 500 l 1
 253 500 l 1xbc
 253 438 l 1
 191 438 l 1xdc
 191 0 l 1
 60 0 l 1
 60 568 l 1
 128 568 l 1xbc
 128 506 l 1
 248 506 l 1xdc
 248 568 l 1
 378 568 l 1xbc
 378 506 l 1
 498 506 l 1xdc
 498 568 l 1
 628 568 l 1xbc
 628 506 l 1
 691 506 l 1xdc
 691 0 l 1
 560 0 l 1xbc
EndSplineSet
Substitution2: "'smcp' Lowercase to Small Capitals in Latin lookup 1 subtable" m.sc
Substitution2: "'aalt' Access All Alternates in Latin lookup 0 subtable" m.sc
EndChar

StartChar: n
Encoding: 110 110 79
Width: 501
GlyphClass: 2
Flags: MW
HStem: 0 21G<60 191 60 60 310 441 310 310> 438 68<191 248 128 253 191 191> 500 68<253 310 253 253>
VStem: 60 131<0 438 0 568 0 568> 310 131<0 500 500 500>
LayerCount: 2
Back
Fore
SplineSet
310 0 m 1xb8
 310 500 l 1
 253 500 l 1xb8
 253 438 l 1
 191 438 l 1xd8
 191 0 l 1
 60 0 l 1
 60 568 l 1
 128 568 l 1xb8
 128 506 l 1
 248 506 l 1xd8
 248 568 l 1
 378 568 l 1xb8
 378 506 l 1
 441 506 l 1xd8
 441 0 l 1
 310 0 l 1xb8
EndSplineSet
Substitution2: "'smcp' Lowercase to Small Capitals in Latin lookup 1 subtable" n.sc
Substitution2: "'aalt' Access All Alternates in Latin lookup 0 subtable" n.sc
EndChar

StartChar: o
Encoding: 111 111 80
Width: 501
GlyphClass: 2
Flags: MW
HStem: 0 68<191 310 191 378> 500 68<191 310 191 191>
VStem: 60 131<68 500 68 506 68 506> 310 131<68 500 500 500>
LayerCount: 2
Back
Fore
SplineSet
378 63 m 1
 378 0 l 1
 123 0 l 1
 123 63 l 1
 60 63 l 1
 60 506 l 1
 123 506 l 1
 123 568 l 1
 378 568 l 1
 378 506 l 1
 441 506 l 1
 441 63 l 1
 378 63 l 1
310 500 m 1
 191 500 l 1
 191 68 l 1
 310 68 l 1
 310 500 l 1
EndSplineSet
Substitution2: "'smcp' Lowercase to Small Capitals in Latin lookup 1 subtable" o.sc
Substitution2: "'aalt' Access All Alternates in Latin lookup 0 subtable" o.sc
EndChar

StartChar: p
Encoding: 112 112 81
Width: 501
GlyphClass: 2
Flags: MW
HStem: -187 21G<60 191 60 60> 0 68<253 310 253 378 248 310> 63 68<191 248 191 253> 438 68<191 248 128 253 191 191> 500 68<253 310 253 253>
VStem: 60 131<-187 63 -187 131 131 438> 310 131<68 500 500 500>
LayerCount: 2
Back
Fore
SplineSet
378 63 m 1xb6
 378 0 l 1
 248 0 l 1xce
 248 63 l 1
 191 63 l 1
 191 -187 l 1
 60 -187 l 1
 60 568 l 1
 128 568 l 1xae
 128 506 l 1
 248 506 l 1xd6
 248 568 l 1
 378 568 l 1xce
 378 506 l 1
 441 506 l 1
 441 63 l 1
 378 63 l 1xb6
310 500 m 1
 253 500 l 1xce
 253 438 l 1
 191 438 l 1
 191 131 l 1
 253 131 l 1xb6
 253 68 l 1
 310 68 l 1
 310 500 l 1
EndSplineSet
Substitution2: "'smcp' Lowercase to Small Capitals in Latin lookup 1 subtable" p.sc
Substitution2: "'aalt' Access All Alternates in Latin lookup 0 subtable" p.sc
EndChar

StartChar: q
Encoding: 113 113 82
Width: 501
GlyphClass: 2
Flags: MW
HStem: -187 21G<310 310 310 441> 0 68<191 248 191 253> 63 68<253 310 253 253> 500 68<191 310 191 191>
VStem: 60 131<68 500 68 506 68 506> 310 131<-187 63 63 63 131 500 500 500>
LayerCount: 2
Back
Fore
SplineSet
310 -187 m 1xdc
 310 63 l 1
 253 63 l 1xbc
 253 0 l 1
 123 0 l 1xdc
 123 63 l 1
 60 63 l 1xbc
 60 506 l 1
 123 506 l 1
 123 568 l 1
 316 568 l 1
 316 506 l 1
 373 506 l 1
 373 568 l 1
 441 568 l 1
 441 -187 l 1
 310 -187 l 1xdc
310 500 m 1
 191 500 l 1
 191 68 l 1
 248 68 l 1xdc
 248 131 l 1
 310 131 l 1
 310 500 l 1
EndSplineSet
Substitution2: "'smcp' Lowercase to Small Capitals in Latin lookup 1 subtable" q.sc
Substitution2: "'aalt' Access All Alternates in Latin lookup 0 subtable" q.sc
EndChar

StartChar: r
Encoding: 114 114 83
Width: 501
GlyphClass: 2
Flags: MW
HStem: 0 21G<60 191 60 60> 438 68<191 248 128 253 191 191> 500 68<253 310 253 253>
VStem: 60 131<0 438 0 568 0 568> 248 130<506 568 506 568> 310 131<375 500 500 500>
LayerCount: 2
Back
Fore
SplineSet
310 375 m 1xd4
 310 500 l 1
 253 500 l 1xb4
 253 438 l 1
 191 438 l 1xd4
 191 0 l 1
 60 0 l 1
 60 568 l 1
 128 568 l 1xb4
 128 506 l 1
 248 506 l 1xd8
 248 568 l 1xb8
 378 568 l 1xb4
 378 506 l 1
 441 506 l 1
 441 375 l 1
 310 375 l 1xd4
EndSplineSet
Substitution2: "'smcp' Lowercase to Small Capitals in Latin lookup 1 subtable" r.sc
Substitution2: "'aalt' Access All Alternates in Latin lookup 0 subtable" r.sc
EndChar

StartChar: s
Encoding: 115 115 84
Width: 501
GlyphClass: 2
Flags: MW
HStem: 0 68<191 310 191 378> 63 130<60 123 60 191> 250 68<191 310> 375 131<378 441> 500 68<191 310 191 191>
VStem: 123 68<0 193 63 193 68 313> 310 68<0 250>
LayerCount: 2
Back
Fore
SplineSet
378 63 m 1x6e
 378 0 l 1
 123 0 l 1xae
 123 63 l 1
 60 63 l 1
 60 193 l 1
 191 193 l 1x6e
 191 68 l 1
 310 68 l 1
 310 250 l 1
 123 250 l 1
 123 313 l 1
 60 313 l 1
 60 506 l 1
 123 506 l 1xb6
 123 568 l 1
 378 568 l 1xae
 378 506 l 1
 441 506 l 1
 441 375 l 1
 310 375 l 1xb6
 310 500 l 1
 191 500 l 1
 191 318 l 1
 378 318 l 1
 378 256 l 1
 441 256 l 1
 441 63 l 1
 378 63 l 1x6e
EndSplineSet
Substitution2: "'smcp' Lowercase to Small Capitals in Latin lookup 1 subtable" s.sc
Substitution2: "'aalt' Access All Alternates in Latin lookup 0 subtable" s.sc
EndChar

StartChar: t
Encoding: 116 116 85
Width: 440
GlyphClass: 2
Flags: MW
HStem: 0 68<193 250 193 318> 63 130<62 380 318 380 318 318> 500 68<0 62 0 62 193 318> 500 193<0 193 0 193 62 193 62 318>
VStem: 62 131<68 500 68 500 68 500 568 693> 250 68<0 193>
LayerCount: 2
Back
Fore
SplineSet
318 63 m 1x6c
 318 0 l 1
 125 0 l 1xac
 125 63 l 1
 62 63 l 1
 62 500 l 1
 0 500 l 1
 0 568 l 1
 62 568 l 1x6c
 62 693 l 1
 193 693 l 1x9c
 193 568 l 1
 318 568 l 1
 318 500 l 1
 193 500 l 1
 193 68 l 1
 250 68 l 1xac
 250 193 l 1
 380 193 l 1
 380 63 l 1
 318 63 l 1x6c
EndSplineSet
Substitution2: "'smcp' Lowercase to Small Capitals in Latin lookup 1 subtable" t.sc
Substitution2: "'aalt' Access All Alternates in Latin lookup 0 subtable" t.sc
EndChar

StartChar: u
Encoding: 117 117 86
Width: 501
GlyphClass: 2
Flags: MW
HStem: 0 68<191 248 191 253> 63 68<253 310 248 373 253 253> 548 20G<60 191 191 191 310 441 441 441>
VStem: 60 131<68 568 68 568 68 568> 310 131<131 568 0 568>
LayerCount: 2
Back
Fore
SplineSet
373 0 m 1xb8
 373 63 l 1
 253 63 l 1x78
 253 0 l 1
 123 0 l 1xb8
 123 63 l 1
 60 63 l 1x78
 60 568 l 1
 191 568 l 1
 191 68 l 1
 248 68 l 1xb8
 248 131 l 1
 310 131 l 1x78
 310 568 l 1
 441 568 l 1
 441 0 l 1
 373 0 l 1xb8
EndSplineSet
Substitution2: "'smcp' Lowercase to Small Capitals in Latin lookup 1 subtable" u.sc
Substitution2: "'aalt' Access All Alternates in Latin lookup 0 subtable" u.sc
EndChar

StartChar: v
Encoding: 118 118 87
Width: 563
GlyphClass: 2
Flags: MW
HStem: 0 131<253 310 253 316 248 310> 63 68<185 310 253 378 253 316> 125 193<123 253 123 253 191 441 191 378> 313 255<60 123 60 191 441 503 441 441>
VStem: 123 68<125 568 313 568> 185 68<63 318 125 318> 248 68<0 63 0 63> 310 68<63 318> 373 68<125 568>
LayerCount: 2
Back
Fore
SplineSet
503 313 m 1x5a80
 441 313 l 1x5a80
 441 125 l 1x2a80
 378 125 l 1x29
 378 63 l 1x59
 316 63 l 1x5a80
 316 0 l 1
 248 0 l 1x9a80
 248 63 l 1x5a80
 185 63 l 1x5480
 185 125 l 1x2480
 123 125 l 1x2a80
 123 313 l 1
 60 313 l 1
 60 568 l 1
 191 568 l 1x5a80
 191 318 l 1x2a80
 253 318 l 1x2480
 253 131 l 1
 310 131 l 1x55
 310 318 l 1x29
 373 318 l 1x2a80
 373 568 l 1
 503 568 l 1
 503 313 l 1x5a80
EndSplineSet
Substitution2: "'smcp' Lowercase to Small Capitals in Latin lookup 1 subtable" v.sc
Substitution2: "'aalt' Access All Alternates in Latin lookup 0 subtable" v.sc
EndChar

StartChar: w
Encoding: 119 119 88
Width: 751
GlyphClass: 2
Flags: MW
HStem: 0 131<191 248 191 253 185 248 503 560> 63 68<123 248 191 316 191 253> 125 68<248 435 248 316> 548 20G<60 191 191 191 560 691 691 691>
VStem: 60 131<131 568 131 568 131 568> 185 68<0 63 0 63> 248 68<63 193> 310 131<193 381 193 381> 435 68<63 193 125 193> 498 68<0 63 0 63> 560 131<131 568>
LayerCount: 2
Back
Fore
SplineSet
691 125 m 1x3920
 628 125 l 1x3920
 628 63 l 1x5920
 566 63 l 1x5940
 566 0 l 1
 498 0 l 1x9940
 498 63 l 1x5940
 435 63 l 1x58a0
 435 125 l 1
 316 125 l 1x3aa0
 316 63 l 1x5a20
 253 63 l 1x5520
 253 0 l 1
 185 0 l 1x9520
 185 63 l 1x5520
 123 63 l 1x5920
 123 125 l 1
 60 125 l 1x3920
 60 568 l 1
 191 568 l 1
 191 131 l 1
 248 131 l 1x5a20
 248 193 l 1x3a20
 310 193 l 1
 310 381 l 1
 441 381 l 1
 441 193 l 1x3920
 503 193 l 1x38a0
 503 131 l 1
 560 131 l 1x58a0
 560 568 l 1
 691 568 l 1
 691 125 l 1x3920
EndSplineSet
Substitution2: "'smcp' Lowercase to Small Capitals in Latin lookup 1 subtable" w.sc
Substitution2: "'aalt' Access All Alternates in Latin lookup 0 subtable" w.sc
EndChar

StartChar: x
Encoding: 120 120 89
Width: 563
GlyphClass: 2
Flags: MW
HStem: 0 131<60 123 60 191 60 123 441 503> 125 131<123 253 123 191 123 373 123 310> 250 68<253 310 253 310> 313 130<123 253 123 253 191 378 191 441> 438 130<60 123 60 191 441 441 441 503>
VStem: 123 68<0 256> 185 68<125 313 125 313> 310 68<125 313 250 313 256 443> 373 68<0 256 125 256>
LayerCount: 2
Back
Fore
SplineSet
503 0 m 1xac80
 373 0 l 1xac80
 373 125 l 1
 310 125 l 1x4c80
 310 250 l 1
 253 250 l 1xaa80
 253 125 l 1x4a80
 191 125 l 1x4c80
 191 0 l 1
 60 0 l 1
 60 131 l 1
 123 131 l 1xac80
 123 256 l 1x4c80
 185 256 l 1
 185 313 l 1x5280
 123 313 l 1x9480
 123 438 l 1
 60 438 l 1
 60 568 l 1
 191 568 l 1xac80
 191 443 l 1x9480
 253 443 l 1x9280
 253 318 l 1
 310 318 l 1xaa80
 310 443 l 1
 373 443 l 1x9480
 373 568 l 1
 503 568 l 1
 503 438 l 1
 441 438 l 1xac80
 441 313 l 1x9480
 378 313 l 1
 378 256 l 1x55
 441 256 l 1x4c80
 441 131 l 1
 503 131 l 1
 503 0 l 1xac80
EndSplineSet
Substitution2: "'smcp' Lowercase to Small Capitals in Latin lookup 1 subtable" x.sc
Substitution2: "'aalt' Access All Alternates in Latin lookup 0 subtable" x.sc
EndChar

StartChar: y
Encoding: 121 121 90
Width: 501
GlyphClass: 2
Flags: MW
HStem: -187 68<191 310 191 316> -125 68<60 123 60 191> 0 68<191 248 191 253> 63 68<253 310 253 253> 548 20G<60 191 191 191 310 441 441 441>
VStem: 60 131<-119 -57 -119 -57 -119 -57 -119 68 68 568> 310 131<-119 63 63 63 131 568 -125 568>
LayerCount: 2
Back
Fore
SplineSet
316 -125 m 1x5e
 316 -187 l 1
 123 -187 l 1xae
 123 -125 l 1
 60 -125 l 1
 60 -57 l 1
 191 -57 l 1x6e
 191 -119 l 1
 310 -119 l 1
 310 63 l 1
 253 63 l 1x9e
 253 0 l 1
 123 0 l 1xae
 123 63 l 1
 60 63 l 1x9e
 60 568 l 1
 191 568 l 1
 191 68 l 1
 248 68 l 1xae
 248 131 l 1
 310 131 l 1
 310 568 l 1
 441 568 l 1
 441 -125 l 1
 316 -125 l 1x5e
EndSplineSet
Substitution2: "'smcp' Lowercase to Small Capitals in Latin lookup 1 subtable" y.sc
Substitution2: "'aalt' Access All Alternates in Latin lookup 0 subtable" y.sc
EndChar

StartChar: z
Encoding: 122 122 91
Width: 438
GlyphClass: 2
Flags: MW
HStem: 0 68<60 378 191 378 191 378> 0 193<60 123 60 126 60 123 60 378> 188 130<123 253 123 191> 313 130<185 316 185 253> 438 130<316 378 316 316> 500 68<60 248 60 313>
VStem: 123 68<68 253> 185 68<188 378> 248 68<313 500>
LayerCount: 2
Back
Fore
SplineSet
126 0 m 1x85
 60 0 l 1
 60 65 l 1x86
 60 128 l 1
 60 193 l 1
 123 193 l 1
 123 253 l 1x46
 123 318 l 1xa6
 185 318 l 1
 185 378 l 1xa5
 185 443 l 1x95
 248 443 l 1
 248 500 l 1
 60 500 l 1
 60 568 l 1
 313 568 l 1
 378 568 l 1
 378 503 l 1x9680
 378 438 l 1
 316 438 l 1
 316 378 l 1x8880
 316 313 l 1x9480
 253 313 l 1
 253 253 l 1x95
 253 188 l 1xa5
 191 188 l 1
 191 128 l 1
 191 68 l 1xa6
 378 68 l 1
 378 0 l 1
 126 0 l 1x85
EndSplineSet
Substitution2: "'smcp' Lowercase to Small Capitals in Latin lookup 1 subtable" z.sc
Substitution2: "'aalt' Access All Alternates in Latin lookup 0 subtable" z.sc
EndChar

StartChar: braceleft
Encoding: 123 123 92
Width: 501
GlyphClass: 2
Flags: MW
HStem: -62 68<310 441 316 441 316 441> 0 21G<248 310 248 248> 63 193<185 316 185 316> 250 68<123 253> 313 68<60 123 60 123> 375 68<123 253 123 191> 438 193<185 316 185 253> 673 20G<248 310 310 310> 688 68<316 441 316 316>
VStem: 123 68<250 375 313 375 318 443> 185 68<63 318 250 318> 248 68<6 63 63 63 631 688> 310 131<-62 0 0 0 693 756>
LayerCount: 2
Back
Fore
SplineSet
310 -62 m 1x88c8
 310 0 l 1x48c8
 248 0 l 1
 248 63 l 1
 185 63 l 1x68d0
 185 250 l 1
 123 250 l 1x90d0
 123 313 l 1
 60 313 l 1
 60 381 l 1
 123 381 l 1x88d0
 123 443 l 1
 185 443 l 1x84d0
 185 631 l 1
 248 631 l 1
 248 693 l 1x8b50
 310 693 l 1x8948
 310 756 l 1
 441 756 l 1
 441 688 l 1x88c8
 316 688 l 1
 316 438 l 1x8ad0
 253 438 l 1x8aa0
 253 375 l 1x84a0
 191 375 l 1
 191 318 l 1x94d0
 253 318 l 1x90a0
 253 256 l 1xa8a0
 316 256 l 1
 316 6 l 1xa8d0
 441 6 l 1
 441 -62 l 1
 310 -62 l 1x88c8
EndSplineSet
EndChar

StartChar: bar
Encoding: 124 124 93
Width: 188
GlyphClass: 2
Flags: MW
HStem: -187 21G<60 60 60 128>
VStem: 60 68<-187 756 -187 756>
LayerCount: 2
Back
Fore
SplineSet
60 -187 m 1
 60 756 l 1
 128 756 l 1
 128 -187 l 1
 60 -187 l 1
EndSplineSet
EndChar

StartChar: braceright
Encoding: 125 125 94
Width: 501
GlyphClass: 2
Flags: MW
HStem: -62 68<60 185 60 191 60 185> 0 21G<191 253 191 191> 63 193<185 316 185 253> 250 68<248 378 248 316> 313 68<378 441 378 441> 375 68<248 378> 438 193<185 316 185 316> 673 20G<191 253 253 253> 688 68<60 185 60 191>
VStem: 60 131<-62 0 -62 6 -62 6 693 756> 185 68<6 63 0 256 631 688 688 688> 248 68<63 318> 310 68<250 375 250 375>
LayerCount: 2
Back
Fore
SplineSet
378 313 m 1x88a8
 378 250 l 1
 316 250 l 1x90a8
 316 63 l 1
 253 63 l 1
 253 0 l 1x68a8
 191 0 l 1x48c8
 191 -62 l 1
 60 -62 l 1
 60 6 l 1x88c8
 185 6 l 1
 185 256 l 1xa8a8
 248 256 l 1xa890
 248 318 l 1x9090
 310 318 l 1
 310 375 l 1x94a8
 248 375 l 1x8490
 248 438 l 1x8a90
 185 438 l 1
 185 688 l 1x8aa8
 60 688 l 1
 60 756 l 1
 191 756 l 1x88c8
 191 693 l 1x8948
 253 693 l 1
 253 631 l 1
 316 631 l 1x8b28
 316 443 l 1
 378 443 l 1x84a8
 378 381 l 1
 441 381 l 1
 441 313 l 1
 378 313 l 1x88a8
EndSplineSet
EndChar

StartChar: asciitilde
Encoding: 126 126 95
Width: 751
GlyphClass: 2
Flags: MW
HStem: 188 68<441 560 441 566 435 560> 250 68<60 123 60 128 60 123 378 435 566 623 566 566> 313 68<128 185 123 191 128 128 316 373 628 691 628 628> 375 68<191 310 191 191>
VStem: 60 68<250 313 250 318 250 318> 123 68<318 375 313 381 313 381> 185 131<381 443 381 443> 310 68<318 375 375 375> 373 68<256 313 313 313> 435 131<188 250 188 250> 560 68<256 313 250 318 250 318> 623 68<318 381 313 381>
LayerCount: 2
Back
Fore
SplineSet
628 313 m 1xa920
 628 250 l 1x5920
 566 250 l 1x5950
 566 188 l 1
 435 188 l 1x9950
 435 250 l 1x5950
 373 250 l 1x5890
 373 313 l 1xa890
 310 313 l 1xa950
 310 375 l 1
 191 375 l 1x9550
 191 313 l 1xa550
 128 313 l 1xa950
 128 250 l 1
 60 250 l 1
 60 318 l 1x5950
 123 318 l 1x5550
 123 381 l 1xa550
 185 381 l 1xaa50
 185 443 l 1
 316 443 l 1x9a50
 316 381 l 1xaa50
 378 381 l 1xa950
 378 318 l 1x5950
 441 318 l 1x5890
 441 256 l 1
 560 256 l 1x98a0
 560 318 l 1x5920
 623 318 l 1x5950
 623 381 l 1
 691 381 l 1
 691 313 l 1xa950
 628 313 l 1xa920
EndSplineSet
EndChar

StartChar: exclamdown
Encoding: 161 161 97
Width: 251
GlyphClass: 2
Flags: MW
HStem: 438 130<60 191 60 191>
VStem: 60 131<-125 381 -125 381 438 568>
LayerCount: 2
Back
Fore
SplineSet
60 438 m 1
 60 568 l 1
 191 568 l 1
 191 438 l 1
 60 438 l 1
60 -125 m 1
 60 381 l 1
 191 381 l 1
 191 -125 l 1
 60 -125 l 1
EndSplineSet
EndChar

StartChar: cent
Encoding: 162 162 98
Width: 501
GlyphClass: 2
Flags: MW
HStem: 63 68<191 248 191 248 316 373> 125 68<378 441 378 378> 438 68<378 441> 500 68<191 248 191 191 316 373> 673 20G<248 316 316 316>
VStem: 60 131<131 500 131 506 131 506> 248 68<-62 63 -62 63 131 500 568 693> 373 68<131 193 125 193 438 500 500 500>
LayerCount: 2
Back
Fore
SplineSet
378 125 m 1x5f
 378 63 l 1
 316 63 l 1
 316 -62 l 1
 248 -62 l 1
 248 63 l 1
 123 63 l 1x9f
 123 125 l 1
 60 125 l 1
 60 506 l 1
 123 506 l 1x6f
 123 568 l 1
 248 568 l 1
 248 693 l 1
 316 693 l 1
 316 568 l 1
 378 568 l 1x9f
 378 506 l 1
 441 506 l 1
 441 438 l 1
 373 438 l 1xaf
 373 500 l 1
 316 500 l 1
 316 131 l 1
 373 131 l 1x9f
 373 193 l 1
 441 193 l 1
 441 125 l 1
 378 125 l 1x5f
248 500 m 1
 191 500 l 1
 191 131 l 1
 248 131 l 1
 248 500 l 1
EndSplineSet
EndChar

StartChar: sterling
Encoding: 163 163 99
Width: 563
GlyphClass: 2
Flags: MW
HStem: 0 68<60 123 253 435 60 123> 63 68<441 441 441 503> 313 68<60 185 60 185 316 441> 438 68<441 503> 500 68<316 435 316 316>
VStem: 185 131<131 313 125 313 381 500> 435 68<68 131 63 131 438 500 500 500>
LayerCount: 2
Back
Fore
SplineSet
441 63 m 1x6e
 441 0 l 1
 60 0 l 1
 60 68 l 1
 123 68 l 1xae
 123 131 l 1
 185 131 l 1
 185 313 l 1
 60 313 l 1
 60 381 l 1
 185 381 l 1
 185 506 l 1
 248 506 l 1x76
 248 568 l 1
 441 568 l 1xae
 441 506 l 1
 503 506 l 1
 503 438 l 1
 435 438 l 1xb6
 435 500 l 1
 316 500 l 1
 316 381 l 1
 441 381 l 1
 441 313 l 1
 316 313 l 1
 316 125 l 1
 253 125 l 1
 253 68 l 1
 435 68 l 1xae
 435 131 l 1
 503 131 l 1
 503 63 l 1
 441 63 l 1x6e
EndSplineSet
EndChar

StartChar: currency
Encoding: 164 164 100
Width: 563
GlyphClass: 2
Flags: MW
HStem: 0 68<253 435 253 441 248 435> 63 68<441 503 441 441> 188 68<60 123 60 123 253 378> 313 68<60 123 60 123 253 378> 438 68<441 503> 500 68<253 435 253 253>
VStem: 185 68<68 125 125 125 443 500> 248 193<0 63 0 63 506 568> 435 68<68 131 63 131 438 500 500 500>
LayerCount: 2
Back
Fore
SplineSet
441 63 m 1x75
 441 0 l 1
 248 0 l 1xb5
 248 63 l 1x75
 185 63 l 1
 185 125 l 1
 123 125 l 1
 123 188 l 1
 60 188 l 1
 60 256 l 1
 123 256 l 1
 123 313 l 1
 60 313 l 1
 60 381 l 1
 123 381 l 1
 123 443 l 1
 185 443 l 1
 185 506 l 1x7a80
 248 506 l 1xb9
 248 568 l 1
 441 568 l 1xb5
 441 506 l 1xb9
 503 506 l 1
 503 438 l 1
 435 438 l 1xba80
 435 500 l 1
 253 500 l 1
 253 381 l 1xb680
 378 381 l 1
 378 313 l 1xb5
 253 313 l 1
 253 256 l 1xb680
 378 256 l 1
 378 188 l 1xb5
 253 188 l 1
 253 68 l 1
 435 68 l 1xb680
 435 131 l 1
 503 131 l 1
 503 63 l 1x7680
 441 63 l 1x75
EndSplineSet
EndChar

StartChar: yen
Encoding: 165 165 101
Width: 501
GlyphClass: 2
Flags: MW
HStem: 0 193<60 316 60 185> 125 68<60 185 60 185 316 441> 250 68<60 123 60 185 60 123 378 441> 375 193<60 123 60 191 378 378 378 441>
VStem: 60 131<125 568 193 568 250 568 318 568 375 568 318 568> 185 131<0 125 0 125 193 250 0 250> 310 131<375 568>
LayerCount: 2
Back
Fore
SplineSet
316 125 m 1x74
 316 0 l 1
 185 0 l 1xb4
 185 125 l 1x74
 60 125 l 1
 60 193 l 1x7a
 185 193 l 1
 185 250 l 1x74
 60 250 l 1
 60 318 l 1
 123 318 l 1
 123 375 l 1
 60 375 l 1
 60 568 l 1
 191 568 l 1
 191 318 l 1
 310 318 l 1
 310 568 l 1
 441 568 l 1
 441 375 l 1
 378 375 l 1
 378 318 l 1
 441 318 l 1
 441 250 l 1x7a
 316 250 l 1
 316 193 l 1x74
 441 193 l 1
 441 125 l 1x7a
 316 125 l 1x74
EndSplineSet
EndChar

StartChar: brokenbar
Encoding: 166 166 102
Width: 188
GlyphClass: 2
Flags: MW
HStem: -187 21G<60 60 60 128>
VStem: 60 68<-187 193 -187 193 375 756>
LayerCount: 2
Back
Fore
SplineSet
60 375 m 1
 60 756 l 1
 128 756 l 1
 128 375 l 1
 60 375 l 1
60 -187 m 1
 60 193 l 1
 128 193 l 1
 128 -187 l 1
 60 -187 l 1
EndSplineSet
EndChar

StartChar: section
Encoding: 167 167 103
Width: 376
GlyphClass: 2
Flags: MW
HStem: 0 68<128 248 128 253 123 248> 63 68<60 123 60 128 253 316> 125 68<191 248 191 248 185 248> 188 68<128 185 123 191 128 253 128 316> 250 68 313 68<191 248 60 185> 375 68<128 185 128 191> 438 68<60 123 60 123 253 316> 500 68<128 248 128 128>
VStem: 60 68<68 131 68 131 68 131 256 375 443 500> 123 68<193 250 250 250 381 438 438 438> 185 68<131 188 318 375 375 375> 248 68<68 125 125 125 193 313 313 313 438 500 500 500>
LayerCount: 2
Back
Fore
SplineSet
253 63 m 1x54d0
 253 0 l 1x94d0
 123 0 l 1x94a8
 123 63 l 1x54a8
 60 63 l 1
 60 131 l 1
 128 131 l 1x54c8
 128 68 l 1
 248 68 l 1
 248 125 l 1xa4c8
 185 125 l 1xa4d0
 185 188 l 1x94d0
 123 188 l 1x94a8
 123 250 l 1x88a8
 60 250 l 1x88c8
 60 381 l 1x94c8
 123 381 l 1
 123 438 l 1x9528
 60 438 l 1
 60 506 l 1x9548
 123 506 l 1x9528
 123 568 l 1x94a8
 253 568 l 1x94d0
 253 506 l 1x9550
 316 506 l 1
 316 438 l 1
 248 438 l 1x9548
 248 500 l 1
 128 500 l 1
 128 443 l 1x92c8
 191 443 l 1x92a8
 191 381 l 1x94a8
 253 381 l 1x94d0
 253 318 l 1x88d0
 316 318 l 1x88c8
 316 188 l 1x94c8
 253 188 l 1
 253 131 l 1x54d0
 316 131 l 1
 316 63 l 1x54c8
 253 63 l 1x54d0
248 313 m 1xa4a8
 185 313 l 1x94d0
 185 375 l 1
 128 375 l 1
 128 256 l 1x92d0
 191 256 l 1x94a8
 191 193 l 1
 248 193 l 1
 248 313 l 1xa4a8
EndSplineSet
EndChar

StartChar: dieresis
Encoding: 168 168 104
Width: 313
GlyphClass: 2
Flags: MW
HStem: 625 68<60 128 60 128 60 185 185 253>
VStem: 60 68<625 693 625 693> 185 68<625 693 625 693>
LayerCount: 2
Back
Fore
SplineSet
185 625 m 1
 185 693 l 1
 253 693 l 1
 253 625 l 1
 185 625 l 1
60 625 m 1
 60 693 l 1
 128 693 l 1
 128 625 l 1
 60 625 l 1
EndSplineSet
EndChar

StartChar: copyright
Encoding: 169 169 105
Width: 751
GlyphClass: 2
Flags: MW
HStem: 0 68<191 560 191 566 185 560> 63 68<128 185 123 191 566 623 566 566> 188 68<316 435 316 441 310 435> 250 68<441 503 441 441> 375 68<441 503> 438 68<316 435 316 316> 548 20G<60 123 123 123 628 691 691 691> 563 68<128 185 123 191 128 128 566 623> 625 68<191 560 191 191>
VStem: 60 68<131 563 131 568 131 568> 123 68<68 125 125 125 568 625> 248 68<256 438 256 443 256 443> 310 131<188 250 188 250 443 506> 435 68<256 318 250 318 375 438 438 438> 560 68<68 125 63 131 63 131 568 625 625 625> 623 68<131 563 563 563>
LayerCount: 2
Back
Fore
SplineSet
628 125 m 1xa6d6
 628 63 l 1
 566 63 l 1x66d6
 566 0 l 1
 185 0 l 1xa6b6
 185 63 l 1
 123 63 l 1
 123 125 l 1x66b5
 60 125 l 1
 60 568 l 1x66d5
 123 568 l 1xa6b5
 123 631 l 1
 185 631 l 1xa535
 185 693 l 1
 566 693 l 1xa6b6
 566 631 l 1
 628 631 l 1xa556
 628 568 l 1xa6d6
 691 568 l 1
 691 125 l 1xa6d5
 628 125 l 1xa6d6
623 563 m 1x6555
 560 563 l 1x954a
 560 625 l 1
 191 625 l 1xa6b6
 191 563 l 1xa535
 128 563 l 1
 128 131 l 1x6555
 191 131 l 1x66b5
 191 68 l 1
 560 68 l 1xa6b6
 560 131 l 1x66d6
 623 131 l 1
 623 563 l 1x6555
441 250 m 1
 441 188 l 1
 310 188 l 1xa6c9
 310 250 l 1x96c9
 248 250 l 1
 248 443 l 1x9ad5
 310 443 l 1xaac9
 310 506 l 1
 441 506 l 1xa6c9
 441 443 l 1xaac9
 503 443 l 1
 503 375 l 1
 435 375 l 1xaad5
 435 438 l 1
 316 438 l 1
 316 256 l 1
 435 256 l 1xa6d5
 435 318 l 1
 503 318 l 1
 503 250 l 1x96d5
 441 250 l 1
EndSplineSet
EndChar

StartChar: ordfeminine
Encoding: 170 170 106
Width: 438
GlyphClass: 2
Flags: MW
HStem: 188 68<60 378 60 378> 313 68<128 248 128 253 123 248 316 378 128 310> 375 131<60 123 60 123 60 310 60 253> 500 68<128 248 128 128>
VStem: 60 68<381 500 381 506 381 506> 123 130<313 375 313 375> 248 68<381 500 500 500> 310 68<313 375 375 375>
LayerCount: 2
Back
Fore
SplineSet
310 313 m 1xd9
 310 375 l 1
 253 375 l 1xa5
 253 313 l 1
 123 313 l 1xd4
 123 375 l 1xa4
 60 375 l 1
 60 506 l 1xaa
 123 506 l 1xa4
 123 568 l 1xd4
 316 568 l 1
 316 381 l 1xda
 378 381 l 1
 378 313 l 1
 310 313 l 1xd9
60 188 m 1xd9
 60 256 l 1
 378 256 l 1
 378 188 l 1
 60 188 l 1xd9
248 500 m 1xda
 128 500 l 1
 128 381 l 1
 248 381 l 1
 248 500 l 1xda
EndSplineSet
EndChar

StartChar: guillemotleft
Encoding: 171 171 107
Width: 626
GlyphClass: 2
Flags: MW
HStem: 0 68<310 378 316 378 316 378 503 566> 63 68<253 310 248 316 441 498> 125 68<191 248 185 253 378 435> 188 68<128 185 123 191 316 373> 250 68<60 123 60 123 248 310> 313 68<128 185 123 191 128 128 316 373 316 316> 375 68<191 248 185 253 191 191 378 435 378 378> 438 68<253 310 248 316 253 253 441 498 441 441> 500 68<316 378 316 316 503 566 503 503>
VStem: 60 68<256 313 256 318 256 318> 123 68<193 250 250 250 318 375> 185 68<131 188 188 188 381 438> 248 68<68 125 125 125 256 313 443 500> 310 68<0 63 63 63 193 250 250 250 318 375 506 568> 373 68<131 188 188 188 381 438> 435 68<68 125 125 125 443 500> 498 68<0 63 63 63 506 568>
LayerCount: 2
Back
Fore
SplineSet
498 0 m 1xaaa480
 498 63 l 1x4aa480
 435 63 l 1x4aa5
 435 125 l 1xaaa5
 373 125 l 1xaaa280
 373 188 l 1x92a280
 310 188 l 1x92a480
 310 250 l 1xaaa480
 248 250 l 1
 248 318 l 1xaaa880
 310 318 l 1xaaa480
 310 381 l 1xa4a480
 373 381 l 1xa4a280
 373 443 l 1xaaa280
 435 443 l 1xaaa5
 435 506 l 1xa925
 498 506 l 1xa92480
 498 568 l 1
 566 568 l 1
 566 500 l 1xaaa480
 503 500 l 1xaaa5
 503 438 l 1xa925
 441 438 l 1xa92280
 441 375 l 1xaaa280
 378 375 l 1xaaa480
 378 313 l 1xa4a480
 316 313 l 1
 316 256 l 1x94a880
 378 256 l 1x92a480
 378 193 l 1xaaa480
 441 193 l 1xaaa280
 441 131 l 1x4aa280
 503 131 l 1x4aa5
 503 68 l 1xaaa5
 566 68 l 1
 566 0 l 1
 498 0 l 1xaaa480
310 0 m 1xaaa480
 310 63 l 1x4aa480
 248 63 l 1x4aa880
 248 125 l 1xaaa880
 185 125 l 1xaa9480
 185 188 l 1x929480
 123 188 l 1x92a480
 123 250 l 1xaaa480
 60 250 l 1
 60 318 l 1xaac480
 123 318 l 1xaaa480
 123 381 l 1xa4a480
 185 381 l 1xa49480
 185 443 l 1xaa9480
 248 443 l 1xaaa880
 248 506 l 1xa92880
 310 506 l 1xa92480
 310 568 l 1
 378 568 l 1
 378 500 l 1xaaa480
 316 500 l 1xaaa880
 316 438 l 1xa92880
 253 438 l 1xa91480
 253 375 l 1xaa9480
 191 375 l 1xaaa480
 191 313 l 1xa4a480
 128 313 l 1
 128 256 l 1x94c480
 191 256 l 1x92a480
 191 193 l 1xaaa480
 253 193 l 1xaa9480
 253 131 l 1x4a9480
 316 131 l 1x4aa880
 316 68 l 1xaaa880
 378 68 l 1
 378 0 l 1
 310 0 l 1xaaa480
EndSplineSet
EndChar

StartChar: logicalnot
Encoding: 172 172 108
Width: 563
GlyphClass: 2
Flags: MW
HStem: 250 131<60 435 60 503>
VStem: 435 68<63 250 250 250>
LayerCount: 2
Back
Fore
SplineSet
435 63 m 1
 435 250 l 1
 60 250 l 1
 60 381 l 1
 503 381 l 1
 503 63 l 1
 435 63 l 1
EndSplineSet
EndChar

StartChar: registered
Encoding: 174 174 109
Width: 751
GlyphClass: 2
Flags: MW
HStem: 0 68<191 560 191 566 185 560> 63 68<128 185 123 191 566 623 566 566> 188 130<248 503 441 503 441 503 435 503> 313 68<316 435 316 435> 375 68<441 503 441 503> 438 68<316 435 316 316> 548 20G<60 123 123 123 628 691 691 691> 563 68<128 185 123 191 128 128 566 623> 625 68<191 560 191 191>
VStem: 60 68<131 563 131 568 131 568> 123 68<68 125 125 125 568 625> 248 68<188 313 381 438> 435 68<188 313 313 313 381 438 438 438> 560 68<68 125 63 131 63 131 568 625 625 625> 623 68<131 563 563 563>
LayerCount: 2
Back
Fore
SplineSet
628 125 m 1x96dc
 628 63 l 1
 566 63 l 1x56dc
 566 0 l 1
 185 0 l 1x96bc
 185 63 l 1
 123 63 l 1
 123 125 l 1x56ba
 60 125 l 1
 60 568 l 1x56da
 123 568 l 1x96ba
 123 631 l 1
 185 631 l 1x953a
 185 693 l 1
 566 693 l 1x96bc
 566 631 l 1
 628 631 l 1x955c
 628 568 l 1x96dc
 691 568 l 1
 691 125 l 1x96da
 628 125 l 1x96dc
623 563 m 1x555a
 560 563 l 1xa95c
 560 625 l 1
 191 625 l 1x96bc
 191 563 l 1x953a
 128 563 l 1
 128 131 l 1x555a
 191 131 l 1x56ba
 191 68 l 1
 560 68 l 1x96bc
 560 131 l 1x56dc
 623 131 l 1
 623 563 l 1x555a
435 188 m 1
 435 313 l 1
 316 313 l 1x96da
 316 188 l 1
 248 188 l 1
 248 506 l 1
 441 506 l 1xa6da
 441 443 l 1
 503 443 l 1
 503 375 l 1
 441 375 l 1
 441 318 l 1
 503 318 l 1
 503 188 l 1
 435 188 l 1
435 438 m 1
 316 438 l 1
 316 381 l 1
 435 381 l 1
 435 438 l 1
EndSplineSet
EndChar

StartChar: macron
Encoding: 175 175 110
Width: 376
GlyphClass: 2
Flags: MW
HStem: 688 68<60 316 60 316>
VStem: 60 256<688 756 688 756>
LayerCount: 2
Back
Fore
SplineSet
60 688 m 1
 60 756 l 1
 316 756 l 1
 316 688 l 1
 60 688 l 1
EndSplineSet
EndChar

StartChar: degree
Encoding: 176 176 111
Width: 376
GlyphClass: 2
Flags: MW
HStem: 250 68<128 248 128 253 123 248> 313 193<60 123 60 123 253 316 60 253> 500 68<128 248 128 128>
VStem: 60 68<318 500 318 506 318 506> 123 130<250 313 250 313 506 568> 248 68<318 500 500 500>
LayerCount: 2
Back
Fore
SplineSet
253 313 m 1x48
 253 250 l 1
 123 250 l 1xa8
 123 313 l 1x48
 60 313 l 1
 60 506 l 1x54
 123 506 l 1x48
 123 568 l 1
 253 568 l 1xa8
 253 506 l 1x48
 316 506 l 1
 316 313 l 1x54
 253 313 l 1x48
248 500 m 1xb4
 128 500 l 1
 128 318 l 1
 248 318 l 1
 248 500 l 1xb4
EndSplineSet
EndChar

StartChar: plusminus
Encoding: 177 177 112
Width: 563
GlyphClass: 2
Flags: MW
HStem: 0 68<60 503 60 503> 313 68<60 248 60 248 316 503> 548 20G<248 316 316 316>
VStem: 248 68<125 313 125 313 381 568>
LayerCount: 2
Back
Fore
SplineSet
316 313 m 1
 316 125 l 1
 248 125 l 1
 248 313 l 1
 60 313 l 1
 60 381 l 1
 248 381 l 1
 248 568 l 1
 316 568 l 1
 316 381 l 1
 503 381 l 1
 503 313 l 1
 316 313 l 1
60 0 m 1
 60 68 l 1
 503 68 l 1
 503 0 l 1
 60 0 l 1
EndSplineSet
EndChar

StartChar: twosuperior
Encoding: 178 178 113
Width: 376
GlyphClass: 2
Flags: MW
HStem: 375 68<60 123 60 123 191 316> 500 68<191 248 185 253 191 191> 563 130<253 316> 625 68<60 123 60 128 60 123> 688 68<128 248 128 128>
VStem: 60 68<625 688 625 693 625 693> 123 68<443 500 443 506 443 506> 185 68<506 563 500 568 500 568> 248 68<568 688 688 688>
LayerCount: 2
Back
Fore
SplineSet
60 375 m 1xcc80
 60 443 l 1xcc80
 123 443 l 1
 123 506 l 1xca80
 185 506 l 1
 185 568 l 1xcd
 248 568 l 1
 248 688 l 1
 128 688 l 1xcc80
 128 625 l 1
 60 625 l 1
 60 693 l 1xd480
 123 693 l 1xd280
 123 756 l 1xca80
 253 756 l 1xcd
 253 693 l 1xd5
 316 693 l 1xd480
 316 563 l 1xa480
 253 563 l 1xa5
 253 500 l 1xcd
 191 500 l 1
 191 443 l 1xca80
 316 443 l 1
 316 375 l 1
 60 375 l 1xcc80
EndSplineSet
EndChar

StartChar: threesuperior
Encoding: 179 179 114
Width: 376
GlyphClass: 2
Flags: MW
HStem: 375 68<60 248 60 253 60 248> 438 130<253 316 253 316> 563 68<123 248 123 248> 625 68<253 316 253 316> 688 68<60 248 60 253>
VStem: 123 130<568 625> 248 68<443 563 563 563 631 688 688 688>
LayerCount: 2
Back
Fore
SplineSet
253 438 m 1x4c
 253 375 l 1
 60 375 l 1
 60 443 l 1xac
 248 443 l 1
 248 563 l 1xaa
 123 563 l 1
 123 631 l 1xac
 248 631 l 1
 248 688 l 1xaa
 60 688 l 1
 60 756 l 1
 253 756 l 1xac
 253 693 l 1x94
 316 693 l 1
 316 625 l 1x92
 253 625 l 1
 253 568 l 1x54
 316 568 l 1
 316 438 l 1x4a
 253 438 l 1x4c
EndSplineSet
EndChar

StartChar: acute
Encoding: 180 180 115
Width: 251
GlyphClass: 2
Flags: MW
HStem: 625 68<60 123 60 128 60 123> 688 68<128 128 128 191>
VStem: 60 68<625 688 625 693 625 693> 123 68<693 756 688 756>
LayerCount: 2
Back
Fore
SplineSet
128 688 m 1x60
 128 625 l 1
 60 625 l 1
 60 693 l 1xa0
 123 693 l 1x90
 123 756 l 1
 191 756 l 1
 191 688 l 1x50
 128 688 l 1x60
EndSplineSet
EndChar

StartChar: mu
Encoding: 181 181 116
AltUni2: 0003bc.ffffffff.0
Width: 563
GlyphClass: 2
Flags: MW
HStem: 0 68<191 248 191 253 191 248 441 503> 63 68<253 310 248 435 253 253> 548 20G<60 191 191 191 310 441 441 441>
VStem: 60 131<-125 0 -125 68 68 568> 310 131<131 568 68 568> 435 68<0 63 63 63>
LayerCount: 2
Back
Fore
SplineSet
435 0 m 1xb4
 435 63 l 1
 253 63 l 1x74
 253 0 l 1
 191 0 l 1
 191 -125 l 1
 60 -125 l 1
 60 568 l 1
 191 568 l 1
 191 68 l 1
 248 68 l 1xb8
 248 131 l 1
 310 131 l 1x78
 310 568 l 1
 441 568 l 1
 441 68 l 1xb8
 503 68 l 1
 503 0 l 1
 435 0 l 1xb4
EndSplineSet
EndChar

StartChar: paragraph
Encoding: 182 182 117
Width: 626
GlyphClass: 2
Flags: MW
HStem: -187 68<248 373 248 378 248 373> 188 68<253 373 253 373> 250 256<60 123 60 123> 500 68<253 373 253 253 503 503 503 566>
VStem: 60 193<256 500 256 506 256 506> 248 130<-187 -125 -187 -119 -187 -119> 373 130<-62 188 188 188 256 500 -62 500>
LayerCount: 2
Back
Fore
SplineSet
503 500 m 1xda
 503 -62 l 1
 441 -62 l 1
 441 -125 l 1xda
 378 -125 l 1
 378 -187 l 1
 248 -187 l 1
 248 -119 l 1xd4
 373 -119 l 1
 373 188 l 1
 123 188 l 1xda
 123 250 l 1
 60 250 l 1
 60 506 l 1
 123 506 l 1xaa
 123 568 l 1
 566 568 l 1
 566 500 l 1
 503 500 l 1xda
373 500 m 1
 253 500 l 1
 253 256 l 1
 373 256 l 1
 373 500 l 1
EndSplineSet
EndChar

StartChar: periodcentered
Encoding: 183 183 118
Width: 313
GlyphClass: 2
Flags: MW
HStem: 188 193<60 253 60 253>
VStem: 60 193<188 381 188 381>
LayerCount: 2
Back
Fore
SplineSet
60 188 m 1
 60 381 l 1
 253 381 l 1
 253 188 l 1
 60 188 l 1
EndSplineSet
EndChar

StartChar: cedilla
Encoding: 184 184 119
Width: 313
GlyphClass: 2
Flags: MW
HStem: -187 68<60 185 60 191 60 185> -125 68<191 253 191 253> -62 68<123 185 123 191>
VStem: 123 68<-57 6> 185 68<-119 -62 -62 -62>
LayerCount: 2
Back
Fore
SplineSet
191 -125 m 1x50
 191 -187 l 1
 60 -187 l 1
 60 -119 l 1xb0
 185 -119 l 1
 185 -62 l 1xa8
 123 -62 l 1
 123 6 l 1
 191 6 l 1xb0
 191 -57 l 1x50
 253 -57 l 1
 253 -125 l 1x48
 191 -125 l 1x50
EndSplineSet
EndChar

StartChar: onesuperior
Encoding: 185 185 120
Width: 313
GlyphClass: 2
Flags: MW
HStem: 563 68<60 123 60 128 60 123> 625 68<128 185 128 128>
VStem: 60 68<563 625 563 631 563 631> 185 68<375 625 625 625 693 756 375 756>
LayerCount: 2
Back
Fore
SplineSet
185 375 m 1xb0
 185 625 l 1
 128 625 l 1x70
 128 563 l 1
 60 563 l 1
 60 631 l 1
 123 631 l 1xb0
 123 693 l 1
 185 693 l 1
 185 756 l 1
 253 756 l 1x70
 253 375 l 1
 185 375 l 1xb0
EndSplineSet
EndChar

StartChar: ordmasculine
Encoding: 186 186 121
Width: 376
GlyphClass: 2
Flags: MW
HStem: 188 68<60 316 60 316> 313 68<128 248 128 253 123 248> 375 131<60 123 60 123 253 316 60 253> 500 68<128 248 128 128>
VStem: 60 68<381 500 381 506 381 506> 123 130<313 375 313 375 506 568> 248 68<381 500 500 500>
LayerCount: 2
Back
Fore
SplineSet
253 375 m 1xa4
 253 313 l 1
 123 313 l 1xd4
 123 375 l 1xa4
 60 375 l 1
 60 506 l 1xaa
 123 506 l 1xa4
 123 568 l 1
 253 568 l 1xd4
 253 506 l 1xa4
 316 506 l 1
 316 375 l 1xaa
 253 375 l 1xa4
60 188 m 1xda
 60 256 l 1
 316 256 l 1
 316 188 l 1
 60 188 l 1xda
248 500 m 1
 128 500 l 1
 128 381 l 1
 248 381 l 1
 248 500 l 1
EndSplineSet
EndChar

StartChar: guillemotright
Encoding: 187 187 122
Width: 626
GlyphClass: 2
Flags: MW
HStem: 0 68<60 123 60 128 60 123 248 310> 63 68<128 185 123 191 128 128 316 373 316 316> 125 68<191 248 185 253 191 191 378 435 378 378> 188 68<253 310 248 316 253 253 441 498 441 441> 250 68<316 378 316 378 503 566> 313 68<253 310 248 316 441 498> 375 68<191 248 185 253 378 435> 438 68<128 185 123 191 316 373> 500 68<60 123 60 128 248 310>
VStem: 60 68<0 63 0 68 0 68 506 568> 123 68<68 125 63 131 63 131 443 500 500 500> 185 68<131 188 125 193 125 193 381 438 438 438> 248 68<0 63 0 68 0 68 193 250 318 375 375 375 506 568> 310 68<68 125 63 131 63 131 256 313 313 313 443 500 500 500> 373 68<131 188 125 193 125 193 381 438 438 438> 435 68<193 250 188 256 188 256 318 375 375 375> 498 68<256 313 313 313>
LayerCount: 2
Back
Fore
SplineSet
503 250 m 1xaac9
 503 188 l 1x92c9
 441 188 l 1x92ca
 441 125 l 1xaaca
 378 125 l 1xaac5
 378 63 l 1x4ac5
 316 63 l 1x4ac9
 316 0 l 1
 248 0 l 1
 248 68 l 1xaac9
 310 68 l 1xaac5
 310 131 l 1x4ac5
 373 131 l 1x4aca
 373 193 l 1xaaca
 435 193 l 1xaac9
 435 256 l 1x92c9
 498 256 l 1
 498 313 l 1x94c880
 435 313 l 1xa4c9
 435 375 l 1xaac9
 373 375 l 1xaaca
 373 438 l 1xa94a
 310 438 l 1xa945
 310 500 l 1xaac5
 248 500 l 1
 248 568 l 1
 316 568 l 1xaac9
 316 506 l 1xa949
 378 506 l 1xa945
 378 443 l 1xaac5
 441 443 l 1xaaca
 441 381 l 1xa4ca
 503 381 l 1xa4c9
 503 318 l 1xaac9
 566 318 l 1
 566 250 l 1xaac880
 503 250 l 1xaac9
316 250 m 1xaac9
 316 188 l 1x92c9
 253 188 l 1x92d1
 253 125 l 1xaad1
 191 125 l 1xaaa9
 191 63 l 1x4aa9
 128 63 l 1x4ac9
 128 0 l 1
 60 0 l 1
 60 68 l 1xaac9
 123 68 l 1xaaa9
 123 131 l 1x4aa9
 185 131 l 1x4ad1
 185 193 l 1xaad1
 248 193 l 1xaac9
 248 256 l 1x92c9
 310 256 l 1
 310 313 l 1x94c5
 248 313 l 1xa4c9
 248 375 l 1xaac9
 185 375 l 1xaad1
 185 438 l 1xa951
 123 438 l 1xa929
 123 500 l 1xaaa9
 60 500 l 1
 60 568 l 1
 128 568 l 1xaac9
 128 506 l 1xa949
 191 506 l 1xa929
 191 443 l 1xaaa9
 253 443 l 1xaad1
 253 381 l 1xa4d1
 316 381 l 1xa4c9
 316 318 l 1xaac9
 378 318 l 1
 378 250 l 1xaac5
 316 250 l 1xaac9
EndSplineSet
EndChar

StartChar: onequarter
Encoding: 188 188 123
Width: 501
GlyphClass: 2
Flags: MW
HStem: 0 68<128 248 128 248 316 378> 0 131<60 123 60 248 60 123> 125 131<128 185 123 191 128 128> 250 68<191 248 191 191> 375 68<60 441 60 441> 688 68<123 185 123 191 123 185> 750 68<191 248 191 191>
VStem: 60 68<68 125 68 131 68 131> 123 68<131 250 125 256 125 256 688 750> 248 68<-62 0 -62 0 68 250 250 250 500 750 750 750>
LayerCount: 2
Back
Fore
SplineSet
316 500 m 1x9ac0
 248 500 l 1
 248 750 l 1x9b40
 191 750 l 1
 191 688 l 1
 123 688 l 1
 123 756 l 1x9ac0
 185 756 l 1xaac0
 185 818 l 1
 316 818 l 1xab40
 316 500 l 1x9ac0
441 375 m 1
 60 375 l 1
 60 443 l 1
 441 443 l 1
 441 375 l 1
378 0 m 1
 316 0 l 1x9cc0
 316 -62 l 1
 248 -62 l 1
 248 0 l 1
 60 0 l 1
 60 131 l 1
 123 131 l 1
 123 256 l 1
 185 256 l 1x9b40
 185 318 l 1x5b40
 316 318 l 1x5ac0
 316 68 l 1
 378 68 l 1xaac0
 378 0 l 1
248 68 m 1
 248 250 l 1
 191 250 l 1
 191 125 l 1x9ac0
 128 125 l 1
 128 68 l 1
 248 68 l 1
EndSplineSet
EndChar

StartChar: onehalf
Encoding: 189 189 124
Width: 501
GlyphClass: 2
Flags: MW
HStem: 0 68<123 185 253 378 123 185> 125 68<253 310 248 316 253 253> 188 68<123 185 123 191 123 185 316 378> 250 68<191 310 191 191> 375 68<60 441 60 441> 688 68<123 185 123 191 123 185> 750 68<191 248 191 191>
VStem: 123 68<188 250 188 256 188 256 688 750> 185 68<68 125 68 131 68 131> 248 68<131 188 125 193 125 193 500 750 750 750> 310 68<193 250 250 250>
LayerCount: 2
Back
Fore
SplineSet
316 500 m 1xdb40
 248 500 l 1
 248 750 l 1
 191 750 l 1xdb40
 191 688 l 1
 123 688 l 1
 123 756 l 1
 185 756 l 1xdd40
 185 818 l 1
 316 818 l 1
 316 500 l 1xdb40
441 375 m 1
 60 375 l 1
 60 443 l 1
 441 443 l 1
 441 375 l 1
378 0 m 1xdaa0
 123 0 l 1
 123 68 l 1xdb40
 185 68 l 1
 185 131 l 1xda80
 248 131 l 1
 248 193 l 1xdb40
 310 193 l 1
 310 250 l 1
 191 250 l 1xdb20
 191 188 l 1
 123 188 l 1
 123 256 l 1
 185 256 l 1xab40
 185 318 l 1
 316 318 l 1xdb40
 316 256 l 1xab40
 378 256 l 1
 378 188 l 1xab20
 316 188 l 1xab40
 316 125 l 1xdb40
 253 125 l 1
 253 68 l 1
 378 68 l 1
 378 0 l 1xdaa0
EndSplineSet
EndChar

StartChar: threequarters
Encoding: 190 190 125
Width: 501
GlyphClass: 2
Flags: MW
HStem: 0 68<60 248 128 248 128 248 316 378> 0 131<60 123 60 126 60 123 60 248> 125 68<128 185 123 191 128 128> 188 68<191 248 191 191> 375 68<60 441 60 441> 500 68<123 310 123 316 123 310> 563 68<316 378 316 378> 625 68<185 310 185 310> 688 68<316 378 316 378> 750 68<123 310 123 316>
VStem: 60 68<68 125 68 131 68 131> 123 68<131 188 125 193 125 193> 248 68<-62 0 -62 0 68 188 188 188 256 318> 310 68<568 625 625 625 693 750 750 750>
LayerCount: 2
Back
Fore
SplineSet
378 563 m 1xad68
 316 563 l 1
 316 500 l 1xad68
 123 500 l 1
 123 568 l 1xad64
 310 568 l 1
 310 625 l 1
 185 625 l 1xad58
 185 693 l 1xaca8
 310 693 l 1
 310 750 l 1xaca4
 123 750 l 1
 123 818 l 1xaaa8
 316 818 l 1
 316 756 l 1xaa64
 378 756 l 1
 378 688 l 1x9d58
 316 688 l 1xad58
 316 631 l 1
 378 631 l 1
 378 563 l 1xad68
441 375 m 1xad54
 60 375 l 1
 60 443 l 1
 441 443 l 1
 441 375 l 1xad54
378 0 m 1xad68
 316 0 l 1
 316 -62 l 1
 248 -62 l 1
 248 0 l 1xad68
 126 0 l 1x4d68
 60 0 l 1x4d58
 60 131 l 1
 123 131 l 1xad58
 123 193 l 1
 185 193 l 1
 185 256 l 1
 248 256 l 1
 248 318 l 1x9d58
 316 318 l 1
 316 68 l 1xad64
 378 68 l 1xaa68
 378 0 l 1xad68
248 68 m 1
 248 188 l 1
 191 188 l 1
 191 125 l 1
 128 125 l 1
 128 68 l 1
 248 68 l 1
EndSplineSet
EndChar

StartChar: questiondown
Encoding: 191 191 126
Width: 501
GlyphClass: 2
Flags: MW
HStem: -125 68<191 373 191 378> -62 68<378 441 378 378> 188 68<191 248 123 253 191 191> 250 131<253 378 253 253> 438 130<248 378 248 378>
VStem: 60 131<-57 188 -57 193 -57 193> 248 130<256 381 438 568> 373 68<-57 6 -62 6>
LayerCount: 2
Back
Fore
SplineSet
248 438 m 1xae
 248 568 l 1
 378 568 l 1
 378 438 l 1
 248 438 l 1xae
378 -62 m 1x6d
 378 -125 l 1
 123 -125 l 1xad
 123 -62 l 1
 60 -62 l 1
 60 193 l 1
 123 193 l 1
 123 256 l 1
 248 256 l 1x6e
 248 381 l 1
 378 381 l 1
 378 250 l 1
 253 250 l 1x9e
 253 188 l 1
 191 188 l 1
 191 -57 l 1
 373 -57 l 1xad
 373 6 l 1
 441 6 l 1
 441 -62 l 1
 378 -62 l 1x6d
EndSplineSet
EndChar

StartChar: Agrave
Encoding: 192 192 127
Width: 564
GlyphClass: 2
Flags: MW
HStem: 0 21G<60 191 60 60 373 504 373 373> 313 68<191 373 191 373> 625 68<191 373 191 191> 750 68<248 316 253 316 253 316> 813 68<185 248 185 253>
VStem: 60 131<0 313 0 381 381 625> 185 68<818 881 818 881 818 881> 248 68<750 813 813 813> 373 131<0 313 313 313 381 625 625 625>
LayerCount: 2
Back
Fore
SplineSet
248 750 m 1xf580
 248 813 l 1xed80
 185 813 l 1
 185 881 l 1
 253 881 l 1xea80
 253 818 l 1xf280
 316 818 l 1
 316 750 l 1
 248 750 l 1xf580
373 0 m 1
 373 313 l 1
 191 313 l 1
 191 0 l 1
 60 0 l 1
 60 631 l 1
 123 631 l 1
 123 693 l 1
 441 693 l 1
 441 631 l 1
 504 631 l 1
 504 0 l 1
 373 0 l 1
373 625 m 1
 191 625 l 1
 191 381 l 1
 373 381 l 1
 373 625 l 1
EndSplineSet
Substitution2: "'c2sc' Capitals to Small Capitals in Latin lookup 2 subtable" agrave.sc
Substitution2: "'aalt' Access All Alternates in Latin lookup 0 subtable" agrave.sc
EndChar

StartChar: Aacute
Encoding: 193 193 128
Width: 564
GlyphClass: 2
Flags: MW
HStem: 0 21G<60 191 60 60 373 504 373 373> 313 68<191 373 191 373> 625 68<191 373 191 191> 750 68<248 310 248 316 248 310> 813 68<316 316 316 379>
VStem: 60 131<0 313 0 381 381 625> 248 68<750 813 750 818 750 818> 310 69<818 881 813 881> 373 131<0 313 313 313 381 625 625 625>
LayerCount: 2
Back
Fore
SplineSet
316 813 m 1xee80
 316 750 l 1
 248 750 l 1
 248 818 l 1xf680
 310 818 l 1xf5
 310 881 l 1
 379 881 l 1
 379 813 l 1xed
 316 813 l 1xee80
373 0 m 1
 373 313 l 1
 191 313 l 1
 191 0 l 1
 60 0 l 1
 60 631 l 1
 123 631 l 1
 123 693 l 1
 441 693 l 1
 441 631 l 1
 504 631 l 1
 504 0 l 1
 373 0 l 1
373 625 m 1
 191 625 l 1
 191 381 l 1
 373 381 l 1
 373 625 l 1
EndSplineSet
Substitution2: "'c2sc' Capitals to Small Capitals in Latin lookup 2 subtable" aacute.sc
Substitution2: "'aalt' Access All Alternates in Latin lookup 0 subtable" aacute.sc
EndChar

StartChar: Acircumflex
Encoding: 194 194 129
Width: 564
GlyphClass: 2
Flags: MW
HStem: 0 21G<60 191 60 60 373 504 373 373> 313 68<191 373 191 373> 625 68<191 373 191 191> 750 68<185 248 185 254 185 248 316 379 185 310> 813 68<254 310 254 254>
VStem: 60 131<0 313 0 381 381 625> 185 69<750 813 750 818 750 818> 248 68<818 881 818 881> 310 69<750 813 813 813> 373 131<0 313 313 313 381 625 625 625>
LayerCount: 2
Back
Fore
SplineSet
310 750 m 1xf480
 310 813 l 1
 254 813 l 1xea80
 254 750 l 1
 185 750 l 1
 185 818 l 1xf240
 248 818 l 1xf540
 248 881 l 1
 316 881 l 1xed40
 316 818 l 1xf540
 379 818 l 1
 379 750 l 1
 310 750 l 1xf480
373 0 m 1xf540
 373 313 l 1
 191 313 l 1
 191 0 l 1
 60 0 l 1
 60 631 l 1
 123 631 l 1
 123 693 l 1
 441 693 l 1
 441 631 l 1
 504 631 l 1
 504 0 l 1
 373 0 l 1xf540
373 625 m 1
 191 625 l 1
 191 381 l 1
 373 381 l 1
 373 625 l 1
EndSplineSet
Substitution2: "'c2sc' Capitals to Small Capitals in Latin lookup 2 subtable" acircumflex.sc
Substitution2: "'aalt' Access All Alternates in Latin lookup 0 subtable" acircumflex.sc
EndChar

StartChar: Atilde
Encoding: 195 195 130
Width: 564
GlyphClass: 2
Flags: MW
HStem: 0 21G<60 191 60 60 373 504 373 373> 313 68<191 373 191 373> 625 68<191 373 191 191> 750 68<185 248 185 254 185 248 316 373 185 310> 813 68<254 310 254 254 379 441 379 379>
VStem: 60 131<0 313 0 381 381 625> 185 69<750 813 750 818 750 818> 248 68<818 881 818 881> 310 69<750 813 750 813> 373 131<0 313 313 313 381 625 625 625>
LayerCount: 2
Back
Fore
SplineSet
379 813 m 1xec80
 379 750 l 1
 310 750 l 1xf480
 310 813 l 1
 254 813 l 1xea80
 254 750 l 1
 185 750 l 1
 185 818 l 1xf240
 248 818 l 1xf540
 248 881 l 1
 316 881 l 1xed40
 316 818 l 1
 373 818 l 1xf540
 373 881 l 1
 441 881 l 1
 441 813 l 1xed40
 379 813 l 1xec80
373 0 m 1xf540
 373 313 l 1
 191 313 l 1
 191 0 l 1
 60 0 l 1
 60 631 l 1
 123 631 l 1
 123 693 l 1
 441 693 l 1
 441 631 l 1
 504 631 l 1
 504 0 l 1
 373 0 l 1xf540
373 625 m 1
 191 625 l 1
 191 381 l 1
 373 381 l 1
 373 625 l 1
EndSplineSet
Substitution2: "'c2sc' Capitals to Small Capitals in Latin lookup 2 subtable" atilde.sc
Substitution2: "'aalt' Access All Alternates in Latin lookup 0 subtable" atilde.sc
EndChar

StartChar: Adieresis
Encoding: 196 196 131
Width: 564
GlyphClass: 2
Flags: MW
HStem: 0 21G<60 191 60 60 373 504 373 373> 313 68<191 373 191 373> 625 68<191 373 191 191> 750 68<185 254 185 254 185 310 310 379>
VStem: 60 131<0 313 0 381 381 625> 185 69<750 818 750 818> 310 69<750 818 750 818> 373 131<0 313 313 313 381 625 625 625>
LayerCount: 2
Back
Fore
SplineSet
310 750 m 1xf9
 310 818 l 1
 379 818 l 1
 379 750 l 1
 310 750 l 1xf9
185 750 m 1
 185 818 l 1
 254 818 l 1
 254 750 l 1
 185 750 l 1
373 0 m 1
 373 313 l 1
 191 313 l 1
 191 0 l 1
 60 0 l 1xf6
 60 631 l 1
 123 631 l 1
 123 693 l 1
 441 693 l 1
 441 631 l 1
 504 631 l 1
 504 0 l 1
 373 0 l 1
373 625 m 1
 191 625 l 1
 191 381 l 1
 373 381 l 1
 373 625 l 1
EndSplineSet
Substitution2: "'c2sc' Capitals to Small Capitals in Latin lookup 2 subtable" adieresis.sc
Substitution2: "'aalt' Access All Alternates in Latin lookup 0 subtable" adieresis.sc
EndChar

StartChar: Aring
Encoding: 197 197 132
Width: 564
GlyphClass: 2
Flags: MW
HStem: 0 21G<60 191 60 60 373 504 373 373> 313 68<191 373 191 373> 625 68<191 373 191 191> 750 68<253 310 253 316 248 310> 813 68<185 248 185 248 316 379> 875 68<253 310 253 253>
VStem: 60 131<0 313 0 381 381 625> 185 68<818 875 818 881 818 881> 248 68<750 813 750 813 881 943> 310 69<818 875 875 875> 373 131<0 313 313 313 381 625 625 625>
LayerCount: 2
Back
Fore
SplineSet
316 813 m 1xeaa0
 316 750 l 1
 248 750 l 1xf2a0
 248 813 l 1xeaa0
 185 813 l 1
 185 881 l 1xe920
 248 881 l 1xeaa0
 248 943 l 1
 316 943 l 1xe6a0
 316 881 l 1xeaa0
 379 881 l 1
 379 813 l 1xea40
 316 813 l 1xeaa0
373 0 m 1xf540
 373 313 l 1
 191 313 l 1
 191 0 l 1
 60 0 l 1
 60 631 l 1
 123 631 l 1
 123 693 l 1
 441 693 l 1xeaa0
 441 631 l 1
 504 631 l 1
 504 0 l 1
 373 0 l 1xf540
310 875 m 1
 253 875 l 1
 253 818 l 1
 310 818 l 1
 310 875 l 1
373 625 m 1
 191 625 l 1
 191 381 l 1
 373 381 l 1
 373 625 l 1
EndSplineSet
Substitution2: "'c2sc' Capitals to Small Capitals in Latin lookup 2 subtable" aring.sc
Substitution2: "'aalt' Access All Alternates in Latin lookup 0 subtable" aring.sc
EndChar

StartChar: AE
Encoding: 198 198 133
Width: 814
GlyphClass: 2
Flags: MW
HStem: 0 68<503 754 503 754> 313 68<191 373 191 373 503 691> 625 68<191 373 191 191 503 754 503 503>
VStem: 60 131<0 313 0 381 381 625> 373 130<68 313 68 313 68 313 381 625>
LayerCount: 2
Back
Fore
SplineSet
373 0 m 1
 373 313 l 1
 191 313 l 1
 191 0 l 1
 60 0 l 1
 60 631 l 1
 123 631 l 1
 123 693 l 1
 754 693 l 1
 754 625 l 1
 503 625 l 1
 503 381 l 1
 691 381 l 1
 691 313 l 1
 503 313 l 1
 503 68 l 1
 754 68 l 1
 754 0 l 1
 373 0 l 1
373 625 m 1
 191 625 l 1
 191 381 l 1
 373 381 l 1
 373 625 l 1
EndSplineSet
Substitution2: "'c2sc' Capitals to Small Capitals in Latin lookup 2 subtable" ae.sc
Substitution2: "'aalt' Access All Alternates in Latin lookup 0 subtable" ae.sc
EndChar

StartChar: Ccedilla
Encoding: 199 199 134
Width: 564
GlyphClass: 2
Flags: MW
HStem: -187 68<185 310 185 316 185 310> -125 68<316 379 316 379> 0 68<191 248 316 373 191 441 316 316> 63 130<441 504 441 441> 500 131<441 504> 625 68<191 373 191 191>
VStem: 60 131<68 625 68 631 68 631> 248 68<-57 0> 310 69<-119 -62 -62 -62> 373 131<68 193 63 193 500 625 625 625>
LayerCount: 2
Back
Fore
SplineSet
441 63 m 1x9740
 441 0 l 1
 316 0 l 1
 316 -57 l 1x6740
 379 -57 l 1
 379 -125 l 1x6680
 316 -125 l 1x6740
 316 -187 l 1
 185 -187 l 1
 185 -119 l 1xa740
 310 -119 l 1
 310 -62 l 1xa680
 248 -62 l 1
 248 0 l 1
 123 0 l 1
 123 63 l 1
 60 63 l 1
 60 631 l 1
 123 631 l 1
 123 693 l 1
 441 693 l 1xa740
 441 631 l 1
 504 631 l 1
 504 500 l 1
 373 500 l 1xab40
 373 625 l 1
 191 625 l 1
 191 68 l 1
 373 68 l 1xa740
 373 193 l 1
 504 193 l 1
 504 63 l 1
 441 63 l 1x9740
EndSplineSet
Substitution2: "'c2sc' Capitals to Small Capitals in Latin lookup 2 subtable" ccedilla.sc
Substitution2: "'aalt' Access All Alternates in Latin lookup 0 subtable" ccedilla.sc
EndChar

StartChar: Egrave
Encoding: 200 200 135
Width: 501
GlyphClass: 2
Flags: MW
HStem: 0 68<191 441 191 441> 313 68<191 379 191 379> 625 68<191 441 191 191> 750 68<185 254 191 254 191 254> 813 68<123 185 123 191>
VStem: 60 131<68 313 381 625> 185 69<750 813 813 813>
LayerCount: 2
Back
Fore
SplineSet
185 750 m 1xf2
 185 813 l 1xea
 123 813 l 1
 123 881 l 1
 191 881 l 1xec
 191 818 l 1xf4
 254 818 l 1
 254 750 l 1
 185 750 l 1xf2
60 0 m 1xf4
 60 693 l 1
 441 693 l 1
 441 625 l 1
 191 625 l 1
 191 381 l 1
 379 381 l 1
 379 313 l 1
 191 313 l 1
 191 68 l 1
 441 68 l 1
 441 0 l 1
 60 0 l 1xf4
EndSplineSet
Substitution2: "'c2sc' Capitals to Small Capitals in Latin lookup 2 subtable" egrave.sc
Substitution2: "'aalt' Access All Alternates in Latin lookup 0 subtable" egrave.sc
EndChar

StartChar: Eacute
Encoding: 201 201 136
Width: 501
GlyphClass: 2
Flags: MW
HStem: 0 68<191 441 191 441> 313 68<191 379 191 379> 625 68<191 441 191 191> 750 68<208 270 208 276 208 270> 813 68<276 276 276 339>
VStem: 60 131<68 313 381 625> 208 68<750 813 750 818 750 818> 270 69<818 881 813 881>
LayerCount: 2
Back
Fore
SplineSet
276 813 m 1xee
 276 750 l 1
 208 750 l 1
 208 818 l 1xf6
 270 818 l 1xf5
 270 881 l 1
 339 881 l 1
 339 813 l 1xed
 276 813 l 1xee
60 0 m 1xed
 60 693 l 1
 441 693 l 1
 441 625 l 1
 191 625 l 1
 191 381 l 1
 379 381 l 1
 379 313 l 1
 191 313 l 1
 191 68 l 1
 441 68 l 1
 441 0 l 1
 60 0 l 1xed
EndSplineSet
Substitution2: "'c2sc' Capitals to Small Capitals in Latin lookup 2 subtable" eacute.sc
Substitution2: "'aalt' Access All Alternates in Latin lookup 0 subtable" eacute.sc
EndChar

StartChar: Ecircumflex
Encoding: 202 202 137
Width: 501
GlyphClass: 2
Flags: MW
HStem: 0 68<191 441 191 441> 313 68<191 379 191 379> 625 68<191 441 191 191> 750 68<123 185 123 191 123 185 316 379> 813 68<191 310 191 191>
VStem: 60 131<68 313 381 625> 185 131<818 881 818 881> 310 69<750 813 813 813>
LayerCount: 2
Back
Fore
SplineSet
310 750 m 1xf5
 310 813 l 1
 191 813 l 1xed
 191 750 l 1
 123 750 l 1
 123 818 l 1xf5
 185 818 l 1xf2
 185 881 l 1
 316 881 l 1xea
 316 818 l 1xf2
 379 818 l 1
 379 750 l 1
 310 750 l 1xf5
60 0 m 1
 60 693 l 1
 441 693 l 1
 441 625 l 1
 191 625 l 1
 191 381 l 1
 379 381 l 1
 379 313 l 1
 191 313 l 1
 191 68 l 1
 441 68 l 1
 441 0 l 1
 60 0 l 1
EndSplineSet
Substitution2: "'c2sc' Capitals to Small Capitals in Latin lookup 2 subtable" ecircumflex.sc
Substitution2: "'aalt' Access All Alternates in Latin lookup 0 subtable" ecircumflex.sc
EndChar

StartChar: Edieresis
Encoding: 203 203 138
Width: 501
GlyphClass: 2
Flags: MW
HStem: 0 68<191 441 191 441> 313 68<191 379 191 379> 625 68<191 441 191 191> 750 68<123 191 123 191 310 379>
VStem: 60 131<68 313 381 625> 310 69<750 818>
LayerCount: 2
Back
Fore
SplineSet
310 750 m 1
 310 818 l 1
 379 818 l 1
 379 750 l 1
 310 750 l 1
123 750 m 1
 123 818 l 1
 191 818 l 1
 191 750 l 1
 123 750 l 1
60 0 m 1
 60 693 l 1
 441 693 l 1
 441 625 l 1
 191 625 l 1
 191 381 l 1
 379 381 l 1
 379 313 l 1
 191 313 l 1
 191 68 l 1
 441 68 l 1
 441 0 l 1
 60 0 l 1
EndSplineSet
Substitution2: "'c2sc' Capitals to Small Capitals in Latin lookup 2 subtable" edieresis.sc
Substitution2: "'aalt' Access All Alternates in Latin lookup 0 subtable" edieresis.sc
EndChar

StartChar: Igrave
Encoding: 204 204 139
Width: 251
GlyphClass: 2
Flags: MW
HStem: 0 21G<60 60 60 191> 673 20G<60 191 191 191> 750 68<123 191 128 191 128 191> 813 68<60 123 60 128>
VStem: 60 131<0 693 0 693 813 818 0 881>
LayerCount: 2
Back
Fore
SplineSet
123 750 m 1xe8
 123 813 l 1
 60 813 l 1
 60 881 l 1
 128 881 l 1xd8
 128 818 l 1
 191 818 l 1
 191 750 l 1
 123 750 l 1xe8
60 0 m 1
 60 693 l 1
 191 693 l 1
 191 0 l 1
 60 0 l 1
EndSplineSet
Substitution2: "'c2sc' Capitals to Small Capitals in Latin lookup 2 subtable" igrave.sc
Substitution2: "'aalt' Access All Alternates in Latin lookup 0 subtable" igrave.sc
EndChar

StartChar: Iacute
Encoding: 205 205 140
Width: 251
GlyphClass: 2
Flags: MW
HStem: 0 21G<60 60 60 191> 673 20G<60 191 191 191> 750 68<60 123 60 128 60 123> 813 68<128 128 128 191>
VStem: 60 131<0 693 0 693 813 818 818 818>
LayerCount: 2
Back
Fore
SplineSet
128 813 m 1xd8
 128 750 l 1
 60 750 l 1
 60 818 l 1
 123 818 l 1xe8
 123 881 l 1
 191 881 l 1
 191 813 l 1
 128 813 l 1xd8
60 0 m 1
 60 693 l 1
 191 693 l 1
 191 0 l 1
 60 0 l 1
EndSplineSet
Substitution2: "'c2sc' Capitals to Small Capitals in Latin lookup 2 subtable" iacute.sc
Substitution2: "'aalt' Access All Alternates in Latin lookup 0 subtable" iacute.sc
EndChar

StartChar: Icircumflex
Encoding: 206 206 141
Width: 251
GlyphClass: 2
Flags: MW
HStem: 0 21G<60 60 60 191> 673 20G<60 191 191 191> 750 68<-2 60 -2 66 -2 60 191 253> 813 68<66 185 66 66>
VStem: -2 68<750 813 750 818 750 818> 60 131<0 693 0 693 818 881> 185 68<750 813 813 813>
LayerCount: 2
Back
Fore
SplineSet
185 750 m 1xe2
 185 813 l 1
 66 813 l 1xda
 66 750 l 1
 -2 750 l 1
 -2 818 l 1xe8
 60 818 l 1xe4
 60 881 l 1
 191 881 l 1xd4
 191 818 l 1xe4
 253 818 l 1
 253 750 l 1
 185 750 l 1xe2
60 0 m 1xd4
 60 693 l 1
 191 693 l 1
 191 0 l 1
 60 0 l 1xd4
EndSplineSet
Substitution2: "'c2sc' Capitals to Small Capitals in Latin lookup 2 subtable" icircumflex.sc
Substitution2: "'aalt' Access All Alternates in Latin lookup 0 subtable" icircumflex.sc
EndChar

StartChar: Idieresis
Encoding: 207 207 142
Width: 251
GlyphClass: 2
Flags: MW
HStem: 0 21G<60 60 60 191> 673 20G<60 191 191 191> 750 68<-2 66 -2 66 185 253>
VStem: -2 68<750 818 750 818> 60 131<0 693 0 693> 185 68<750 818 750 818>
LayerCount: 2
Back
Fore
SplineSet
185 750 m 1xf4
 185 818 l 1
 253 818 l 1
 253 750 l 1
 185 750 l 1xf4
-2 750 m 1
 -2 818 l 1
 66 818 l 1
 66 750 l 1
 -2 750 l 1
60 0 m 1xe8
 60 693 l 1
 191 693 l 1
 191 0 l 1
 60 0 l 1xe8
EndSplineSet
Substitution2: "'c2sc' Capitals to Small Capitals in Latin lookup 2 subtable" idieresis.sc
Substitution2: "'aalt' Access All Alternates in Latin lookup 0 subtable" idieresis.sc
EndChar

StartChar: Eth
Encoding: 208 208 143
Width: 626
GlyphClass: 2
Flags: MW
HStem: 0 68<191 435 191 441> 313 68<-2 60 -2 60 191 253> 548 20G<503 566 566 566> 625 68<191 435 191 191>
VStem: 60 131<68 313 68 313 68 313 381 625> 435 68<68 125 568 625 625 625>
LayerCount: 2
Back
Fore
SplineSet
503 125 m 1
 503 63 l 1
 441 63 l 1
 441 0 l 1
 60 0 l 1
 60 313 l 1
 -2 313 l 1
 -2 381 l 1
 60 381 l 1
 60 693 l 1
 441 693 l 1
 441 631 l 1
 503 631 l 1
 503 568 l 1
 566 568 l 1
 566 125 l 1
 503 125 l 1
435 625 m 1
 191 625 l 1
 191 381 l 1
 253 381 l 1
 253 313 l 1
 191 313 l 1
 191 68 l 1
 435 68 l 1
 435 625 l 1
EndSplineSet
EndChar

StartChar: Ntilde
Encoding: 209 209 144
Width: 689
GlyphClass: 2
Flags: MW
HStem: 0 193<441 498 441 629 435 498> 125 68<373 498> 250 68<310 441> 375 68<248 378> 500 68<191 316 191 316> 500 193<191 248 191 191> 750 68<248 310 248 316 248 310 378 435 248 373> 813 68<316 373 316 316 441 504 441 441>
VStem: 60 131<0 500 0 693> 248 68<443 500 500 500 750 813> 310 68<318 375 375 375 818 881> 373 68<193 250 250 250 750 813> 435 69<818 881 813 881> 498 131<193 693 0 693>
LayerCount: 2
Back
Fore
SplineSet
441 813 m 1x79d4
 441 750 l 1
 373 750 l 1xb6d4
 373 813 l 1
 316 813 l 1x79d4
 316 750 l 1
 248 750 l 1
 248 818 l 1x7ad4
 310 818 l 1x7aa4
 310 881 l 1
 378 881 l 1x79a4
 378 818 l 1
 435 818 l 1x7aa4
 435 881 l 1x79d4
 504 881 l 1
 504 813 l 1x79c8
 441 813 l 1x79d4
435 0 m 1
 435 125 l 1
 373 125 l 1
 373 250 l 1x79d4
 310 250 l 1
 310 375 l 1x79a4
 248 375 l 1
 248 500 l 1
 191 500 l 1x79d4
 191 0 l 1
 60 0 l 1
 60 693 l 1
 253 693 l 1xb5d4
 253 568 l 1
 316 568 l 1
 316 443 l 1x79d4
 378 443 l 1
 378 318 l 1x79a4
 441 318 l 1
 441 193 l 1
 498 193 l 1x79d4
 498 693 l 1
 629 693 l 1
 629 0 l 1
 435 0 l 1
EndSplineSet
Substitution2: "'c2sc' Capitals to Small Capitals in Latin lookup 2 subtable" ntilde.sc
Substitution2: "'aalt' Access All Alternates in Latin lookup 0 subtable" ntilde.sc
EndChar

StartChar: Ograve
Encoding: 210 210 145
Width: 626
GlyphClass: 2
Flags: MW
HStem: 0 68<191 435 191 504> 625 68<191 435 191 191> 750 68<310 379 316 379 316 379> 813 68<248 310 248 316>
VStem: 60 131<68 625 68 631 68 631> 248 68<818 881 818 881 818 881> 310 69<750 813 813 813> 435 131<68 625 625 625>
LayerCount: 2
Back
Fore
SplineSet
310 750 m 1xeb
 310 813 l 1xdb
 248 813 l 1
 248 881 l 1
 316 881 l 1xdd
 316 818 l 1xed
 379 818 l 1
 379 750 l 1
 310 750 l 1xeb
504 63 m 1
 504 0 l 1
 123 0 l 1
 123 63 l 1
 60 63 l 1
 60 631 l 1
 123 631 l 1
 123 693 l 1
 503 693 l 1
 503 631 l 1
 566 631 l 1
 566 63 l 1
 504 63 l 1
435 625 m 1
 191 625 l 1
 191 68 l 1
 435 68 l 1
 435 625 l 1
EndSplineSet
Substitution2: "'c2sc' Capitals to Small Capitals in Latin lookup 2 subtable" ograve.sc
Substitution2: "'aalt' Access All Alternates in Latin lookup 0 subtable" ograve.sc
EndChar

StartChar: Oacute
Encoding: 211 211 146
Width: 626
GlyphClass: 2
Flags: MW
HStem: 0 68<191 435 191 504> 625 68<191 435 191 191> 750 68<310 373 310 379 310 373> 813 68<379 379 379 441>
VStem: 60 131<68 625 68 631 68 631> 310 69<750 813 750 818 750 818> 373 68<818 881 813 881> 435 131<68 625 625 625>
LayerCount: 2
Back
Fore
SplineSet
379 813 m 1xdd
 379 750 l 1
 310 750 l 1
 310 818 l 1xed
 373 818 l 1xea
 373 881 l 1
 441 881 l 1
 441 813 l 1xda
 379 813 l 1xdd
504 63 m 1
 504 0 l 1
 123 0 l 1
 123 63 l 1
 60 63 l 1
 60 631 l 1
 123 631 l 1
 123 693 l 1
 503 693 l 1
 503 631 l 1
 566 631 l 1
 566 63 l 1
 504 63 l 1
435 625 m 1
 191 625 l 1
 191 68 l 1
 435 68 l 1
 435 625 l 1
EndSplineSet
Substitution2: "'c2sc' Capitals to Small Capitals in Latin lookup 2 subtable" oacute.sc
Substitution2: "'aalt' Access All Alternates in Latin lookup 0 subtable" oacute.sc
EndChar

StartChar: Ocircumflex
Encoding: 212 212 147
Width: 626
GlyphClass: 2
Flags: MW
HStem: 0 68<191 435 191 504> 625 68<191 435 191 191> 750 68<185 248 185 254 185 248 378 441> 813 68<254 373 254 254>
VStem: 60 131<68 625 68 631 68 631> 185 69<750 813 750 818 750 818> 248 130<818 881 818 881> 373 68<750 813 813 813> 435 131<68 625 625 625>
LayerCount: 2
Back
Fore
SplineSet
373 750 m 1xe9
 373 813 l 1
 254 813 l 1xd5
 254 750 l 1
 185 750 l 1
 185 818 l 1xe480
 248 818 l 1xea80
 248 881 l 1
 378 881 l 1xda80
 378 818 l 1xea80
 441 818 l 1
 441 750 l 1
 373 750 l 1xe9
504 63 m 1xda80
 504 0 l 1
 123 0 l 1
 123 63 l 1
 60 63 l 1
 60 631 l 1
 123 631 l 1
 123 693 l 1
 503 693 l 1
 503 631 l 1
 566 631 l 1
 566 63 l 1
 504 63 l 1xda80
435 625 m 1
 191 625 l 1
 191 68 l 1
 435 68 l 1
 435 625 l 1
EndSplineSet
Substitution2: "'c2sc' Capitals to Small Capitals in Latin lookup 2 subtable" ocircumflex.sc
Substitution2: "'aalt' Access All Alternates in Latin lookup 0 subtable" ocircumflex.sc
EndChar

StartChar: Otilde
Encoding: 213 213 148
Width: 626
GlyphClass: 2
Flags: MW
HStem: 0 68<191 435 191 504> 625 68<191 435 191 191> 750 68<185 248 185 254 185 248 316 373 185 310> 813 68<254 310 254 254 379 441 379 379>
VStem: 60 131<68 625 68 631 68 631> 185 69<750 813 750 818 750 818> 248 68<818 881 818 881> 310 69<750 813 750 813> 373 68<818 881 813 881> 435 131<68 625 625 625>
LayerCount: 2
Back
Fore
SplineSet
379 813 m 1xd940
 379 750 l 1
 310 750 l 1xe940
 310 813 l 1
 254 813 l 1xd540
 254 750 l 1
 185 750 l 1
 185 818 l 1xe440
 248 818 l 1xea40
 248 881 l 1
 316 881 l 1xda40
 316 818 l 1
 373 818 l 1xea80
 373 881 l 1
 441 881 l 1
 441 813 l 1xda80
 379 813 l 1xd940
504 63 m 1
 504 0 l 1
 123 0 l 1
 123 63 l 1
 60 63 l 1
 60 631 l 1
 123 631 l 1
 123 693 l 1
 503 693 l 1
 503 631 l 1
 566 631 l 1
 566 63 l 1
 504 63 l 1
435 625 m 1
 191 625 l 1
 191 68 l 1
 435 68 l 1
 435 625 l 1
EndSplineSet
Substitution2: "'c2sc' Capitals to Small Capitals in Latin lookup 2 subtable" otilde.sc
Substitution2: "'aalt' Access All Alternates in Latin lookup 0 subtable" otilde.sc
EndChar

StartChar: Odieresis
Encoding: 214 214 149
Width: 626
GlyphClass: 2
Flags: MW
HStem: 0 68<191 435 191 504> 625 68<191 435 191 191> 750 68<185 254 185 254 373 441>
VStem: 60 131<68 625 68 631 68 631> 185 69<750 818 750 818> 373 68<750 818 750 818> 435 131<68 625 625 625>
LayerCount: 2
Back
Fore
SplineSet
373 750 m 1xf2
 373 818 l 1
 441 818 l 1
 441 750 l 1
 373 750 l 1xf2
185 750 m 1
 185 818 l 1
 254 818 l 1
 254 750 l 1
 185 750 l 1
504 63 m 1
 504 0 l 1
 123 0 l 1
 123 63 l 1
 60 63 l 1xec
 60 631 l 1
 123 631 l 1
 123 693 l 1
 503 693 l 1
 503 631 l 1
 566 631 l 1
 566 63 l 1
 504 63 l 1
435 625 m 1
 191 625 l 1
 191 68 l 1
 435 68 l 1
 435 625 l 1
EndSplineSet
Substitution2: "'c2sc' Capitals to Small Capitals in Latin lookup 2 subtable" odieresis.sc
Substitution2: "'aalt' Access All Alternates in Latin lookup 0 subtable" odieresis.sc
EndChar

StartChar: multiply
Encoding: 215 215 150
Width: 563
GlyphClass: 2
Flags: MW
HStem: 63 68<60 123 60 128 60 123 441 503> 125 68<128 185 123 191 128 128 378 435> 188 68<191 248 185 253 191 191 316 373 185 310> 250 68<253 310 253 310> 313 68<191 248 185 253 316 316 316 373> 375 68<128 185 123 191 378 378 378 435> 438 68<60 123 60 128 441 441 441 503>
VStem: 60 68<63 125 63 131 63 131 443 506> 123 68<131 188 125 193 125 193 381 438 438 438> 185 68<193 250 188 256 188 256 318 375 375 375> 248 68<256 313 256 313> 310 68<193 250 250 250 318 375> 373 68<131 188 188 188 381 438> 435 68<63 125 125 125 443 506>
LayerCount: 2
Back
Fore
SplineSet
435 63 m 1xab54
 435 125 l 1x4b54
 373 125 l 1x4b48
 373 188 l 1xab48
 310 188 l 1xab54
 310 250 l 1
 253 250 l 1x9354
 253 188 l 1xab54
 191 188 l 1xaa94
 191 125 l 1x4a94
 128 125 l 1x4b54
 128 63 l 1
 60 63 l 1
 60 131 l 1xab54
 123 131 l 1xaa94
 123 193 l 1x4a94
 185 193 l 1x4b54
 185 256 l 1xab54
 248 256 l 1
 248 313 l 1xab24
 185 313 l 1xab54
 185 375 l 1xa554
 123 375 l 1xa494
 123 438 l 1xaa94
 60 438 l 1
 60 506 l 1
 128 506 l 1xab54
 128 443 l 1xa554
 191 443 l 1xa494
 191 381 l 1xaa94
 253 381 l 1xab54
 253 318 l 1
 310 318 l 1x9354
 310 381 l 1xab54
 373 381 l 1xab48
 373 443 l 1xa548
 435 443 l 1xa554
 435 506 l 1
 503 506 l 1
 503 438 l 1xab54
 441 438 l 1xab48
 441 375 l 1xa548
 378 375 l 1xa554
 378 313 l 1xab54
 316 313 l 1
 316 256 l 1xab24
 378 256 l 1xab54
 378 193 l 1x4b54
 441 193 l 1x4b48
 441 131 l 1xab48
 503 131 l 1
 503 63 l 1
 435 63 l 1xab54
EndSplineSet
EndChar

StartChar: Oslash
Encoding: 216 216 151
Width: 688
GlyphClass: 2
Flags: MW
HStem: 0 68<253 435 253 503> 125 68<60 122 60 122> 250 68<253 315 253 315> 313 68<310 378 310 378> 375 68<372 435 372 435> 500 68<565 628 565 628> 625 68<253 435 253 253>
VStem: 122 131<68 125 125 125 193 250 318 625> 310 68<313 381 313 381> 435 68<0 375>
LayerCount: 2
Back
Fore
SplineSet
565 500 m 1xd7c0
 565 63 l 1
 503 63 l 1
 503 0 l 1
 185 0 l 1
 185 63 l 1
 122 63 l 1
 122 125 l 1
 60 125 l 1
 60 193 l 1
 122 193 l 1
 122 631 l 1
 185 631 l 1
 185 693 l 1
 503 693 l 1
 503 631 l 1
 565 631 l 1
 565 568 l 1
 628 568 l 1
 628 500 l 1
 565 500 l 1xd7c0
435 375 m 1xefc0
 372 375 l 1
 372 443 l 1
 435 443 l 1
 435 625 l 1
 253 625 l 1
 253 318 l 1
 315 318 l 1
 315 250 l 1
 253 250 l 1
 253 68 l 1
 435 68 l 1
 435 375 l 1xefc0
310 313 m 1xd7c0
 310 381 l 1
 378 381 l 1
 378 313 l 1
 310 313 l 1xd7c0
EndSplineSet
EndChar

StartChar: Ugrave
Encoding: 217 217 152
Width: 564
GlyphClass: 2
Flags: MW
HStem: 0 68<191 310 191 316> 63 68<316 373 310 435 316 316> 673 20G<60 191 191 191 373 504 504 504> 750 68<248 316 253 316 253 316> 813 68<185 248 185 253>
VStem: 60 131<68 693 68 693 68 693> 185 68<818 881 818 881 818 881> 248 68<750 813 813 813> 373 131<131 693 0 693>
LayerCount: 2
Back
Fore
SplineSet
248 750 m 1xb580
 248 813 l 1xad80
 185 813 l 1
 185 881 l 1
 253 881 l 1xaa80
 253 818 l 1xb280
 316 818 l 1
 316 750 l 1
 248 750 l 1xb580
435 0 m 1
 435 63 l 1
 316 63 l 1x6d80
 316 0 l 1
 123 0 l 1xad80
 123 63 l 1
 60 63 l 1x6d80
 60 693 l 1
 191 693 l 1
 191 68 l 1
 310 68 l 1xad80
 310 131 l 1
 373 131 l 1x6d80
 373 693 l 1
 504 693 l 1
 504 0 l 1
 435 0 l 1
EndSplineSet
Substitution2: "'c2sc' Capitals to Small Capitals in Latin lookup 2 subtable" ugrave.sc
Substitution2: "'aalt' Access All Alternates in Latin lookup 0 subtable" ugrave.sc
EndChar

StartChar: Uacute
Encoding: 218 218 153
Width: 564
GlyphClass: 2
Flags: MW
HStem: 0 68<191 310 191 316> 63 68<316 373 310 435 316 316> 673 20G<60 191 191 191 373 504 504 504> 750 68<248 310 248 316 248 310> 813 68<316 316 316 379>
VStem: 60 131<68 693 68 693 68 693> 248 68<750 813> 310 69<818 881 813 881> 373 131<131 693 0 693>
LayerCount: 2
Back
Fore
SplineSet
316 813 m 1xae80
 316 750 l 1
 248 750 l 1
 248 818 l 1xb680
 310 818 l 1xb5
 310 881 l 1
 379 881 l 1
 379 813 l 1xad
 316 813 l 1xae80
435 0 m 1
 435 63 l 1
 316 63 l 1x6e80
 316 0 l 1
 123 0 l 1xae80
 123 63 l 1
 60 63 l 1x6e80
 60 693 l 1
 191 693 l 1
 191 68 l 1
 310 68 l 1xae80
 310 131 l 1
 373 131 l 1x6e80
 373 693 l 1
 504 693 l 1
 504 0 l 1
 435 0 l 1
EndSplineSet
Substitution2: "'c2sc' Capitals to Small Capitals in Latin lookup 2 subtable" uacute.sc
Substitution2: "'aalt' Access All Alternates in Latin lookup 0 subtable" uacute.sc
EndChar

StartChar: Ucircumflex
Encoding: 219 219 154
Width: 564
GlyphClass: 2
Flags: MW
HStem: 0 68<191 310 191 316> 63 68<316 373 310 435 316 316> 673 20G<60 191 191 191 373 504 504 504> 750 68<185 248 185 254 185 248 316 379 185 310> 813 68<254 310 254 254>
VStem: 60 131<68 693 68 693 68 693> 185 69<750 813 750 818 750 818> 248 68<818 881> 310 69<750 813 813 813> 373 131<131 693 0 693>
LayerCount: 2
Back
Fore
SplineSet
310 750 m 1xb540
 310 813 l 1
 254 813 l 1xaa40
 254 750 l 1
 185 750 l 1
 185 818 l 1xb240
 248 818 l 1xb540
 248 881 l 1
 316 881 l 1xad40
 316 818 l 1xb540
 379 818 l 1
 379 750 l 1xb480
 310 750 l 1xb540
435 0 m 1
 435 63 l 1
 316 63 l 1x7540
 316 0 l 1
 123 0 l 1xb540
 123 63 l 1
 60 63 l 1x7540
 60 693 l 1
 191 693 l 1
 191 68 l 1
 310 68 l 1xb540
 310 131 l 1
 373 131 l 1x7540
 373 693 l 1
 504 693 l 1
 504 0 l 1
 435 0 l 1
EndSplineSet
Substitution2: "'c2sc' Capitals to Small Capitals in Latin lookup 2 subtable" ucircumflex.sc
Substitution2: "'aalt' Access All Alternates in Latin lookup 0 subtable" ucircumflex.sc
EndChar

StartChar: Udieresis
Encoding: 220 220 155
Width: 564
GlyphClass: 2
Flags: MW
HStem: 0 68<191 310 191 316> 63 68<316 373 310 435 316 316> 673 20G<60 191 191 191 373 504 504 504> 750 68<185 254 185 254 185 310 310 379>
VStem: 60 131<68 693 68 693 68 693> 185 69<750 818 750 818> 310 69<750 818 750 818> 373 131<131 693 0 693>
LayerCount: 2
Back
Fore
SplineSet
310 750 m 1xb6
 310 818 l 1
 379 818 l 1
 379 750 l 1
 310 750 l 1xb6
185 750 m 1
 185 818 l 1
 254 818 l 1
 254 750 l 1
 185 750 l 1
435 0 m 1xb9
 435 63 l 1
 316 63 l 1x79
 316 0 l 1
 123 0 l 1xb9
 123 63 l 1
 60 63 l 1x79
 60 693 l 1
 191 693 l 1
 191 68 l 1
 310 68 l 1xb9
 310 131 l 1
 373 131 l 1x79
 373 693 l 1
 504 693 l 1
 504 0 l 1
 435 0 l 1xb9
EndSplineSet
Substitution2: "'c2sc' Capitals to Small Capitals in Latin lookup 2 subtable" udieresis.sc
Substitution2: "'aalt' Access All Alternates in Latin lookup 0 subtable" udieresis.sc
EndChar

StartChar: Yacute
Encoding: 221 221 156
Width: 626
GlyphClass: 2
Flags: MW
HStem: 0 21G<248 378 248 248> 313 68<185 373 253 441 253 378> 375 131<123 253 123 253> 500 193<60 123 60 191 503 566 503 503> 750 68<248 310 248 316 248 310> 813 68<316 316 316 378>
VStem: 123 68<375 693 500 693> 185 68<313 506 375 506> 248 68<750 813 750 818 750 818> 310 68<818 881> 373 68<313 506> 435 68<375 693>
LayerCount: 2
Back
Fore
SplineSet
316 813 m 1xd690
 316 750 l 1
 248 750 l 1
 248 818 l 1xda90
 310 818 l 1xda50
 310 881 l 1
 378 881 l 1
 378 813 l 1xd650
 316 813 l 1xd690
503 500 m 1
 503 375 l 1xa690
 441 375 l 1xa6a0
 441 313 l 1xd6a0
 378 313 l 1
 378 0 l 1xd650
 248 0 l 1
 248 313 l 1xd690
 185 313 l 1xd510
 185 375 l 1xa510
 123 375 l 1xa690
 123 500 l 1
 60 500 l 1
 60 693 l 1
 191 693 l 1xd690
 191 506 l 1xa690
 253 506 l 1xa510
 253 381 l 1
 373 381 l 1xd520
 373 506 l 1xa6a0
 435 506 l 1xa690
 435 693 l 1
 566 693 l 1
 566 500 l 1
 503 500 l 1
EndSplineSet
Substitution2: "'c2sc' Capitals to Small Capitals in Latin lookup 2 subtable" yacute.sc
Substitution2: "'aalt' Access All Alternates in Latin lookup 0 subtable" yacute.sc
EndChar

StartChar: Thorn
Encoding: 222 222 157
Width: 501
GlyphClass: 2
Flags: MW
HStem: 0 21G<60 191 60 60> 188 68<191 310 191 378 191 310> 250 256<378 441 378 441> 500 68<191 310 191 378> 500 193<60 310 60 191>
VStem: 60 131<0 188 0 256 256 500 568 693> 310 131<256 500 500 500>
LayerCount: 2
Back
Fore
SplineSet
378 250 m 1xa6
 378 188 l 1
 191 188 l 1
 191 0 l 1
 60 0 l 1
 60 693 l 1
 191 693 l 1xce
 191 568 l 1
 378 568 l 1xd6
 378 506 l 1
 441 506 l 1
 441 250 l 1
 378 250 l 1xa6
310 500 m 1xd6
 191 500 l 1
 191 256 l 1
 310 256 l 1
 310 500 l 1xd6
EndSplineSet
EndChar

StartChar: germandbls
Encoding: 223 223 158
Width: 688
GlyphClass: 2
Flags: MW
HStem: -187 68<60 122 60 190 60 122> 0 68<440 497 440 565> 63 130<310 372 310 440 310 628 310 565> 250 68<440 497> 313 193<310 372 310 372> 500 68<60 122 60 122> 563 130<503 565> 688 68<253 435 253 253>
VStem: 122 131<-119 500 500 500 568 688 -125 693 -125 693> 372 68<0 193 63 193 68 313> 435 68<500 688> 497 68<0 250>
LayerCount: 2
Back
Fore
SplineSet
565 63 m 1xb5d0
 565 0 l 1
 372 0 l 1xd5d0
 372 63 l 1
 310 63 l 1
 310 193 l 1
 440 193 l 1xb5d0
 440 68 l 1
 497 68 l 1
 497 250 l 1
 372 250 l 1xd5d0
 372 313 l 1
 310 313 l 1
 310 506 l 1
 372 506 l 1xc9d0
 372 568 l 1xd5d0
 435 568 l 1
 435 688 l 1
 253 688 l 1
 253 566 l 1
 253 -125 l 1
 190 -125 l 1
 190 -187 l 1
 60 -187 l 1
 60 -119 l 1
 122 -119 l 1
 122 500 l 1
 60 500 l 1
 60 568 l 1
 122 568 l 1xd5a0
 122 693 l 1
 185 693 l 1xd2d0
 185 756 l 1
 437 756 l 1
 503 756 l 1xd5a0
 503 693 l 1xd2a0
 565 693 l 1
 565 563 l 1xd2d0
 503 563 l 1xd2a0
 503 500 l 1xd5a0
 440 500 l 1
 440 318 l 1
 565 318 l 1
 565 256 l 1
 628 256 l 1
 628 63 l 1
 565 63 l 1xb5d0
EndSplineSet
EndChar

StartChar: agrave
Encoding: 224 224 159
Width: 501
GlyphClass: 2
Flags: MW
HStem: 0 68<191 310 191 316 191 441 191 373> 63 193<60 123 60 123> 250 68<191 310 191 191> 375 131<60 123 60 191 60 123> 500 68<191 310 191 191> 625 68<248 316 253 316 253 316> 688 68<185 248 185 253>
VStem: 123 68<0 250 63 250 68 318> 185 68<693 756 693 756 693 756> 248 68<625 688 688 688> 310 131<68 250 250 250 318 500 500 500>
LayerCount: 2
Back
Fore
SplineSet
248 625 m 1xad40
 248 688 l 1xab40
 185 688 l 1
 185 756 l 1
 253 756 l 1xaaa0
 253 693 l 1xaca0
 316 693 l 1
 316 625 l 1
 248 625 l 1xad40
373 0 m 1xb320
 373 63 l 1xab20
 316 63 l 1
 316 0 l 1
 123 0 l 1xab40
 123 63 l 1
 60 63 l 1
 60 256 l 1
 123 256 l 1x4b20
 123 318 l 1
 310 318 l 1
 310 500 l 1
 191 500 l 1xab20
 191 375 l 1
 60 375 l 1
 60 506 l 1
 123 506 l 1xb320
 123 568 l 1
 378 568 l 1xab20
 378 506 l 1
 441 506 l 1
 441 0 l 1
 373 0 l 1xb320
310 250 m 1
 191 250 l 1
 191 68 l 1
 310 68 l 1
 310 250 l 1
EndSplineSet
Substitution2: "'smcp' Lowercase to Small Capitals in Latin lookup 1 subtable" agrave.sc
Substitution2: "'aalt' Access All Alternates in Latin lookup 0 subtable" agrave.sc
EndChar

StartChar: aacute
Encoding: 225 225 160
Width: 501
GlyphClass: 2
Flags: MW
HStem: 0 68<191 310 191 316 191 441 191 373> 63 193<60 123 60 123> 250 68<191 310 191 191> 375 131<60 123 60 191 60 123> 500 68<191 310 191 191> 625 68<185 248 185 254 185 248> 688 68<254 254 254 316>
VStem: 123 68<0 250 63 250 68 318> 185 69<625 688 625 693 625 693> 248 68<693 756> 310 131<68 250 250 250 318 500 500 500>
LayerCount: 2
Back
Fore
SplineSet
254 688 m 1xaaa0
 254 625 l 1
 185 625 l 1
 185 693 l 1xb4a0
 248 693 l 1xad40
 248 756 l 1
 316 756 l 1
 316 688 l 1xab40
 254 688 l 1xaaa0
373 0 m 1
 373 63 l 1xad20
 316 63 l 1
 316 0 l 1
 123 0 l 1xad40
 123 63 l 1
 60 63 l 1
 60 256 l 1
 123 256 l 1x4d20
 123 318 l 1
 310 318 l 1
 310 500 l 1
 191 500 l 1xad20
 191 375 l 1
 60 375 l 1
 60 506 l 1
 123 506 l 1xb520
 123 568 l 1
 378 568 l 1xad20
 378 506 l 1
 441 506 l 1
 441 0 l 1
 373 0 l 1
310 250 m 1
 191 250 l 1
 191 68 l 1
 310 68 l 1
 310 250 l 1
EndSplineSet
Substitution2: "'smcp' Lowercase to Small Capitals in Latin lookup 1 subtable" aacute.sc
Substitution2: "'aalt' Access All Alternates in Latin lookup 0 subtable" aacute.sc
EndChar

StartChar: acircumflex
Encoding: 226 226 161
Width: 501
GlyphClass: 2
Flags: MW
HStem: 0 68<191 310 191 316 191 441 191 373> 63 193<60 123 60 123> 250 68<191 310 191 191> 375 131<60 123 60 191 60 123> 500 68<191 310 191 191> 625 68<123 185 123 191 123 185 316 379> 688 68<191 310 191 191>
VStem: 123 68<0 250 63 250 68 318 625 688> 185 131<693 756> 310 131<68 250 250 250 318 500 500 500 0 688>
LayerCount: 2
Back
Fore
SplineSet
310 625 m 1xad40
 310 688 l 1
 191 688 l 1xb340
 191 625 l 1
 123 625 l 1
 123 693 l 1xad40
 185 693 l 1xac80
 185 756 l 1
 316 756 l 1xaa80
 316 693 l 1xac80
 379 693 l 1
 379 625 l 1
 310 625 l 1xad40
373 0 m 1
 373 63 l 1xab40
 316 63 l 1
 316 0 l 1xaa80
 123 0 l 1xab40
 123 63 l 1
 60 63 l 1
 60 256 l 1
 123 256 l 1x4b40
 123 318 l 1
 310 318 l 1
 310 500 l 1
 191 500 l 1xab40
 191 375 l 1
 60 375 l 1
 60 506 l 1
 123 506 l 1xb340
 123 568 l 1
 378 568 l 1xab40
 378 506 l 1
 441 506 l 1
 441 0 l 1
 373 0 l 1
310 250 m 1
 191 250 l 1
 191 68 l 1
 310 68 l 1
 310 250 l 1
EndSplineSet
Substitution2: "'smcp' Lowercase to Small Capitals in Latin lookup 1 subtable" acircumflex.sc
Substitution2: "'aalt' Access All Alternates in Latin lookup 0 subtable" acircumflex.sc
EndChar

StartChar: atilde
Encoding: 227 227 162
Width: 501
GlyphClass: 2
Flags: MW
HStem: 0 68<191 310 191 316 191 441 191 373> 63 193<60 123 60 123> 250 68<191 310 191 191> 375 131<60 123 60 191 60 123> 500 68<191 310 191 191> 625 68<123 185 123 191 123 185 253 310 123 248> 688 68<191 248 191 191 316 379 316 316>
VStem: 123 68<0 250 63 250 68 318 625 688> 185 68<693 756 693 756> 248 68<625 688> 310 131<68 250 250 250 318 500 500 500>
LayerCount: 2
Back
Fore
SplineSet
316 688 m 1xab40
 316 625 l 1
 248 625 l 1xad40
 248 688 l 1
 191 688 l 1xab40
 191 625 l 1
 123 625 l 1
 123 693 l 1xad20
 185 693 l 1xaca0
 185 756 l 1
 253 756 l 1xaaa0
 253 693 l 1
 310 693 l 1xaca0
 310 756 l 1
 379 756 l 1
 379 688 l 1xab20
 316 688 l 1xab40
373 0 m 1xb320
 373 63 l 1xab20
 316 63 l 1
 316 0 l 1
 123 0 l 1xab40
 123 63 l 1
 60 63 l 1
 60 256 l 1
 123 256 l 1x4b20
 123 318 l 1
 310 318 l 1
 310 500 l 1
 191 500 l 1xab20
 191 375 l 1
 60 375 l 1
 60 506 l 1
 123 506 l 1xb320
 123 568 l 1
 378 568 l 1xab20
 378 506 l 1
 441 506 l 1
 441 0 l 1
 373 0 l 1xb320
310 250 m 1
 191 250 l 1
 191 68 l 1
 310 68 l 1
 310 250 l 1
EndSplineSet
Substitution2: "'smcp' Lowercase to Small Capitals in Latin lookup 1 subtable" atilde.sc
Substitution2: "'aalt' Access All Alternates in Latin lookup 0 subtable" atilde.sc
EndChar

StartChar: adieresis
Encoding: 228 228 163
Width: 501
GlyphClass: 2
Flags: MW
HStem: 0 68<191 310 191 316 191 441 191 373> 63 193<60 123 60 123> 250 68<191 310 191 191> 375 131<60 123 60 191 60 123> 500 68<191 310 191 191> 625 68<123 191 123 191 310 379>
VStem: 123 68<0 250 63 250 68 318 625 693> 310 131<68 250 250 250 318 500 500 500 0 693>
LayerCount: 2
Back
Fore
SplineSet
310 625 m 1xaf
 310 693 l 1
 379 693 l 1xb7
 379 625 l 1
 310 625 l 1xaf
123 625 m 1xaf
 123 693 l 1
 191 693 l 1xb7
 191 625 l 1
 123 625 l 1xaf
373 0 m 1
 373 63 l 1
 316 63 l 1
 316 0 l 1
 123 0 l 1
 123 63 l 1
 60 63 l 1
 60 256 l 1
 123 256 l 1
 123 318 l 1
 310 318 l 1
 310 500 l 1
 191 500 l 1xaf
 191 375 l 1
 60 375 l 1
 60 506 l 1
 123 506 l 1x4f
 123 568 l 1
 378 568 l 1
 378 506 l 1
 441 506 l 1xaf
 441 0 l 1
 373 0 l 1
310 250 m 1
 191 250 l 1
 191 68 l 1
 310 68 l 1
 310 250 l 1
EndSplineSet
Substitution2: "'smcp' Lowercase to Small Capitals in Latin lookup 1 subtable" adieresis.sc
Substitution2: "'aalt' Access All Alternates in Latin lookup 0 subtable" adieresis.sc
EndChar

StartChar: aring
Encoding: 229 229 164
Width: 501
GlyphClass: 2
Flags: MW
HStem: 0 68<191 310 191 316 191 441 191 373> 63 193<60 123 60 123> 250 68<191 310 191 191> 375 131<60 123 60 191 60 123> 500 68<191 310 191 191> 625 68<191 310 191 316 185 310> 688 68<123 185 123 185 316 379> 750 68<191 310 191 191>
VStem: 123 68<0 250 63 250 68 318 693 750> 185 131<625 688 756 818> 310 131<68 250 250 250 318 500 500 500>
LayerCount: 2
Back
Fore
SplineSet
316 688 m 1xada0
 316 625 l 1
 185 625 l 1xada0
 185 688 l 1
 123 688 l 1
 123 756 l 1
 185 756 l 1xb5a0
 185 818 l 1
 316 818 l 1xada0
 316 756 l 1
 379 756 l 1xb5a0
 379 688 l 1
 316 688 l 1xada0
373 0 m 1
 373 63 l 1
 316 63 l 1xad40
 316 0 l 1xaa40
 123 0 l 1
 123 63 l 1xaaa0
 60 63 l 1xaa40
 60 256 l 1
 123 256 l 1xad40
 123 318 l 1xaa40
 310 318 l 1
 310 500 l 1xaaa0
 191 500 l 1xaa40
 191 375 l 1xada0
 60 375 l 1
 60 506 l 1xad40
 123 506 l 1xada0
 123 568 l 1
 378 568 l 1
 378 506 l 1
 441 506 l 1x4da0
 441 0 l 1
 373 0 l 1
310 750 m 1xada0
 191 750 l 1
 191 693 l 1
 310 693 l 1
 310 750 l 1xada0
310 250 m 1
 191 250 l 1
 191 68 l 1
 310 68 l 1
 310 250 l 1
EndSplineSet
Substitution2: "'smcp' Lowercase to Small Capitals in Latin lookup 1 subtable" aring.sc
Substitution2: "'aalt' Access All Alternates in Latin lookup 0 subtable" aring.sc
EndChar

StartChar: ae
Encoding: 230 230 165
Width: 751
GlyphClass: 2
Flags: MW
HStem: 0 68<191 310 191 316 441 560 191 373> 63 130<629 691 629 629> 63 193<60 123 60 123> 250 68<191 310 191 191 441 560> 313 193<629 691 629 629> 375 131<60 123 60 191 60 123> 500 68<191 310 191 191 441 441 441 560>
VStem: 123 68<0 250 63 250 68 318> 310 131<68 250 68 250 318 500> 560 131<68 193 63 193 318 500 500 500>
LayerCount: 2
Back
Fore
SplineSet
629 63 m 1x53c0
 629 0 l 1
 373 0 l 1x93c0
 373 63 l 1
 316 63 l 1x53c0
 316 0 l 1
 123 0 l 1x93c0
 123 63 l 1
 60 63 l 1
 60 256 l 1
 123 256 l 1x23c0
 123 318 l 1
 310 318 l 1
 310 500 l 1
 191 500 l 1x93c0
 191 375 l 1
 60 375 l 1
 60 506 l 1
 123 506 l 1x95c0
 123 568 l 1
 628 568 l 1x93c0
 628 506 l 1
 691 506 l 1
 691 313 l 1
 629 313 l 1x89c0
 629 250 l 1
 441 250 l 1
 441 68 l 1
 560 68 l 1x93c0
 560 193 l 1
 691 193 l 1
 691 63 l 1
 629 63 l 1x53c0
560 500 m 1
 441 500 l 1
 441 318 l 1
 560 318 l 1
 560 500 l 1
310 250 m 1
 191 250 l 1
 191 68 l 1
 310 68 l 1
 310 250 l 1
EndSplineSet
Substitution2: "'smcp' Lowercase to Small Capitals in Latin lookup 1 subtable" ae.sc
Substitution2: "'aalt' Access All Alternates in Latin lookup 0 subtable" ae.sc
EndChar

StartChar: ccedilla
Encoding: 231 231 166
Width: 501
GlyphClass: 2
Flags: MW
HStem: -187 68<123 248 123 254 123 248> -125 68<254 316 254 254> 0 68<123 310 253 310 191 379 253 253> 63 130<379 441 379 379> 375 131<378 441> 500 68<191 310 191 191>
VStem: 60 131<68 500 68 506 68 506> 185 68<-57 0 -57 0 -57 0> 248 68<-119 -62 -62 -62> 310 131<68 193 63 193 375 500 500 500>
LayerCount: 2
Back
Fore
SplineSet
379 63 m 1x9640
 379 0 l 1
 253 0 l 1
 253 -57 l 1x6540
 316 -57 l 1
 316 -125 l 1
 254 -125 l 1x6680
 254 -187 l 1
 123 -187 l 1
 123 -119 l 1
 248 -119 l 1
 248 -62 l 1xa680
 185 -62 l 1
 185 0 l 1xa540
 123 0 l 1xa640
 123 63 l 1
 60 63 l 1
 60 506 l 1
 123 506 l 1x9a40
 123 568 l 1
 378 568 l 1xa640
 378 506 l 1
 441 506 l 1
 441 375 l 1
 310 375 l 1xaa40
 310 500 l 1
 191 500 l 1
 191 68 l 1
 310 68 l 1xa640
 310 193 l 1
 441 193 l 1
 441 63 l 1
 379 63 l 1x9640
EndSplineSet
Substitution2: "'smcp' Lowercase to Small Capitals in Latin lookup 1 subtable" ccedilla.sc
Substitution2: "'aalt' Access All Alternates in Latin lookup 0 subtable" ccedilla.sc
EndChar

StartChar: egrave
Encoding: 232 232 167
Width: 501
GlyphClass: 2
Flags: MW
HStem: 0 68<191 310 191 379> 63 130<379 441 379 379> 250 68<191 310 191 379 191 310> 313 193<379 441 379 379> 500 68<191 310 191 191> 625 68<248 316 253 316 253 316> 688 68<185 248 185 253>
VStem: 60 131<68 250 68 318 318 500> 185 68<693 756 693 756 693 756> 248 68<625 688 688 688> 310 131<68 193 63 193 318 500 500 500>
LayerCount: 2
Back
Fore
SplineSet
248 625 m 1xad40
 248 688 l 1xab40
 185 688 l 1
 185 756 l 1
 253 756 l 1xaaa0
 253 693 l 1xaca0
 316 693 l 1
 316 625 l 1
 248 625 l 1xad40
379 63 m 1x6b20
 379 0 l 1
 123 0 l 1xab20
 123 63 l 1
 60 63 l 1
 60 506 l 1
 123 506 l 1
 123 568 l 1
 378 568 l 1x6b20
 378 506 l 1
 441 506 l 1
 441 313 l 1
 379 313 l 1x9320
 379 250 l 1
 191 250 l 1
 191 68 l 1
 310 68 l 1xab20
 310 193 l 1
 441 193 l 1
 441 63 l 1
 379 63 l 1x6b20
310 500 m 1
 191 500 l 1
 191 318 l 1
 310 318 l 1
 310 500 l 1
EndSplineSet
Substitution2: "'smcp' Lowercase to Small Capitals in Latin lookup 1 subtable" egrave.sc
Substitution2: "'aalt' Access All Alternates in Latin lookup 0 subtable" egrave.sc
EndChar

StartChar: eacute
Encoding: 233 233 168
Width: 501
GlyphClass: 2
Flags: MW
HStem: 0 68<191 310 191 379> 63 130<379 441 379 379> 250 68<191 310 191 379 191 310> 313 193<379 441 379 379> 500 68<191 310 191 191> 625 68<185 248 185 254 185 248> 688 68<254 254 254 316>
VStem: 60 131<68 250 68 318 318 500> 185 69<625 688 625 693 625 693> 248 68<693 756 688 756> 310 131<68 193 63 193 318 500 500 500>
LayerCount: 2
Back
Fore
SplineSet
254 688 m 1xaaa0
 254 625 l 1
 185 625 l 1
 185 693 l 1x6ca0
 248 693 l 1xad40
 248 756 l 1
 316 756 l 1
 316 688 l 1xab40
 254 688 l 1xaaa0
379 63 m 1
 379 0 l 1
 123 0 l 1xad20
 123 63 l 1
 60 63 l 1
 60 506 l 1
 123 506 l 1
 123 568 l 1
 378 568 l 1x6d20
 378 506 l 1
 441 506 l 1
 441 313 l 1
 379 313 l 1x9520
 379 250 l 1
 191 250 l 1
 191 68 l 1
 310 68 l 1xad20
 310 193 l 1
 441 193 l 1
 441 63 l 1
 379 63 l 1
310 500 m 1
 191 500 l 1
 191 318 l 1
 310 318 l 1
 310 500 l 1
EndSplineSet
Substitution2: "'smcp' Lowercase to Small Capitals in Latin lookup 1 subtable" eacute.sc
Substitution2: "'aalt' Access All Alternates in Latin lookup 0 subtable" eacute.sc
EndChar

StartChar: ecircumflex
Encoding: 234 234 169
Width: 501
GlyphClass: 2
Flags: MW
HStem: 0 68<191 310 191 379> 63 130<379 441 379 379> 250 68<191 310 191 379 191 310> 313 193<379 441 379 379> 500 68<191 310 191 191> 625 68<123 185 123 191 123 185 316 379> 688 68<191 310 191 191>
VStem: 60 131<68 250 68 318 318 500> 185 131<693 756 693 756> 310 131<68 193 63 193 318 500 500 500>
LayerCount: 2
Back
Fore
SplineSet
310 625 m 1xad40
 310 688 l 1
 191 688 l 1x6b40
 191 625 l 1
 123 625 l 1
 123 693 l 1xad40
 185 693 l 1xac80
 185 756 l 1
 316 756 l 1xaa80
 316 693 l 1xac80
 379 693 l 1
 379 625 l 1
 310 625 l 1xad40
379 63 m 1
 379 0 l 1
 123 0 l 1xab40
 123 63 l 1
 60 63 l 1
 60 506 l 1
 123 506 l 1
 123 568 l 1
 378 568 l 1x6b40
 378 506 l 1
 441 506 l 1
 441 313 l 1
 379 313 l 1x9340
 379 250 l 1
 191 250 l 1
 191 68 l 1
 310 68 l 1xab40
 310 193 l 1
 441 193 l 1
 441 63 l 1
 379 63 l 1
310 500 m 1
 191 500 l 1
 191 318 l 1
 310 318 l 1
 310 500 l 1
EndSplineSet
Substitution2: "'smcp' Lowercase to Small Capitals in Latin lookup 1 subtable" ecircumflex.sc
Substitution2: "'aalt' Access All Alternates in Latin lookup 0 subtable" ecircumflex.sc
EndChar

StartChar: edieresis
Encoding: 235 235 170
Width: 501
GlyphClass: 2
Flags: MW
HStem: 0 68<191 310 191 379> 63 130<379 441 379 379> 250 68<191 310 191 379 191 310> 313 193<379 441 379 379> 500 68<191 310 191 191> 625 68<123 191 123 191 310 379>
VStem: 60 131<68 250 68 318 318 500> 310 131<68 193 63 193 318 500 500 500>
LayerCount: 2
Back
Fore
SplineSet
310 625 m 1x6f
 310 693 l 1
 379 693 l 1
 379 625 l 1
 310 625 l 1x6f
123 625 m 1xaf
 123 693 l 1
 191 693 l 1
 191 625 l 1
 123 625 l 1xaf
379 63 m 1x97
 379 0 l 1
 123 0 l 1
 123 63 l 1
 60 63 l 1
 60 506 l 1
 123 506 l 1
 123 568 l 1
 378 568 l 1
 378 506 l 1
 441 506 l 1xaf
 441 313 l 1
 379 313 l 1
 379 250 l 1
 191 250 l 1
 191 68 l 1
 310 68 l 1x6f
 310 193 l 1
 441 193 l 1
 441 63 l 1
 379 63 l 1x97
310 500 m 1
 191 500 l 1
 191 318 l 1
 310 318 l 1
 310 500 l 1
EndSplineSet
Substitution2: "'smcp' Lowercase to Small Capitals in Latin lookup 1 subtable" edieresis.sc
Substitution2: "'aalt' Access All Alternates in Latin lookup 0 subtable" edieresis.sc
EndChar

StartChar: igrave
Encoding: 236 236 171
Width: 251
GlyphClass: 2
Flags: MW
HStem: 0 21G<60 60 60 191> 548 20G<60 191 191 191> 625 68<123 191 128 191 128 191> 688 68<60 123 60 128>
VStem: 60 131<0 568 0 568 688 693 0 756>
LayerCount: 2
Back
Fore
SplineSet
123 625 m 1xe8
 123 688 l 1
 60 688 l 1
 60 756 l 1
 128 756 l 1xd8
 128 693 l 1
 191 693 l 1
 191 625 l 1
 123 625 l 1xe8
60 0 m 1
 60 568 l 1
 191 568 l 1
 191 0 l 1
 60 0 l 1
EndSplineSet
Substitution2: "'smcp' Lowercase to Small Capitals in Latin lookup 1 subtable" igrave.sc
Substitution2: "'aalt' Access All Alternates in Latin lookup 0 subtable" igrave.sc
EndChar

StartChar: iacute
Encoding: 237 237 172
Width: 251
GlyphClass: 2
Flags: MW
HStem: 0 21G<60 60 60 191> 548 20G<60 191 191 191> 625 68<60 123 60 128 60 123> 688 68<128 128 128 191>
VStem: 60 131<0 568 0 568 688 693 693 693>
LayerCount: 2
Back
Fore
SplineSet
128 688 m 1xd8
 128 625 l 1
 60 625 l 1
 60 693 l 1
 123 693 l 1xe8
 123 756 l 1
 191 756 l 1
 191 688 l 1
 128 688 l 1xd8
60 0 m 1
 60 568 l 1
 191 568 l 1
 191 0 l 1
 60 0 l 1
EndSplineSet
Substitution2: "'smcp' Lowercase to Small Capitals in Latin lookup 1 subtable" iacute.sc
Substitution2: "'aalt' Access All Alternates in Latin lookup 0 subtable" iacute.sc
EndChar

StartChar: icircumflex
Encoding: 238 238 173
Width: 251
GlyphClass: 2
Flags: MW
HStem: 0 21G<60 60 60 191> 548 20G<60 191 191 191> 625 68<-2 60 -2 66 -2 60 191 253> 688 68<66 185 66 66>
VStem: -2 68<625 688 625 693 625 693> 60 131<0 568 0 568 693 756> 185 68<625 688 688 688>
LayerCount: 2
Back
Fore
SplineSet
185 625 m 1xe2
 185 688 l 1
 66 688 l 1xda
 66 625 l 1
 -2 625 l 1
 -2 693 l 1xe8
 60 693 l 1xe4
 60 756 l 1
 191 756 l 1xd4
 191 693 l 1xe4
 253 693 l 1
 253 625 l 1
 185 625 l 1xe2
60 0 m 1xd4
 60 568 l 1
 191 568 l 1
 191 0 l 1
 60 0 l 1xd4
EndSplineSet
Substitution2: "'smcp' Lowercase to Small Capitals in Latin lookup 1 subtable" icircumflex.sc
Substitution2: "'aalt' Access All Alternates in Latin lookup 0 subtable" icircumflex.sc
EndChar

StartChar: idieresis
Encoding: 239 239 174
Width: 251
GlyphClass: 2
Flags: MW
HStem: 0 21G<60 60 60 191> 548 20G<60 191 191 191> 625 68<-2 66 -2 66 185 253>
VStem: -2 68<625 693 625 693> 60 131<0 568 0 568> 185 68<625 693 625 693>
LayerCount: 2
Back
Fore
SplineSet
185 625 m 1xf4
 185 693 l 1
 253 693 l 1
 253 625 l 1
 185 625 l 1xf4
-2 625 m 1
 -2 693 l 1
 66 693 l 1
 66 625 l 1
 -2 625 l 1
60 0 m 1xe8
 60 568 l 1
 191 568 l 1
 191 0 l 1
 60 0 l 1xe8
EndSplineSet
Substitution2: "'smcp' Lowercase to Small Capitals in Latin lookup 1 subtable" idieresis.sc
Substitution2: "'aalt' Access All Alternates in Latin lookup 0 subtable" idieresis.sc
EndChar

StartChar: eth
Encoding: 240 240 175
Width: 501
GlyphClass: 2
Flags: MW
HStem: 0 68<191 310 191 316> 63 193<60 123 60 123> 313 68<191 310 191 191> 438 68<185 248 185 253 185 248> 500 68<253 310 253 310> 563 68<185 248 185 253 316 316 316 378>
VStem: 123 68<0 313 63 313 256 313 68 318 68 318> 185 68<318 500 381 500 438 500 438 506 438 506 568 631> 248 68<506 563> 310 68<68 125 63 313 443 500 500 500 568 631>
LayerCount: 2
Back
Fore
SplineSet
378 125 m 1xb640
 378 63 l 1xb640
 316 63 l 1
 316 0 l 1
 123 0 l 1xb680
 123 63 l 1
 60 63 l 1
 60 256 l 1
 123 256 l 1
 123 318 l 1x7640
 185 318 l 1
 185 381 l 1
 310 381 l 1
 310 500 l 1
 253 500 l 1x6940
 253 438 l 1
 185 438 l 1
 185 506 l 1xb540
 248 506 l 1
 248 563 l 1xb680
 185 563 l 1
 185 631 l 1
 253 631 l 1xb540
 253 568 l 1
 310 568 l 1xa940
 310 631 l 1
 378 631 l 1
 378 563 l 1xb640
 316 563 l 1
 316 506 l 1xb680
 378 506 l 1
 378 443 l 1
 441 443 l 1
 441 125 l 1
 378 125 l 1xb640
310 313 m 1
 191 313 l 1
 191 68 l 1
 310 68 l 1
 310 313 l 1
EndSplineSet
EndChar

StartChar: ntilde
Encoding: 241 241 176
Width: 501
GlyphClass: 2
Flags: MW
HStem: 0 21G<60 191 60 60 310 441 310 310> 438 68<191 248 128 254 191 191> 500 68<254 310 254 254> 625 68<123 185 123 191 123 185 253 310 123 248> 688 68<191 248 191 191 316 379 316 316>
VStem: 60 131<0 438 0 568 0 568> 185 68<693 756 693 756> 248 68<506 688 568 688 625 688 625 688> 310 131<0 500 500 500>
LayerCount: 2
Back
Fore
SplineSet
316 688 m 1xad
 316 625 l 1
 248 625 l 1xb5
 248 688 l 1
 191 688 l 1xad
 191 625 l 1
 123 625 l 1
 123 693 l 1xb480
 185 693 l 1xb280
 185 756 l 1
 253 756 l 1xaa80
 253 693 l 1
 310 693 l 1xb280
 310 756 l 1
 379 756 l 1
 379 688 l 1xac80
 316 688 l 1xad
310 0 m 1xcc80
 310 500 l 1
 254 500 l 1xac80
 254 438 l 1
 191 438 l 1xcc80
 191 0 l 1
 60 0 l 1
 60 568 l 1
 128 568 l 1xac80
 128 506 l 1
 248 506 l 1xcd
 248 568 l 1xad
 378 568 l 1xac80
 378 506 l 1
 441 506 l 1
 441 0 l 1
 310 0 l 1xcc80
EndSplineSet
Substitution2: "'smcp' Lowercase to Small Capitals in Latin lookup 1 subtable" ntilde.sc
Substitution2: "'aalt' Access All Alternates in Latin lookup 0 subtable" ntilde.sc
EndChar

StartChar: ograve
Encoding: 242 242 177
Width: 501
GlyphClass: 2
Flags: MW
HStem: 0 68<191 310 191 379> 500 68<191 310 191 191> 625 68<248 316 253 316 253 316> 688 68<185 248 185 253>
VStem: 60 131<68 500 68 506 68 506> 185 68<693 756 693 756 693 756> 248 68<625 688 688 688> 310 131<68 500 500 500>
LayerCount: 2
Back
Fore
SplineSet
248 625 m 1xea
 248 688 l 1xda
 185 688 l 1
 185 756 l 1
 253 756 l 1xd5
 253 693 l 1xe5
 316 693 l 1
 316 625 l 1
 248 625 l 1xea
379 63 m 1xd9
 379 0 l 1
 123 0 l 1
 123 63 l 1
 60 63 l 1
 60 506 l 1
 123 506 l 1
 123 568 l 1
 378 568 l 1
 378 506 l 1
 441 506 l 1
 441 63 l 1
 379 63 l 1xd9
310 500 m 1
 191 500 l 1
 191 68 l 1
 310 68 l 1
 310 500 l 1
EndSplineSet
Substitution2: "'smcp' Lowercase to Small Capitals in Latin lookup 1 subtable" ograve.sc
Substitution2: "'aalt' Access All Alternates in Latin lookup 0 subtable" ograve.sc
EndChar

StartChar: oacute
Encoding: 243 243 178
Width: 501
GlyphClass: 2
Flags: MW
HStem: 0 68<191 310 191 379> 500 68<191 310 191 191> 625 68<185 248 185 254 185 248> 688 68<254 254 254 316>
VStem: 60 131<68 500 68 506 68 506> 185 69<625 688 625 693 625 693> 248 68<693 756 688 756> 310 131<68 500 500 500>
LayerCount: 2
Back
Fore
SplineSet
254 688 m 1xd5
 254 625 l 1
 185 625 l 1
 185 693 l 1xe5
 248 693 l 1xea
 248 756 l 1
 316 756 l 1
 316 688 l 1xda
 254 688 l 1xd5
379 63 m 1
 379 0 l 1
 123 0 l 1
 123 63 l 1
 60 63 l 1
 60 506 l 1
 123 506 l 1
 123 568 l 1xe9
 378 568 l 1
 378 506 l 1
 441 506 l 1
 441 63 l 1
 379 63 l 1
310 500 m 1
 191 500 l 1
 191 68 l 1
 310 68 l 1
 310 500 l 1
EndSplineSet
Substitution2: "'smcp' Lowercase to Small Capitals in Latin lookup 1 subtable" oacute.sc
Substitution2: "'aalt' Access All Alternates in Latin lookup 0 subtable" oacute.sc
EndChar

StartChar: ocircumflex
Encoding: 244 244 179
Width: 501
GlyphClass: 2
Flags: MW
HStem: 0 68<191 310 191 379> 500 68<191 310 191 191> 625 68<123 185 123 191 123 185 316 379> 688 68<191 310 191 191>
VStem: 60 131<68 500 68 506 68 506> 185 131<693 756 693 756> 310 131<68 500 500 500 63 688>
LayerCount: 2
Back
Fore
SplineSet
310 625 m 1xea
 310 688 l 1
 191 688 l 1xda
 191 625 l 1
 123 625 l 1
 123 693 l 1xea
 185 693 l 1xe4
 185 756 l 1
 316 756 l 1xd4
 316 693 l 1xe4
 379 693 l 1
 379 625 l 1
 310 625 l 1xea
379 63 m 1
 379 0 l 1
 123 0 l 1
 123 63 l 1
 60 63 l 1
 60 506 l 1
 123 506 l 1
 123 568 l 1
 378 568 l 1
 378 506 l 1
 441 506 l 1
 441 63 l 1
 379 63 l 1
310 500 m 1
 191 500 l 1
 191 68 l 1
 310 68 l 1
 310 500 l 1
EndSplineSet
Substitution2: "'smcp' Lowercase to Small Capitals in Latin lookup 1 subtable" ocircumflex.sc
Substitution2: "'aalt' Access All Alternates in Latin lookup 0 subtable" ocircumflex.sc
EndChar

StartChar: otilde
Encoding: 245 245 180
Width: 501
GlyphClass: 2
Flags: MW
HStem: 0 68<191 310 191 379> 500 68<191 310 191 191> 625 68<123 185 123 191 123 185 253 310 123 248> 688 68<191 248 191 191 316 379 316 316>
VStem: 60 131<68 500 68 506 68 506> 185 68<693 756 693 756> 248 68<625 688 625 688> 310 131<68 500 500 500>
LayerCount: 2
Back
Fore
SplineSet
316 688 m 1xda
 316 625 l 1
 248 625 l 1xea
 248 688 l 1
 191 688 l 1xda
 191 625 l 1
 123 625 l 1
 123 693 l 1xe9
 185 693 l 1xe5
 185 756 l 1
 253 756 l 1xd5
 253 693 l 1
 310 693 l 1xe5
 310 756 l 1
 379 756 l 1
 379 688 l 1xd9
 316 688 l 1xda
379 63 m 1xd9
 379 0 l 1
 123 0 l 1
 123 63 l 1
 60 63 l 1
 60 506 l 1
 123 506 l 1
 123 568 l 1
 378 568 l 1
 378 506 l 1
 441 506 l 1
 441 63 l 1
 379 63 l 1xd9
310 500 m 1
 191 500 l 1
 191 68 l 1
 310 68 l 1
 310 500 l 1
EndSplineSet
Substitution2: "'smcp' Lowercase to Small Capitals in Latin lookup 1 subtable" otilde.sc
Substitution2: "'aalt' Access All Alternates in Latin lookup 0 subtable" otilde.sc
EndChar

StartChar: odieresis
Encoding: 246 246 181
Width: 501
GlyphClass: 2
Flags: MW
HStem: 0 68<191 310 191 379> 500 68<191 310 191 191> 625 68<123 191 123 191 310 379>
VStem: 60 131<68 500 68 506 68 506> 310 131<68 500 500 500 63 693>
LayerCount: 2
Back
Fore
SplineSet
310 625 m 1
 310 693 l 1
 379 693 l 1
 379 625 l 1
 310 625 l 1
123 625 m 1
 123 693 l 1
 191 693 l 1
 191 625 l 1
 123 625 l 1
379 63 m 1
 379 0 l 1
 123 0 l 1
 123 63 l 1
 60 63 l 1
 60 506 l 1
 123 506 l 1
 123 568 l 1
 378 568 l 1
 378 506 l 1
 441 506 l 1
 441 63 l 1
 379 63 l 1
310 500 m 1
 191 500 l 1
 191 68 l 1
 310 68 l 1
 310 500 l 1
EndSplineSet
Substitution2: "'smcp' Lowercase to Small Capitals in Latin lookup 1 subtable" odieresis.sc
Substitution2: "'aalt' Access All Alternates in Latin lookup 0 subtable" odieresis.sc
EndChar

StartChar: divide
Encoding: 247 247 182
Width: 563
GlyphClass: 2
Flags: MW
HStem: 125 68<248 316 248 316> 250 68<60 503 60 503> 375 68<248 316 248 316>
VStem: 248 68<125 193 125 193 375 443>
CounterMasks: 1 e0
LayerCount: 2
Back
Fore
SplineSet
248 375 m 1
 248 443 l 1
 316 443 l 1
 316 375 l 1
 248 375 l 1
60 250 m 1
 60 318 l 1
 503 318 l 1
 503 250 l 1
 60 250 l 1
248 125 m 1
 248 193 l 1
 316 193 l 1
 316 125 l 1
 248 125 l 1
EndSplineSet
EndChar

StartChar: oslash
Encoding: 248 248 183
Width: 501
GlyphClass: 2
Flags: MW
HStem: 0 68<191 310 191 378> 250 68<191 310 191 253> 500 68<191 310 191 191>
VStem: 60 131<68 188 318 500> 310 131<68 250 250 250 381 500 500 500>
CounterMasks: 1 e0
LayerCount: 2
Back
Fore
SplineSet
378 63 m 1
 378 0 l 1
 123 0 l 1
 123 63 l 1
 60 63 l 1
 60 506 l 1
 123 506 l 1
 123 568 l 1
 378 568 l 1
 378 506 l 1
 441 506 l 1
 441 63 l 1
 378 63 l 1
310 500 m 1
 191 500 l 1
 191 318 l 1
 248 318 l 1
 248 381 l 1
 310 381 l 1
 310 500 l 1
310 250 m 1
 253 250 l 1
 253 188 l 1
 191 188 l 1
 191 68 l 1
 310 68 l 1
 310 250 l 1
EndSplineSet
EndChar

StartChar: ugrave
Encoding: 249 249 184
Width: 501
GlyphClass: 2
Flags: MW
HStem: 0 68<191 248 191 254> 63 68<254 310 248 373 254 254> 548 20G<60 191 191 191 310 441 441 441> 625 68<248 316 253 316 253 316> 688 68<185 248 185 253>
VStem: 60 131<68 568 68 568 68 568> 185 68<693 756 693 756 693 756> 248 68<625 688 688 688> 310 131<131 568 0 568>
LayerCount: 2
Back
Fore
SplineSet
248 625 m 1xb5
 248 688 l 1xad
 185 688 l 1
 185 756 l 1
 253 756 l 1xaa80
 253 693 l 1xb280
 316 693 l 1
 316 625 l 1
 248 625 l 1xb5
373 0 m 1xac80
 373 63 l 1
 254 63 l 1x6c80
 254 0 l 1
 123 0 l 1xac80
 123 63 l 1
 60 63 l 1x6c80
 60 568 l 1
 191 568 l 1
 191 68 l 1
 248 68 l 1xad
 248 131 l 1x6d
 310 131 l 1x6c80
 310 568 l 1
 441 568 l 1
 441 0 l 1
 373 0 l 1xac80
EndSplineSet
Substitution2: "'smcp' Lowercase to Small Capitals in Latin lookup 1 subtable" ugrave.sc
Substitution2: "'aalt' Access All Alternates in Latin lookup 0 subtable" ugrave.sc
EndChar

StartChar: uacute
Encoding: 250 250 185
Width: 501
GlyphClass: 2
Flags: MW
HStem: 0 68<191 248 191 254> 63 68<254 310 248 373 254 254> 548 20G<60 191 191 191 310 441 441 441> 625 68<185 248 185 254 185 248> 688 68<254 254 254 316>
VStem: 60 131<68 568 68 568 68 568> 185 69<625 688> 248 68<693 756 688 756> 310 131<131 568 0 568>
LayerCount: 2
Back
Fore
SplineSet
254 688 m 1xaa80
 254 625 l 1
 185 625 l 1
 185 693 l 1xb280
 248 693 l 1xb5
 248 756 l 1
 316 756 l 1
 316 688 l 1xad
 254 688 l 1xaa80
373 0 m 1
 373 63 l 1
 254 63 l 1x7480
 254 0 l 1
 123 0 l 1xb480
 123 63 l 1
 60 63 l 1x7480
 60 568 l 1
 191 568 l 1
 191 68 l 1
 248 68 l 1xb5
 248 131 l 1x75
 310 131 l 1x7480
 310 568 l 1
 441 568 l 1
 441 0 l 1
 373 0 l 1
EndSplineSet
Substitution2: "'smcp' Lowercase to Small Capitals in Latin lookup 1 subtable" uacute.sc
Substitution2: "'aalt' Access All Alternates in Latin lookup 0 subtable" uacute.sc
EndChar

StartChar: ucircumflex
Encoding: 251 251 186
Width: 501
GlyphClass: 2
Flags: MW
HStem: 0 68<191 248 191 254> 63 68<254 310 248 373 254 254> 548 20G<60 191 191 191 310 441 441 441> 625 68<123 185 123 191 123 185 316 379> 688 68<191 310 191 191>
VStem: 60 131<68 568 68 568 68 568> 185 131<693 756 693 756> 310 131<131 568 0 568 0 688 0 688>
LayerCount: 2
Back
Fore
SplineSet
310 625 m 1xb5
 310 688 l 1
 191 688 l 1xad
 191 625 l 1
 123 625 l 1
 123 693 l 1xb5
 185 693 l 1xb2
 185 756 l 1
 316 756 l 1xaa
 316 693 l 1xb2
 379 693 l 1
 379 625 l 1
 310 625 l 1xb5
373 0 m 1
 373 63 l 1
 254 63 l 1x6d
 254 0 l 1
 123 0 l 1xad
 123 63 l 1
 60 63 l 1x6d
 60 568 l 1
 191 568 l 1
 191 68 l 1
 248 68 l 1xad
 248 131 l 1
 310 131 l 1x6d
 310 568 l 1
 441 568 l 1
 441 0 l 1
 373 0 l 1
EndSplineSet
Substitution2: "'smcp' Lowercase to Small Capitals in Latin lookup 1 subtable" ucircumflex.sc
Substitution2: "'aalt' Access All Alternates in Latin lookup 0 subtable" ucircumflex.sc
EndChar

StartChar: udieresis
Encoding: 252 252 187
Width: 501
GlyphClass: 2
Flags: MW
HStem: 0 68<191 248 191 254> 63 68<254 310 248 373 254 254> 548 20G<60 191 191 191 310 441 441 441> 625 68<123 191 123 191 310 379>
VStem: 60 131<68 568 68 568 68 568> 310 131<131 568 0 568 0 693 0 693>
LayerCount: 2
Back
Fore
SplineSet
310 625 m 1xbc
 310 693 l 1
 379 693 l 1
 379 625 l 1
 310 625 l 1xbc
123 625 m 1
 123 693 l 1
 191 693 l 1
 191 625 l 1
 123 625 l 1
373 0 m 1
 373 63 l 1
 254 63 l 1x7c
 254 0 l 1
 123 0 l 1xbc
 123 63 l 1
 60 63 l 1x7c
 60 568 l 1
 191 568 l 1
 191 68 l 1
 248 68 l 1xbc
 248 131 l 1
 310 131 l 1x7c
 310 568 l 1
 441 568 l 1
 441 0 l 1
 373 0 l 1
EndSplineSet
Substitution2: "'smcp' Lowercase to Small Capitals in Latin lookup 1 subtable" udieresis.sc
Substitution2: "'aalt' Access All Alternates in Latin lookup 0 subtable" udieresis.sc
EndChar

StartChar: yacute
Encoding: 253 253 188
Width: 501
GlyphClass: 2
Flags: MW
HStem: -187 68<191 310 191 316> -125 68<60 123 60 191> 0 68<191 248 191 253> 63 68<253 310 253 253> 548 20G<60 191 191 191 310 441 441 441> 625 68<185 248 185 253 185 248> 688 68<253 253 253 316>
VStem: 60 131<-119 -57 -119 -57 -119 -57 -119 68 68 568> 185 68<625 688> 248 68<693 756> 310 131<-119 63 63 63 131 568 -125 568>
LayerCount: 2
Back
Fore
SplineSet
253 688 m 1xaaa0
 253 625 l 1
 185 625 l 1
 185 693 l 1xaca0
 248 693 l 1xad40
 248 756 l 1
 316 756 l 1
 316 688 l 1xab40
 253 688 l 1xaaa0
316 -125 m 1x6b40
 316 -187 l 1
 123 -187 l 1xab40
 123 -125 l 1
 60 -125 l 1
 60 -57 l 1
 191 -57 l 1x6b20
 191 -119 l 1xab20
 310 -119 l 1
 310 63 l 1
 253 63 l 1x9aa0
 253 0 l 1xaaa0
 123 0 l 1xab20
 123 63 l 1
 60 63 l 1x9b20
 60 568 l 1
 191 568 l 1
 191 68 l 1
 248 68 l 1xab40
 248 131 l 1x9b40
 310 131 l 1
 310 568 l 1
 441 568 l 1
 441 -125 l 1x5b20
 316 -125 l 1x6b40
EndSplineSet
Substitution2: "'smcp' Lowercase to Small Capitals in Latin lookup 1 subtable" yacute.sc
Substitution2: "'aalt' Access All Alternates in Latin lookup 0 subtable" yacute.sc
EndChar

StartChar: thorn
Encoding: 254 254 189
Width: 501
GlyphClass: 2
Flags: MW
HStem: -187 21G<60 191 60 60> 0 68<253 310 253 378 248 310> 63 68<191 248 191 253> 438 68<191 248 191 253 191 248> 500 68<253 310 253 253>
VStem: 60 131<-187 63 -187 131 131 438 506 818> 310 131<68 500 500 500>
LayerCount: 2
Back
Fore
SplineSet
378 63 m 1xb6
 378 0 l 1
 248 0 l 1xce
 248 63 l 1
 191 63 l 1
 191 -187 l 1
 60 -187 l 1
 60 818 l 1
 191 818 l 1
 191 506 l 1
 248 506 l 1xb6
 248 568 l 1
 378 568 l 1xce
 378 506 l 1
 441 506 l 1
 441 63 l 1
 378 63 l 1xb6
310 500 m 1
 253 500 l 1xce
 253 438 l 1
 191 438 l 1
 191 131 l 1
 253 131 l 1xb6
 253 68 l 1
 310 68 l 1
 310 500 l 1
EndSplineSet
EndChar

StartChar: ydieresis
Encoding: 255 255 190
Width: 501
GlyphClass: 2
Flags: MW
HStem: -187 68<191 310 191 316> -125 68<60 123 60 191> 0 68<191 248 191 254> 63 68<254 310 254 254> 548 20G<60 191 191 191 310 441 441 441> 625 68<123 191 123 191 310 379>
VStem: 60 131<-119 -57 -119 -57 -119 -57 -119 68 68 568> 310 131<-119 63 63 63 131 568 -125 568 -125 693 -125 693>
LayerCount: 2
Back
Fore
SplineSet
310 625 m 1xaf
 310 693 l 1
 379 693 l 1
 379 625 l 1
 310 625 l 1xaf
123 625 m 1
 123 693 l 1
 191 693 l 1
 191 625 l 1
 123 625 l 1
316 -125 m 1x5f
 316 -187 l 1
 123 -187 l 1xaf
 123 -125 l 1
 60 -125 l 1
 60 -57 l 1
 191 -57 l 1x6f
 191 -119 l 1
 310 -119 l 1
 310 63 l 1
 254 63 l 1x9f
 254 0 l 1
 123 0 l 1xaf
 123 63 l 1
 60 63 l 1x9f
 60 568 l 1
 191 568 l 1
 191 68 l 1
 248 68 l 1xaf
 248 131 l 1
 310 131 l 1
 310 568 l 1
 441 568 l 1
 441 -125 l 1
 316 -125 l 1x5f
EndSplineSet
EndChar

StartChar: dotlessi
Encoding: 305 305 191
Width: 251
GlyphClass: 2
Flags: MW
HStem: 0 21G<60 60 60 191> 548 20G<60 191 191 191>
VStem: 60 131<0 568 0 568>
LayerCount: 2
Back
Fore
SplineSet
60 0 m 1
 60 568 l 1
 191 568 l 1
 191 0 l 1
 60 0 l 1
EndSplineSet
EndChar

StartChar: Lslash
Encoding: 321 321 192
Width: 566
GlyphClass: 2
Flags: MW
HStem: 0 68<256 506 256 506> 250 68<0 63 0 68 0 63> 313 68<68 125 68 68> 375 68<256 313 256 318 256 313> 438 68<318 381 318 318> 673 20G<125 256 256 256>
VStem: 0 68<250 313 250 318 250 318> 125 131<68 313 313 313 443 693> 313 68<443 506 438 506>
CounterMasks: 1 0380
LayerCount: 2
Back
Fore
SplineSet
125 0 m 1xcf80
 125 313 l 1
 68 313 l 1xaf80
 68 250 l 1
 0 250 l 1
 0 318 l 1
 63 318 l 1xcf80
 63 381 l 1
 125 381 l 1xaf80
 125 693 l 1
 256 693 l 1
 256 443 l 1
 313 443 l 1xd780
 313 506 l 1
 381 506 l 1
 381 438 l 1
 318 438 l 1xcf80
 318 375 l 1
 256 375 l 1xd780
 256 68 l 1
 506 68 l 1
 506 0 l 1
 125 0 l 1xcf80
EndSplineSet
Substitution2: "'c2sc' Capitals to Small Capitals in Latin lookup 2 subtable" lslash.sc
Substitution2: "'aalt' Access All Alternates in Latin lookup 0 subtable" lslash.sc
EndChar

StartChar: lslash
Encoding: 322 322 193
Width: 441
GlyphClass: 2
Flags: MW
HStem: 0 68<256 318 256 318> 250 68<0 63 0 68 0 63> 313 68<68 125 68 68> 375 68<256 313 256 318 256 313> 438 68<318 318 318 381>
VStem: 0 68<250 313 250 318 250 318> 125 131<68 313 313 313 68 443 443 756> 313 68<443 506 438 506>
CounterMasks: 1 07
LayerCount: 2
Back
Fore
SplineSet
318 438 m 1xcf
 318 375 l 1
 256 375 l 1xd7
 256 68 l 1
 318 68 l 1
 318 0 l 1
 188 0 l 1
 188 63 l 1
 125 63 l 1
 125 313 l 1
 68 313 l 1xaf
 68 250 l 1
 0 250 l 1
 0 318 l 1
 63 318 l 1xcf
 63 381 l 1
 125 381 l 1xaf
 125 756 l 1
 256 756 l 1
 256 443 l 1
 313 443 l 1xd7
 313 506 l 1
 381 506 l 1
 381 438 l 1
 318 438 l 1xcf
EndSplineSet
Substitution2: "'smcp' Lowercase to Small Capitals in Latin lookup 1 subtable" lslash.sc
Substitution2: "'aalt' Access All Alternates in Latin lookup 0 subtable" lslash.sc
EndChar

StartChar: OE
Encoding: 338 338 194
Width: 814
GlyphClass: 2
Flags: MW
HStem: 0 68<191 373 503 754> 313 68<503 691 503 691> 625 68<191 373 191 191 503 754 503 503>
VStem: 60 131<68 625 68 631 68 631> 373 130<68 313 381 625>
LayerCount: 2
Back
Fore
SplineSet
123 0 m 1
 123 63 l 1
 60 63 l 1
 60 631 l 1
 123 631 l 1
 123 693 l 1
 754 693 l 1
 754 625 l 1
 503 625 l 1
 503 381 l 1
 691 381 l 1
 691 313 l 1
 503 313 l 1
 503 68 l 1
 754 68 l 1
 754 0 l 1
 123 0 l 1
373 625 m 1
 191 625 l 1
 191 68 l 1
 373 68 l 1
 373 625 l 1
EndSplineSet
Substitution2: "'c2sc' Capitals to Small Capitals in Latin lookup 2 subtable" oe.sc
Substitution2: "'aalt' Access All Alternates in Latin lookup 0 subtable" oe.sc
EndChar

StartChar: oe
Encoding: 339 339 195
Width: 751
GlyphClass: 2
Flags: MW
HStem: 0 68<191 310 441 560> 63 130<629 691 629 629> 250 68<441 560 441 629 441 560> 313 193<629 691 629 629> 500 68<191 310 191 191 441 560 441 441>
VStem: 60 131<68 500 68 506 68 506> 310 131<68 250 68 318 318 500> 560 131<68 193 63 193 318 500 500 500>
CounterMasks: 1 07
LayerCount: 2
Back
Fore
SplineSet
629 63 m 1x6f
 629 0 l 1
 123 0 l 1
 123 63 l 1
 60 63 l 1
 60 506 l 1
 123 506 l 1
 123 568 l 1
 628 568 l 1xaf
 628 506 l 1
 691 506 l 1
 691 313 l 1
 629 313 l 1x97
 629 250 l 1
 441 250 l 1
 441 68 l 1
 560 68 l 1xaf
 560 193 l 1
 691 193 l 1
 691 63 l 1
 629 63 l 1x6f
560 500 m 1
 441 500 l 1
 441 318 l 1
 560 318 l 1
 560 500 l 1
310 500 m 1
 191 500 l 1
 191 68 l 1
 310 68 l 1
 310 500 l 1
EndSplineSet
Substitution2: "'smcp' Lowercase to Small Capitals in Latin lookup 1 subtable" oe.sc
Substitution2: "'aalt' Access All Alternates in Latin lookup 0 subtable" oe.sc
EndChar

StartChar: Scaron
Encoding: 352 352 196
Width: 563
GlyphClass: 2
Flags: MW
HStem: 0 68<191 373 191 441> 63 130<60 123 60 191> 313 68<191 373> 375 256<60 123 60 123> 500 131<441 503> 625 68<191 373 191 191> 750 68<253 310 253 316 248 310> 813 68<185 248 185 253 316 378 316 316>
VStem: 60 131<68 193 68 193 68 193 381 625> 185 68<818 881 818 881 818 881> 248 68<750 813 750 813> 310 68<818 881 813 881> 373 68<0 313>
LayerCount: 2
Back
Fore
SplineSet
316 813 m 1xa5a8
 316 750 l 1
 248 750 l 1xa6a8
 248 813 l 1xa5a8
 185 813 l 1
 185 881 l 1
 253 881 l 1xa548
 253 818 l 1
 310 818 l 1xa650
 310 881 l 1
 378 881 l 1
 378 813 l 1xa590
 316 813 l 1xa5a8
441 63 m 1
 441 0 l 1
 123 0 l 1xa5a8
 123 63 l 1
 60 63 l 1
 60 193 l 1
 191 193 l 1x65a8
 191 68 l 1
 373 68 l 1
 373 313 l 1
 123 313 l 1xa5a8
 123 375 l 1
 60 375 l 1
 60 631 l 1
 123 631 l 1x91a8
 123 693 l 1
 441 693 l 1xa5a8
 441 631 l 1
 503 631 l 1
 503 500 l 1
 373 500 l 1xa9a8
 373 625 l 1
 191 625 l 1
 191 381 l 1
 441 381 l 1
 441 318 l 1
 503 318 l 1
 503 63 l 1
 441 63 l 1
EndSplineSet
Substitution2: "'c2sc' Capitals to Small Capitals in Latin lookup 2 subtable" scaron.sc
Substitution2: "'aalt' Access All Alternates in Latin lookup 0 subtable" scaron.sc
EndChar

StartChar: scaron
Encoding: 353 353 197
Width: 501
GlyphClass: 2
Flags: MW
HStem: 0 68<191 310 191 378> 63 130<60 123 60 191> 63 193<378 441 378 441> 250 68<191 310> 375 131<378 441> 500 68<191 310 191 191> 625 68<191 310 191 316 185 310> 688 68<123 185 123 191 316 378 316 316>
VStem: 123 68<0 193 63 193 68 313 693 756> 185 131<625 688 625 688> 310 68<0 250 693 756>
LayerCount: 2
Back
Fore
SplineSet
316 688 m 1x9540
 316 625 l 1
 185 625 l 1x9640
 185 688 l 1x9540
 123 688 l 1
 123 756 l 1
 191 756 l 1x95a0
 191 693 l 1
 310 693 l 1x96a0
 310 756 l 1
 378 756 l 1
 378 688 l 1x95a0
 316 688 l 1x9540
378 63 m 1x26a0
 378 0 l 1
 123 0 l 1x96a0
 123 63 l 1
 60 63 l 1
 60 193 l 1
 191 193 l 1x56a0
 191 68 l 1
 310 68 l 1
 310 250 l 1
 123 250 l 1
 123 313 l 1
 60 313 l 1
 60 506 l 1
 123 506 l 1x9aa0
 123 568 l 1
 378 568 l 1x96a0
 378 506 l 1
 441 506 l 1
 441 375 l 1
 310 375 l 1x9aa0
 310 500 l 1
 191 500 l 1
 191 318 l 1
 378 318 l 1x96a0
 378 256 l 1
 441 256 l 1
 441 63 l 1
 378 63 l 1x26a0
EndSplineSet
Substitution2: "'smcp' Lowercase to Small Capitals in Latin lookup 1 subtable" scaron.sc
Substitution2: "'aalt' Access All Alternates in Latin lookup 0 subtable" scaron.sc
EndChar

StartChar: Ydieresis
Encoding: 376 376 198
Width: 626
GlyphClass: 2
Flags: MW
HStem: 0 21G<248 379 248 248> 313 68<185 373 253 441 253 379> 375 131<123 253 123 253> 500 193<60 123 60 191 504 566 504 504> 750 68<185 254 185 254 373 441>
VStem: 123 68<375 693 500 693> 185 68<313 506 375 506> 248 131<0 313 0 313> 373 68<313 506 750 818> 435 131<506 693 500 693>
LayerCount: 2
Back
Fore
SplineSet
373 750 m 1xda80
 373 818 l 1
 441 818 l 1
 441 750 l 1
 373 750 l 1xda80
185 750 m 1
 185 818 l 1
 254 818 l 1
 254 750 l 1
 185 750 l 1
504 500 m 1xdd40
 504 375 l 1xad40
 441 375 l 1xac80
 441 313 l 1xdc80
 379 313 l 1
 379 0 l 1
 248 0 l 1
 248 313 l 1xdd40
 185 313 l 1xda40
 185 375 l 1xaa40
 123 375 l 1xad40
 123 500 l 1
 60 500 l 1
 60 693 l 1
 191 693 l 1xdd40
 191 506 l 1xad40
 253 506 l 1xaa40
 253 381 l 1
 373 381 l 1xda80
 373 506 l 1xac80
 435 506 l 1xad40
 435 693 l 1
 566 693 l 1
 566 500 l 1
 504 500 l 1xdd40
EndSplineSet
EndChar

StartChar: Zcaron
Encoding: 381 381 199
Width: 501
GlyphClass: 2
Flags: MW
HStem: 0 68<191 441 191 441> 0 193<60 123 60 123 60 441> 188 130<123 253 123 191> 313 68<185 316 185 253> 375 131<248 378 248 316> 500 193<378 441 378 378> 625 68<60 310 60 441> 750 68<191 310 191 316 185 310> 813 68<123 185 123 191 316 378 316 316>
VStem: 123 68<68 318 818 881> 185 68<188 381> 248 68<313 506> 310 68<375 625 818 881>
LayerCount: 2
Back
Fore
SplineSet
316 813 m 1x92d0
 316 750 l 1x9350
 185 750 l 1x9328
 185 813 l 1x92a8
 123 813 l 1
 123 881 l 1
 191 881 l 1x92c8
 191 818 l 1
 310 818 l 1x9348
 310 881 l 1
 378 881 l 1
 378 813 l 1x92c8
 316 813 l 1x92d0
60 0 m 1
 60 193 l 1
 123 193 l 1x5348
 123 318 l 1xa348
 185 318 l 1xa328
 185 381 l 1x9328
 248 381 l 1x9350
 248 506 l 1x8b50
 310 506 l 1
 310 625 l 1
 60 625 l 1
 60 693 l 1
 441 693 l 1x8b48
 441 500 l 1
 378 500 l 1x9548
 378 375 l 1x8b48
 316 375 l 1x8b50
 316 313 l 1x9350
 253 313 l 1x9328
 253 188 l 1xa328
 191 188 l 1
 191 68 l 1
 441 68 l 1
 441 0 l 1xa348
 60 0 l 1
EndSplineSet
Substitution2: "'c2sc' Capitals to Small Capitals in Latin lookup 2 subtable" zcaron.sc
Substitution2: "'aalt' Access All Alternates in Latin lookup 0 subtable" zcaron.sc
EndChar

StartChar: zcaron
Encoding: 382 382 200
Width: 438
GlyphClass: 2
Flags: MW
HStem: 0 68<60 378 191 378 191 378> 0 193<60 123 60 125 60 123 60 378> 188 130<123 253 123 191> 313 130<185 316 185 253> 438 130<316 378 316 316> 500 68<60 248 60 313> 625 68<191 248 191 253 185 248> 688 68<123 185 123 191 253 316 253 253>
VStem: 123 68<68 253 693 756> 185 68<188 378 625 688> 248 68<313 500 693 756>
LayerCount: 2
Back
Fore
SplineSet
253 688 m 1x8540
 253 625 l 1
 185 625 l 1x8640
 185 688 l 1x8540
 123 688 l 1
 123 756 l 1
 191 756 l 1x85a0
 191 693 l 1
 248 693 l 1x86a0
 248 756 l 1
 316 756 l 1
 316 688 l 1x85a0
 253 688 l 1x8540
125 0 m 1
 60 0 l 1
 60 65 l 1x85a0
 60 128 l 1
 60 193 l 1
 123 193 l 1
 123 253 l 1x45a0
 123 318 l 1xa5a0
 185 318 l 1
 185 378 l 1xa540
 185 443 l 1x9540
 248 443 l 1
 248 500 l 1
 60 500 l 1
 60 568 l 1
 313 568 l 1
 378 568 l 1
 378 503 l 1x95a0
 378 438 l 1
 316 438 l 1
 316 378 l 1x89a0
 316 313 l 1x95a0
 253 313 l 1
 253 253 l 1x9540
 253 188 l 1xa540
 191 188 l 1
 191 128 l 1
 191 68 l 1xa5a0
 378 68 l 1
 378 0 l 1
 125 0 l 1
EndSplineSet
Substitution2: "'smcp' Lowercase to Small Capitals in Latin lookup 1 subtable" zcaron.sc
Substitution2: "'aalt' Access All Alternates in Latin lookup 0 subtable" zcaron.sc
EndChar

StartChar: florin
Encoding: 402 402 201
Width: 563
GlyphClass: 2
Flags: MW
HStem: -187 68<128 185 128 253 122 185> -125 68<60 122 60 128> 250 68<122 185 122 185 315 440> 438 68<440 503> 500 68<315 435 315 315>
VStem: 60 68<-119 -57 -119 -57 -119 -57> 185 68<-187 250> 247 68 435 68<438 500 500 500>
LayerCount: 2
Back
Fore
SplineSet
435 438 m 1xb680
 435 500 l 1
 315 500 l 1
 315 318 l 1
 440 318 l 1
 440 250 l 1
 315 250 l 1
 315 -125 l 1x6d80
 253 -125 l 1x6e80
 253 -187 l 1xae80
 122 -187 l 1xad80
 122 -125 l 1
 60 -125 l 1
 60 -57 l 1
 128 -57 l 1x6d80
 128 -119 l 1
 185 -119 l 1
 185 250 l 1
 122 250 l 1
 122 318 l 1
 185 318 l 1
 185 506 l 1xb680
 247 506 l 1xb580
 247 568 l 1
 440 568 l 1xad80
 440 506 l 1
 503 506 l 1
 503 438 l 1
 435 438 l 1xb680
EndSplineSet
EndChar

StartChar: circumflex
Encoding: 710 710 202
Width: 376
GlyphClass: 2
Flags: MW
HStem: 625 68<60 123 60 128 60 123 253 316> 688 68<128 248 128 128>
VStem: 60 68<625 688 625 693 625 693> 123 130<693 756 693 756> 248 68<625 688 688 688>
LayerCount: 2
Back
Fore
SplineSet
248 625 m 1xa8
 248 688 l 1
 128 688 l 1x68
 128 625 l 1
 60 625 l 1
 60 693 l 1xa8
 123 693 l 1x90
 123 756 l 1
 253 756 l 1x50
 253 693 l 1x90
 316 693 l 1
 316 625 l 1
 248 625 l 1xa8
EndSplineSet
EndChar

StartChar: caron
Encoding: 711 711 203
Width: 376
GlyphClass: 2
Flags: MW
HStem: 625 68<128 248 128 253 123 248> 688 68<60 123 60 128 253 316 253 253>
VStem: 60 68<693 756 693 756 693 756> 123 130<625 688 625 688> 248 68<693 756 688 756>
LayerCount: 2
Back
Fore
SplineSet
253 688 m 1x50
 253 625 l 1
 123 625 l 1x90
 123 688 l 1x50
 60 688 l 1
 60 756 l 1
 128 756 l 1x68
 128 693 l 1
 248 693 l 1xa8
 248 756 l 1
 316 756 l 1
 316 688 l 1x68
 253 688 l 1x50
EndSplineSet
EndChar

StartChar: breve
Encoding: 728 728 204
Width: 376
GlyphClass: 2
Flags: MW
HStem: 625 68<128 248 128 253 123 248> 688 130<60 123 60 128 253 316 253 253>
VStem: 60 68<693 818 693 818 693 818> 123 130<625 688 625 688> 248 68<693 818 688 818>
LayerCount: 2
Back
Fore
SplineSet
253 688 m 1x50
 253 625 l 1
 123 625 l 1x90
 123 688 l 1x50
 60 688 l 1
 60 818 l 1
 128 818 l 1x68
 128 693 l 1
 248 693 l 1xa8
 248 818 l 1
 316 818 l 1
 316 688 l 1x68
 253 688 l 1x50
EndSplineSet
EndChar

StartChar: dotaccent
Encoding: 729 729 205
Width: 251
GlyphClass: 2
Flags: MW
HStem: 688 130<60 191 60 191>
VStem: 60 131<688 818 688 818>
LayerCount: 2
Back
Fore
SplineSet
60 688 m 1
 60 818 l 1
 191 818 l 1
 191 688 l 1
 60 688 l 1
EndSplineSet
EndChar

StartChar: ring
Encoding: 730 730 206
Width: 313
GlyphClass: 2
Flags: MW
HStem: 625 68<128 185 128 191 123 185> 688 68<60 123 60 123 191 253> 750 68<128 185 128 128>
VStem: 60 68<693 750 693 756 693 756> 123 68<625 688 625 688 756 818> 185 68<693 750 750 750>
LayerCount: 2
Back
Fore
SplineSet
191 688 m 1x48
 191 625 l 1
 123 625 l 1x88
 123 688 l 1x48
 60 688 l 1
 60 756 l 1x50
 123 756 l 1x48
 123 818 l 1
 191 818 l 1x28
 191 756 l 1x48
 253 756 l 1
 253 688 l 1x44
 191 688 l 1x48
185 750 m 1xb4
 128 750 l 1
 128 693 l 1
 185 693 l 1
 185 750 l 1xb4
EndSplineSet
EndChar

StartChar: ogonek
Encoding: 731 731 207
Width: 313
GlyphClass: 2
Flags: MW
HStem: -187 68<128 253 128 253> -187 130<60 123 60 123 60 253> -62 68<128 191 128 128>
VStem: 60 68<-119 -62 -119 -57 -119 -57> 123 68<-57 6 -62 6>
LayerCount: 2
Back
Fore
SplineSet
60 -187 m 1xb0
 60 -57 l 1x50
 123 -57 l 1x48
 123 6 l 1
 191 6 l 1
 191 -62 l 1xa8
 128 -62 l 1
 128 -119 l 1
 253 -119 l 1
 253 -187 l 1
 60 -187 l 1xb0
EndSplineSet
EndChar

StartChar: tilde
Encoding: 732 732 208
Width: 376
GlyphClass: 2
Flags: MW
HStem: 625 68<60 123 60 128 60 123 191 248 60 185> 688 68<128 185 128 128 253 316 253 253>
VStem: 60 68<625 688 625 693 625 693> 123 68<693 756 693 756> 185 68<625 688 625 688> 248 68<693 756 688 756>
LayerCount: 2
Back
Fore
SplineSet
253 688 m 1x68
 253 625 l 1
 185 625 l 1xa8
 185 688 l 1
 128 688 l 1x68
 128 625 l 1
 60 625 l 1
 60 693 l 1xa4
 123 693 l 1x94
 123 756 l 1
 191 756 l 1x54
 191 693 l 1
 248 693 l 1x94
 248 756 l 1
 316 756 l 1
 316 688 l 1x64
 253 688 l 1x68
EndSplineSet
EndChar

StartChar: hungarumlaut
Encoding: 733 733 209
Width: 376
GlyphClass: 2
Flags: MW
HStem: 625 68<60 123 60 128 60 123 191 248 60 185> 688 68<128 185 128 128 253 316 253 253>
VStem: 60 68<625 688 625 693 625 693> 123 68<693 756 693 756> 185 68<625 688 625 688> 248 68<693 756 688 756>
LayerCount: 2
Back
Fore
SplineSet
253 688 m 1x68
 253 625 l 1
 185 625 l 1xa8
 185 688 l 1
 128 688 l 1x68
 128 625 l 1
 60 625 l 1
 60 693 l 1xa4
 123 693 l 1x94
 123 756 l 1
 191 756 l 1x54
 191 693 l 1
 248 693 l 1x94
 248 756 l 1
 316 756 l 1
 316 688 l 1x64
 253 688 l 1x68
EndSplineSet
EndChar

StartChar: Delta
Encoding: 916 916 210
AltUni2: 002206.ffffffff.0
Width: 563
GlyphClass: 2
Flags: MW
HStem: 0 68<128 435 128 503> 0 193<60 123 60 123 441 503> 188 130<128 185 123 191 128 128 378 435> 313 130<191 248 185 253 191 191 316 373 185 310> 438 130<253 310 253 253>
VStem: 60 68<68 188 68 193 68 193> 123 68<193 313 188 318 188 318> 185 68<318 438 313 443 313 443> 248 68<443 568 443 568> 310 68<318 438 438 438> 373 68<193 313 313 313> 435 68<68 188 188 188>
LayerCount: 2
Back
Fore
SplineSet
60 0 m 1xac90
 60 193 l 1x4c90
 123 193 l 1x4a90
 123 318 l 1xaa90
 185 318 l 1xad10
 185 443 l 1x9510
 248 443 l 1x9490
 248 568 l 1
 316 568 l 1xac90
 316 443 l 1x9490
 378 443 l 1x9450
 378 318 l 1xac50
 441 318 l 1xaca0
 441 193 l 1x4ca0
 503 193 l 1x4c90
 503 0 l 1
 60 0 l 1xac90
435 188 m 1xac90
 373 188 l 1xaca0
 373 313 l 1x94a0
 310 313 l 1x9450
 310 438 l 1
 253 438 l 1xad50
 253 313 l 1x9510
 191 313 l 1x9290
 191 188 l 1xaa90
 128 188 l 1
 128 68 l 1
 435 68 l 1
 435 188 l 1xac90
EndSplineSet
EndChar

StartChar: Omega
Encoding: 937 937 211
AltUni2: 002126.ffffffff.0
Width: 626
GlyphClass: 2
Flags: MW
HStem: 0 68<60 185 60 253 60 185 441 566> 0 131<191 253 191 253 373 435 191 373> 500 68<191 435 191 191>
VStem: 123 68<131 188 188 188 131 568> 185 68<68 125 125 125> 373 68<68 125 68 131 68 131> 435 68<131 188 125 500>
LayerCount: 2
Back
Fore
SplineSet
373 0 m 1xb4
 373 131 l 1x74
 435 131 l 1
 435 500 l 1
 191 500 l 1
 191 131 l 1x72
 253 131 l 1x6a
 253 0 l 1xaa
 60 0 l 1
 60 68 l 1xb2
 185 68 l 1
 185 125 l 1xaa
 123 125 l 1
 123 188 l 1
 60 188 l 1
 60 506 l 1
 123 506 l 1
 123 568 l 1
 503 568 l 1
 503 506 l 1
 566 506 l 1
 566 188 l 1
 503 188 l 1
 503 125 l 1xb2
 441 125 l 1
 441 68 l 1xb4
 566 68 l 1
 566 0 l 1xb2
 373 0 l 1xb4
EndSplineSet
EndChar

StartChar: pi
Encoding: 960 960 212
Width: 626
GlyphClass: 2
Flags: MW
HStem: 0 68<60 123 60 191 60 123> 438 68<60 123 60 566 253 373 253 253 503 566 503 503>
VStem: 123 68<0 438> 373 130<0 438 0 438>
LayerCount: 2
Back
Fore
SplineSet
503 438 m 1
 503 0 l 1
 373 0 l 1
 373 438 l 1
 253 438 l 1
 253 63 l 1
 191 63 l 1
 191 0 l 1
 60 0 l 1
 60 68 l 1
 123 68 l 1
 123 438 l 1
 60 438 l 1
 60 506 l 1
 566 506 l 1
 566 438 l 1
 503 438 l 1
EndSplineSet
EndChar

StartChar: endash
Encoding: 8211 8211 213
Width: 563
GlyphClass: 2
Flags: MW
HStem: 250 68<60 503 60 503>
VStem: 60 443<250 318 250 318>
LayerCount: 2
Back
Fore
SplineSet
60 250 m 1
 60 318 l 1
 503 318 l 1
 503 250 l 1
 60 250 l 1
EndSplineSet
EndChar

StartChar: emdash
Encoding: 8212 8212 214
Width: 751
GlyphClass: 2
Flags: MW
HStem: 250 68<60 691 60 691>
VStem: 60 631<250 318 250 318>
LayerCount: 2
Back
Fore
SplineSet
60 250 m 1
 60 318 l 1
 691 318 l 1
 691 250 l 1
 60 250 l 1
EndSplineSet
EndChar

StartChar: quoteleft
Encoding: 8216 8216 215
Width: 251
GlyphClass: 2
Flags: MW
HStem: 375 131<60 191 128 191 128 191> 625 68<128 191 128 128>
VStem: 60 68<506 625 506 631 506 631> 123 68<631 693>
LayerCount: 2
Back
Fore
SplineSet
60 375 m 1xe0
 60 631 l 1xe0
 123 631 l 1
 123 693 l 1
 191 693 l 1
 191 625 l 1xd0
 128 625 l 1
 128 506 l 1xe0
 191 506 l 1
 191 375 l 1xd0
 60 375 l 1xe0
EndSplineSet
EndChar

StartChar: quoteright
Encoding: 8217 8217 216
Width: 251
GlyphClass: 2
Flags: MW
HStem: 375 68<60 123 60 128 60 123> 563 130<60 123 60 191>
VStem: 60 68<375 438 375 443 375 443> 123 68<443 563 563 563>
LayerCount: 2
Back
Fore
SplineSet
128 438 m 1xe0
 128 375 l 1
 60 375 l 1
 60 443 l 1xe0
 123 443 l 1
 123 563 l 1xd0
 60 563 l 1
 60 693 l 1xe0
 191 693 l 1
 191 438 l 1xd0
 128 438 l 1xe0
EndSplineSet
EndChar

StartChar: quotesinglbase
Encoding: 8218 8218 217
Width: 251
GlyphClass: 2
Flags: MW
HStem: -187 68<60 123 60 128 60 123> 0 131<60 123 60 191>
VStem: 60 68<-187 -125 -187 -119 -187 -119> 123 68<-119 0 0 0>
LayerCount: 2
Back
Fore
SplineSet
128 -125 m 1xe0
 128 -187 l 1
 60 -187 l 1
 60 -119 l 1xe0
 123 -119 l 1
 123 0 l 1xd0
 60 0 l 1
 60 131 l 1xe0
 191 131 l 1
 191 -125 l 1xd0
 128 -125 l 1xe0
EndSplineSet
EndChar

StartChar: quotedblleft
Encoding: 8220 8220 218
Width: 438
GlyphClass: 2
Flags: MW
HStem: 375 131<60 191 128 191 128 191 128 248 316 378> 625 68<128 191 128 128 316 378 316 316>
VStem: 60 68<506 625 506 631 506 631> 123 68<631 693> 248 68<506 625 506 631 506 631> 310 68<631 693>
LayerCount: 2
Back
Fore
SplineSet
248 375 m 1xe8
 248 631 l 1xe8
 310 631 l 1
 310 693 l 1
 378 693 l 1
 378 625 l 1xe4
 316 625 l 1
 316 506 l 1xe8
 378 506 l 1
 378 375 l 1xe4
 248 375 l 1xe8
60 375 m 1
 60 631 l 1xe8
 123 631 l 1
 123 693 l 1
 191 693 l 1
 191 625 l 1xd8
 128 625 l 1
 128 506 l 1xe8
 191 506 l 1
 191 375 l 1xd8
 60 375 l 1
EndSplineSet
EndChar

StartChar: quotedblright
Encoding: 8221 8221 219
Width: 438
GlyphClass: 2
Flags: MW
HStem: 375 68<60 123 60 128 60 123 248 310> 563 130<60 123 60 191 248 310 60 248>
VStem: 60 68<375 438 375 443 375 443> 123 68<443 563 563 563> 248 68<375 438 375 443 375 443> 310 68<443 563 563 563>
LayerCount: 2
Back
Fore
SplineSet
316 438 m 1xd8
 316 375 l 1
 248 375 l 1
 248 443 l 1xe8
 310 443 l 1
 310 563 l 1xd4
 248 563 l 1
 248 693 l 1xd8
 378 693 l 1
 378 438 l 1xd4
 316 438 l 1xd8
128 438 m 1
 128 375 l 1
 60 375 l 1
 60 443 l 1xe4
 123 443 l 1
 123 563 l 1xd4
 60 563 l 1
 60 693 l 1xe4
 191 693 l 1
 191 438 l 1xd4
 128 438 l 1
EndSplineSet
EndChar

StartChar: quotedblbase
Encoding: 8222 8222 220
Width: 438
GlyphClass: 2
Flags: MW
HStem: -187 68<60 123 60 128 60 123 248 310> 0 131<60 123 60 191 248 310 60 248>
VStem: 60 68<-187 -125 -187 -119 -187 -119> 123 68<-119 0 0 0> 248 68<-187 -125 -187 -119 -187 -119> 310 68<-119 0 0 0>
LayerCount: 2
Back
Fore
SplineSet
316 -125 m 1xd8
 316 -187 l 1
 248 -187 l 1
 248 -119 l 1xe8
 310 -119 l 1
 310 0 l 1xd4
 248 0 l 1
 248 131 l 1xd8
 378 131 l 1
 378 -125 l 1xd4
 316 -125 l 1xd8
128 -125 m 1
 128 -187 l 1
 60 -187 l 1
 60 -119 l 1xe4
 123 -119 l 1
 123 0 l 1xd4
 60 0 l 1
 60 131 l 1xe4
 191 131 l 1
 191 -125 l 1xd4
 128 -125 l 1
EndSplineSet
EndChar

StartChar: dagger
Encoding: 8224 8224 221
Width: 501
GlyphClass: 2
Flags: MW
HStem: 438 68<60 185 60 185 316 441>
VStem: 185 131<-125 438 -125 438 506 631>
LayerCount: 2
Back
Fore
SplineSet
316 438 m 1
 316 -125 l 1
 185 -125 l 1
 185 438 l 1
 60 438 l 1
 60 506 l 1
 185 506 l 1
 185 631 l 1
 316 631 l 1
 316 506 l 1
 441 506 l 1
 441 438 l 1
 316 438 l 1
EndSplineSet
EndChar

StartChar: daggerdbl
Encoding: 8225 8225 222
Width: 501
GlyphClass: 2
Flags: MW
HStem: 0 68<60 185 60 185 316 441> 438 68<60 185 60 185 316 441>
VStem: 185 131<-125 0 -125 0 68 438 506 631>
LayerCount: 2
Back
Fore
SplineSet
316 0 m 1
 316 -125 l 1
 185 -125 l 1
 185 0 l 1
 60 0 l 1
 60 68 l 1
 185 68 l 1
 185 438 l 1
 60 438 l 1
 60 506 l 1
 185 506 l 1
 185 631 l 1
 316 631 l 1
 316 506 l 1
 441 506 l 1
 441 438 l 1
 316 438 l 1
 316 68 l 1
 441 68 l 1
 441 0 l 1
 316 0 l 1
EndSplineSet
EndChar

StartChar: bullet
Encoding: 8226 8226 223
Width: 501
GlyphClass: 2
Flags: MW
HStem: 188 130<60 123 60 123 378 441>
VStem: 185 131<63 125 63 125 381 443>
LayerCount: 2
Back
Fore
SplineSet
378 188 m 1
 378 125 l 1
 316 125 l 1
 316 63 l 1
 185 63 l 1
 185 125 l 1
 123 125 l 1
 123 188 l 1
 60 188 l 1
 60 318 l 1
 123 318 l 1
 123 381 l 1
 185 381 l 1
 185 443 l 1
 316 443 l 1
 316 381 l 1
 378 381 l 1
 378 318 l 1
 441 318 l 1
 441 188 l 1
 378 188 l 1
EndSplineSet
EndChar

StartChar: ellipsis
Encoding: 8230 8230 224
Width: 751
GlyphClass: 2
Flags: MW
HStem: 0 131<60 191 60 191 60 310 310 441 560 691>
VStem: 60 131<0 131 0 131> 310 131<0 131 0 131> 560 131<0 131 0 131>
CounterMasks: 1 70
LayerCount: 2
Back
Fore
SplineSet
560 0 m 1
 560 131 l 1
 691 131 l 1
 691 0 l 1
 560 0 l 1
310 0 m 1
 310 131 l 1
 441 131 l 1
 441 0 l 1
 310 0 l 1
60 0 m 1
 60 131 l 1
 191 131 l 1
 191 0 l 1
 60 0 l 1
EndSplineSet
EndChar

StartChar: perthousand
Encoding: 8240 8240 225
Width: 1126
GlyphClass: 2
Flags: MW
HStem: -62 68<60 123 60 128 60 123> 0 68<128 185 123 191 128 128 566 685 878 998> 63 68<191 248 185 253 191 191> 125 68<253 310 248 316 253 253> 188 68<316 373 310 378 316 316 566 566 566 685 878 878 878 998> 250 68<378 435 373 441 378 378> 313 68<128 248 128 253 123 248 441 498 441 441> 375 68<503 560 498 566 503 503> 438 68<566 623 566 566> 500 68<128 248 128 128 628 685 628 628> 563 68<691 691 691 753>
VStem: 60 68<-62 0 -62 6 -62 6 381 500> 123 68<6 63 0 68 0 68> 185 68<68 125 63 131 63 131> 248 68<131 188 125 193 125 193 381 500 500 500> 310 68<193 250 188 256 188 256> 373 68<256 313 250 318 250 318> 435 68<318 375 313 381 313 381> 498 68<68 188 68 193 68 193 381 438> 560 68<443 500 438 506 438 506> 623 68<506 563> 685 68<68 188 188 188 568 631> 810 68<68 188 68 193 68 193> 873 130<0 63 0 63 193 256> 998 68<68 188 188 188>
LayerCount: 2
Back
Fore
SplineSet
1003 63 m 1x002008
 1003 0 l 1x020040
 873 0 l 1x020020
 873 63 l 1x010020
 810 63 l 1x010010
 810 193 l 1x008010
 873 193 l 1x008008
 873 256 l 1x004008
 1003 256 l 1x004004
 1003 193 l 1
 1066 193 l 1
 1066 63 l 1x002004
 1003 63 l 1x002008
691 63 m 1x040040
 691 0 l 1x8010
 560 0 l 1x8008
 560 63 l 1x4008
 498 63 l 1x4004
 498 193 l 1x2004
 560 193 l 1x2002
 560 256 l 1x1002
 691 256 l 1x1001
 691 193 l 1x0801
 753 193 l 1x080080
 753 63 l 1x040080
 691 63 l 1x040040
691 563 m 1
 691 500 l 1x410408
 628 500 l 1x400010
 628 438 l 1x200010
 566 438 l 1x200020
 566 375 l 1x100020
 503 375 l 1x100010
 503 313 l 1x080010
 441 313 l 1x080008
 441 250 l 1x100008
 378 250 l 1x100004
 378 188 l 1x200004
 316 188 l 1x200008
 316 125 l 1
 253 125 l 1x400001
 253 63 l 1x200001
 191 63 l 1x200002
 191 0 l 1x100002
 128 0 l 1x100001
 128 -62 l 1
 60 -62 l 1x080001
 60 6 l 1x100001
 123 6 l 1x10000080
 123 68 l 1x20000080
 185 68 l 1
 185 131 l 1x204009
 248 131 l 1x004010
 248 193 l 1x008010
 310 193 l 1x008020
 310 256 l 1x010020
 373 256 l 1x010040
 373 318 l 1x020040
 435 318 l 1x020080
 435 381 l 1x040080
 498 381 l 1x0401
 498 443 l 1x0801
 560 443 l 1x0802
 560 506 l 1x1002
 623 506 l 1x1004
 623 568 l 1x2004
 685 568 l 1x2008
 685 631 l 1x4008
 753 631 l 1x4010
 753 563 l 1
 691 563 l 1
253 375 m 1
 253 313 l 1x4a042680
 123 313 l 1x0208
 123 375 l 1x0108
 60 375 l 1x0110
 60 506 l 1x0090
 123 506 l 1x0088
 123 568 l 1x0048
 253 568 l 1x0044
 253 506 l 1x0084
 316 506 l 1x0082
 316 375 l 1x0102
 253 375 l 1
998 188 m 1
 878 188 l 1
 878 68 l 1
 998 68 l 1
 998 188 l 1
685 188 m 1
 566 188 l 1
 566 68 l 1
 685 68 l 1
 685 188 l 1
248 500 m 1x0252
 128 500 l 1
 128 381 l 1
 248 381 l 1
 248 500 l 1x0252
EndSplineSet
EndChar

StartChar: guilsinglleft
Encoding: 8249 8249 226
Width: 438
GlyphClass: 2
Flags: MW
HStem: 0 68<310 378 316 378 316 378> 63 68<253 310 248 316> 125 68<191 248 185 253> 188 68<128 185 123 191> 250 68<60 123 60 123> 313 68<128 185 123 191 128 128> 375 68<191 248 185 253 191 191> 438 68<253 310 248 316 253 253> 500 68<316 378 316 316>
VStem: 60 68<256 313 256 318 256 318> 123 68<193 250 250 250 318 375> 185 68<131 188 188 188 381 438> 248 68<68 125 125 125 443 500> 310 68<0 63 63 63 506 568>
LayerCount: 2
Back
Fore
SplineSet
310 0 m 1xaaa4
 310 63 l 1x4aa4
 248 63 l 1x4aa8
 248 125 l 1xaaa8
 185 125 l 1xaa94
 185 188 l 1x9294
 123 188 l 1x92a4
 123 250 l 1xaaa4
 60 250 l 1
 60 318 l 1xaac4
 123 318 l 1xaaa4
 123 381 l 1xa4a4
 185 381 l 1xa494
 185 443 l 1xaa94
 248 443 l 1xaaa8
 248 506 l 1xa928
 310 506 l 1xa924
 310 568 l 1
 378 568 l 1
 378 500 l 1xaaa4
 316 500 l 1xaaa8
 316 438 l 1xa928
 253 438 l 1xa914
 253 375 l 1xaa94
 191 375 l 1xaaa4
 191 313 l 1xa4a4
 128 313 l 1
 128 256 l 1x94c4
 191 256 l 1x92a4
 191 193 l 1xaaa4
 253 193 l 1xaa94
 253 131 l 1x4a94
 316 131 l 1x4aa8
 316 68 l 1xaaa8
 378 68 l 1
 378 0 l 1
 310 0 l 1xaaa4
EndSplineSet
EndChar

StartChar: guilsinglright
Encoding: 8250 8250 227
Width: 438
GlyphClass: 2
Flags: MW
HStem: 0 68<60 123 60 128 60 123> 63 68<128 185 123 191 128 128> 125 68<191 248 185 253 191 191> 188 68<253 310 248 316 253 253> 250 68<316 378 316 378> 313 68<253 310 248 316> 375 68<191 248 185 253> 438 68<128 185 123 191> 500 68<60 123 60 128>
VStem: 60 68<0 63 0 68 0 68 506 568> 123 68<68 125 63 131 63 131 443 500 500 500> 185 68<131 188 125 193 125 193 381 438 438 438> 248 68<193 250 188 256 188 256 318 375 375 375> 310 68<256 313 313 313>
LayerCount: 2
Back
Fore
SplineSet
316 250 m 1xaac8
 316 188 l 1x92c8
 253 188 l 1x92d0
 253 125 l 1xaad0
 191 125 l 1xaaa8
 191 63 l 1x4aa8
 128 63 l 1x4ac8
 128 0 l 1
 60 0 l 1
 60 68 l 1xaac8
 123 68 l 1xaaa8
 123 131 l 1x4aa8
 185 131 l 1x4ad0
 185 193 l 1xaad0
 248 193 l 1xaac8
 248 256 l 1x92c8
 310 256 l 1
 310 313 l 1x94c4
 248 313 l 1xa4c8
 248 375 l 1xaac8
 185 375 l 1xaad0
 185 438 l 1xa950
 123 438 l 1xa928
 123 500 l 1xaaa8
 60 500 l 1
 60 568 l 1
 128 568 l 1xaac8
 128 506 l 1xa948
 191 506 l 1xa928
 191 443 l 1xaaa8
 253 443 l 1xaad0
 253 381 l 1xa4d0
 316 381 l 1xa4c8
 316 318 l 1xaac8
 378 318 l 1
 378 250 l 1xaac4
 316 250 l 1xaac8
EndSplineSet
EndChar

StartChar: fraction
Encoding: 8260 8260 228
Width: 813
GlyphClass: 2
Flags: MW
HStem: -62 68<60 123 60 128 60 123> 0 68<128 185 123 191 128 128> 63 68<191 248 185 253 191 191> 125 68<253 310 248 316 253 253> 188 68<316 373 310 378 316 316> 250 68<378 435 373 441 378 378> 313 68<441 498 435 503 441 441> 375 68<503 560 498 566 503 503> 438 68<566 623 560 628 566 566> 500 68<628 685 623 691 628 628> 563 68<691 691 691 753>
VStem: 60 68<-62 0 -62 6 -62 6> 123 68<6 63 0 68 0 68> 185 68<68 125 63 131 63 131> 248 68<131 188 125 193 125 193> 310 68<193 250 188 256 188 256> 373 68<256 313 250 318 250 318> 435 68<318 375 313 381 313 381> 498 68<381 438 375 443 375 443> 560 68<443 500 438 506 438 506> 623 68<506 563 500 568 500 568> 685 68<568 631 563 631>
LayerCount: 2
Back
Fore
SplineSet
691 563 m 1xaab548
 691 500 l 1xaa5548
 628 500 l 1xaa5554
 628 438 l 1xaab554
 566 438 l 1xaab524
 566 375 l 1xa93524
 503 375 l 1xa93554
 503 313 l 1xaab554
 441 313 l 1xaab494
 441 250 l 1xa4b494
 378 250 l 1xa4b554
 378 188 l 1xaab554
 316 188 l 1xaab254
 316 125 l 1x92b254
 253 125 l 1x92b554
 253 63 l 1xaab554
 191 63 l 1xaaa954
 191 0 l 1x4aa954
 128 0 l 1x4ab554
 128 -62 l 1
 60 -62 l 1
 60 6 l 1xaab554
 123 6 l 1xaaa954
 123 68 l 1x4aa954
 185 68 l 1x4ab554
 185 131 l 1xaab554
 248 131 l 1xaab254
 248 193 l 1x92b254
 310 193 l 1x92b554
 310 256 l 1xaab554
 373 256 l 1xaab494
 373 318 l 1xa4b494
 435 318 l 1xa4b554
 435 381 l 1xaab554
 498 381 l 1xaab524
 498 443 l 1xa93524
 560 443 l 1xa93554
 560 506 l 1xaab554
 623 506 l 1xaab548
 623 568 l 1xaa5548
 685 568 l 1xaa5554
 685 631 l 1
 753 631 l 1
 753 563 l 1xaab554
 691 563 l 1xaab548
EndSplineSet
EndChar

StartChar: trademark
Encoding: 8482 8482 229
Width: 688
GlyphClass: 2
Flags: MW
HStem: 313 193<310 498 310 498 441 498 441 503 435 498 441 628 441 560> 500 68<60 123 60 253 191 253 191 191 378 435 378 378 503 560 503 503>
VStem: 123 68<313 500 313 500> 310 68<313 500 313 568> 435 68<313 500 313 500> 560 68<313 500 500 500>
LayerCount: 2
Back
Fore
SplineSet
560 313 m 1xbc
 560 500 l 1
 503 500 l 1x7c
 503 313 l 1
 435 313 l 1xbc
 435 500 l 1
 378 500 l 1x7c
 378 313 l 1
 310 313 l 1xbc
 310 568 l 1
 441 568 l 1x7c
 441 506 l 1
 498 506 l 1xbc
 498 568 l 1
 628 568 l 1x7c
 628 313 l 1
 560 313 l 1xbc
191 500 m 1
 191 313 l 1
 123 313 l 1
 123 500 l 1
 60 500 l 1
 60 568 l 1
 253 568 l 1
 253 500 l 1
 191 500 l 1
EndSplineSet
EndChar

StartChar: partialdiff
Encoding: 8706 8706 230
Width: 501
GlyphClass: 2
Flags: MW
HStem: 0 68<191 310 191 316> 63 193<60 123 60 123> 313 68<191 310 191 191> 500 68<253 310 248 378> 563 68<123 248 123 253>
VStem: 123 68<0 313 63 313 256 313 68 318 68 318> 310 68<68 125 63 313 443 500 500 500>
LayerCount: 2
Back
Fore
SplineSet
378 125 m 1xae
 378 63 l 1
 316 63 l 1
 316 0 l 1
 123 0 l 1xae
 123 63 l 1
 60 63 l 1
 60 256 l 1
 123 256 l 1
 123 318 l 1
 185 318 l 1
 185 381 l 1
 310 381 l 1
 310 500 l 1
 248 500 l 1x76
 248 563 l 1
 123 563 l 1
 123 631 l 1
 253 631 l 1xae
 253 568 l 1
 378 568 l 1xb6
 378 443 l 1
 441 443 l 1
 441 125 l 1
 378 125 l 1xae
310 313 m 1
 191 313 l 1
 191 68 l 1
 310 68 l 1
 310 313 l 1
EndSplineSet
EndChar

StartChar: product
Encoding: 8719 8719 231
Width: 563
GlyphClass: 2
Flags: MW
HStem: 0 21G<123 191 123 123 310 441 310 310> 563 68<60 123 60 503 191 310 191 191 441 503 441 441>
VStem: 123 68<0 563 0 563> 310 131<0 563 0 563>
LayerCount: 2
Back
Fore
SplineSet
441 563 m 1
 441 0 l 1
 310 0 l 1
 310 563 l 1
 191 563 l 1
 191 0 l 1
 123 0 l 1
 123 563 l 1
 60 563 l 1
 60 631 l 1
 503 631 l 1
 503 563 l 1
 441 563 l 1
EndSplineSet
EndChar

StartChar: summation
Encoding: 8721 8721 232
Width: 501
GlyphClass: 2
Flags: MW
HStem: -62 68<191 373 191 441> 125 68<123 253 123 191> 188 68<185 316 185 253> 250 68<316 378 316 378> 313 68<185 316> 375 68<123 253> 563 68<191 373 191 191>
VStem: 60 131<6 125 6 131 6 131 443 563> 185 68<125 256> 248 68<188 313 188 313> 373 68<6 68 -62 68 500 563 563 563>
LayerCount: 2
Back
Fore
SplineSet
60 -62 m 1xd760
 60 131 l 1
 123 131 l 1
 123 193 l 1xd760
 185 193 l 1xd6a0
 185 256 l 1xa6a0
 248 256 l 1
 248 313 l 1xab60
 185 313 l 1xcaa0
 185 375 l 1xd6a0
 123 375 l 1
 123 438 l 1
 60 438 l 1
 60 631 l 1
 441 631 l 1
 441 500 l 1
 373 500 l 1
 373 563 l 1
 191 563 l 1
 191 443 l 1xd760
 253 443 l 1xd6a0
 253 381 l 1xcaa0
 316 381 l 1xcb60
 316 318 l 1
 378 318 l 1
 378 250 l 1
 316 250 l 1xd760
 316 188 l 1xa760
 253 188 l 1xa6a0
 253 125 l 1xd6a0
 191 125 l 1
 191 6 l 1
 373 6 l 1
 373 68 l 1
 441 68 l 1
 441 -62 l 1
 60 -62 l 1xd760
EndSplineSet
EndChar

StartChar: minus
Encoding: 8722 8722 233
Width: 563
GlyphClass: 2
Flags: MW
HStem: 250 68<60 503 60 503>
VStem: 60 443<250 318 250 318>
LayerCount: 2
Back
Fore
SplineSet
60 250 m 1
 60 318 l 1
 503 318 l 1
 503 250 l 1
 60 250 l 1
EndSplineSet
EndChar

StartChar: radical
Encoding: 8730 8730 234
Width: 563
GlyphClass: 2
Flags: MW
HStem: 0 68<191 248 191 253 185 248> 63 130<128 185 123 191 253 310 128 316 253 253> 188 130<60 123 60 128 316 373 316 316> 313 130<378 435 373 441 378 378> 438 130<441 441 441 503>
VStem: 60 68<193 318 193 318 193 318> 123 68<68 188 188 188> 185 68<0 63 0 63> 248 68<68 188 63 193 63 193> 310 68<193 313 188 318 188 318> 373 68<318 438 313 443 313 443> 435 68<443 568 438 568>
LayerCount: 2
Back
Fore
SplineSet
441 438 m 1xaca0
 441 313 l 1x94a0
 378 313 l 1x9450
 378 188 l 1xac50
 316 188 l 1xac90
 316 63 l 1x4c90
 253 63 l 1x4d10
 253 0 l 1
 185 0 l 1xad10
 185 63 l 1x4d10
 123 63 l 1x4a90
 123 188 l 1xaa90
 60 188 l 1
 60 318 l 1
 128 318 l 1xac90
 128 193 l 1x4c90
 191 193 l 1x4a90
 191 68 l 1
 248 68 l 1xaa90
 248 193 l 1x4c90
 310 193 l 1x4c50
 310 318 l 1xac50
 373 318 l 1xaca0
 373 443 l 1x94a0
 435 443 l 1x9490
 435 568 l 1
 503 568 l 1
 503 438 l 1xac90
 441 438 l 1xaca0
EndSplineSet
EndChar

StartChar: infinity
Encoding: 8734 8734 235
Width: 813
GlyphClass: 2
Flags: MW
HStem: 125 68<191 310 191 316 503 623> 188 68<316 373 310 378 316 316 441 498 310 435> 250 68<378 435 378 435> 313 68<316 373 441 498 441 441> 375 68<191 310 191 191 503 623 503 503>
VStem: 123 68<125 375 188 375 193 443> 310 68<193 250 188 256 188 256 318 375 375 375> 373 68<256 313 256 313> 435 68<193 250 250 250 318 375> 623 68<125 375>
LayerCount: 2
Back
Fore
SplineSet
691 188 m 1x56c0
 691 125 l 1
 498 125 l 1xaec0
 498 188 l 1
 435 188 l 1x4ec0
 435 250 l 1
 378 250 l 1xaec0
 378 188 l 1
 316 188 l 1x4ec0
 316 125 l 1
 123 125 l 1xaec0
 123 188 l 1
 60 188 l 1
 60 381 l 1
 123 381 l 1x56c0
 123 443 l 1
 316 443 l 1xaec0
 316 381 l 1
 378 381 l 1x96c0
 378 318 l 1
 435 318 l 1xaec0
 435 381 l 1
 498 381 l 1x96c0
 498 443 l 1
 691 443 l 1xaec0
 691 381 l 1
 753 381 l 1
 753 188 l 1
 691 188 l 1x56c0
623 375 m 1
 503 375 l 1xaec0
 503 313 l 1x96c0
 441 313 l 1
 441 256 l 1x5540
 503 256 l 1x4ec0
 503 193 l 1
 623 193 l 1
 623 375 l 1
373 313 m 1x5540
 310 313 l 1x96c0
 310 375 l 1
 191 375 l 1
 191 193 l 1
 310 193 l 1xaec0
 310 256 l 1x4ec0
 373 256 l 1
 373 313 l 1x5540
EndSplineSet
EndChar

StartChar: integral
Encoding: 8747 8747 236
Width: 626
GlyphClass: 2
Flags: MW
HStem: -187 68<128 248 128 316 123 248> -125 68<60 123 60 128> 625 68<503 566> 688 68<378 498 378 378>
VStem: 60 68<-119 -57 -119 -57 -119 -57> 248 68<-187 693> 310 68<-125 756> 498 68<625 688 688 688>
LayerCount: 2
Back
Fore
SplineSet
498 625 m 1xab
 498 688 l 1
 378 688 l 1
 378 -125 l 1x5b
 316 -125 l 1x5d
 316 -187 l 1
 123 -187 l 1x9d
 123 -125 l 1
 60 -125 l 1
 60 -57 l 1
 128 -57 l 1x5b
 128 -119 l 1
 248 -119 l 1
 248 693 l 1xad
 310 693 l 1xab
 310 756 l 1
 503 756 l 1x9b
 503 693 l 1
 566 693 l 1
 566 625 l 1
 498 625 l 1xab
EndSplineSet
EndChar

StartChar: approxequal
Encoding: 8776 8776 237
Width: 563
GlyphClass: 2
Flags: MW
HStem: 63 68<316 435 316 441 310 435> 125 68<60 123 60 128 60 123 253 310 441 503 441 441> 188 68<128 248 128 128> 313 68<316 435 316 441 310 435> 375 68<60 123 60 128 60 123 253 310 441 503 441 441> 438 68<128 248 128 128>
VStem: 60 68<125 188 125 193 125 193 375 438> 123 130<193 256 193 256 443 506> 248 68<131 188 188 188 381 438 438 438> 310 131<63 125 63 125 313 375> 435 68<131 193 125 193 381 443>
LayerCount: 2
Back
Fore
SplineSet
441 375 m 1xaa40
 441 313 l 1
 310 313 l 1x5640
 310 375 l 1xaa40
 248 375 l 1xaaa0
 248 438 l 1
 128 438 l 1xb6a0
 128 375 l 1
 60 375 l 1
 60 443 l 1xaaa0
 123 443 l 1xa920
 123 506 l 1
 253 506 l 1xb520
 253 443 l 1xa920
 316 443 l 1xaaa0
 316 381 l 1
 435 381 l 1xb6a0
 435 443 l 1
 503 443 l 1
 503 375 l 1xaaa0
 441 375 l 1xaa40
441 125 m 1
 441 63 l 1
 310 63 l 1xb640
 310 125 l 1x5640
 248 125 l 1x56a0
 248 188 l 1
 128 188 l 1xb6a0
 128 125 l 1
 60 125 l 1
 60 193 l 1x56a0
 123 193 l 1x5520
 123 256 l 1
 253 256 l 1xb520
 253 193 l 1x5520
 316 193 l 1x56a0
 316 131 l 1
 435 131 l 1xb6a0
 435 193 l 1
 503 193 l 1
 503 125 l 1x56a0
 441 125 l 1
EndSplineSet
EndChar

StartChar: notequal
Encoding: 8800 8800 238
Width: 563
GlyphClass: 2
Flags: MW
HStem: 0 68<60 123 60 128 60 123> 125 68<60 123 60 185 253 503 60 191> 250 68<253 310 248 316 253 253> 375 68<60 310 60 373 60 378 441 503> 500 68<441 503 441 441>
VStem: 60 68<0 63 0 68 0 68 0 193> 123 68<68 125 63 125> 185 68<193 250 193 256 193 256> 248 68<256 313 250 318 250 318> 310 68<318 375 313 375> 373 68<443 500 443 506 443 506> 435 68<506 568>
LayerCount: 2
Back
Fore
SplineSet
191 125 m 1xfa90
 191 63 l 1xfa90
 128 63 l 1
 128 0 l 1
 60 0 l 1
 60 68 l 1xfc90
 123 68 l 1
 123 125 l 1xfa90
 60 125 l 1
 60 193 l 1
 185 193 l 1
 185 256 l 1xfd10
 248 256 l 1
 248 318 l 1xfc90
 310 318 l 1
 310 375 l 1xfc50
 60 375 l 1
 60 443 l 1
 373 443 l 1
 373 506 l 1xfca0
 435 506 l 1
 435 568 l 1
 503 568 l 1
 503 500 l 1xfc90
 441 500 l 1
 441 443 l 1xfca0
 503 443 l 1
 503 375 l 1
 378 375 l 1
 378 313 l 1xfc50
 316 313 l 1
 316 250 l 1xfc90
 253 250 l 1
 253 193 l 1xfd10
 503 193 l 1
 503 125 l 1
 191 125 l 1xfa90
EndSplineSet
EndChar

StartChar: lessequal
Encoding: 8804 8804 239
Width: 376
GlyphClass: 2
Flags: MW
HStem: 0 68<60 316 60 316> 125 68<248 316 253 316 253 316> 188 68<191 248 185 253> 250 68<128 185 123 191> 313 68<60 123 60 123> 375 68<128 185 123 191 128 128> 438 68<191 248 185 253 191 191> 500 68<253 316 253 253>
VStem: 60 68<318 375 318 381 318 381> 123 68<256 313 313 313 381 438> 185 68<193 250 250 250 443 500> 248 68<125 188 188 188 506 568>
LayerCount: 2
Back
Fore
SplineSet
248 125 m 1xc950
 248 188 l 1xa990
 185 188 l 1xa920
 185 250 l 1xd120
 123 250 l 1xd150
 123 313 l 1xc950
 60 313 l 1
 60 381 l 1xc990
 123 381 l 1xc950
 123 443 l 1xc550
 185 443 l 1xc520
 185 506 l 1xca20
 248 506 l 1xca50
 248 568 l 1
 316 568 l 1
 316 500 l 1xc950
 253 500 l 1xc920
 253 438 l 1xca20
 191 438 l 1xca50
 191 375 l 1xc550
 128 375 l 1
 128 318 l 1xd590
 191 318 l 1xd150
 191 256 l 1xa950
 253 256 l 1xa920
 253 193 l 1xc920
 316 193 l 1
 316 125 l 1
 248 125 l 1xc950
60 0 m 1
 60 68 l 1
 316 68 l 1
 316 0 l 1
 60 0 l 1
EndSplineSet
EndChar

StartChar: greaterequal
Encoding: 8805 8805 240
Width: 376
GlyphClass: 2
Flags: MW
HStem: 0 68<60 316 60 316> 125 68<60 123 60 128 60 123> 188 68<128 185 123 191 128 128> 250 68<191 248 185 253 191 191> 313 68<253 316 253 316> 375 68<191 248 185 253> 438 68<128 185 123 191> 500 68<60 123 60 128>
VStem: 60 68<0 188 68 188 125 188 125 193 125 193 506 568> 123 68<193 250 188 256 188 256 443 500 500 500> 185 68<256 313 250 318 250 318 381 438 438 438> 248 68<318 375 375 375>
LayerCount: 2
Back
Fore
SplineSet
253 313 m 1xc9a0
 253 250 l 1xd1a0
 191 250 l 1xd140
 191 188 l 1xa940
 128 188 l 1xa9a0
 128 125 l 1
 60 125 l 1
 60 193 l 1xc9a0
 123 193 l 1xc940
 123 256 l 1xa940
 185 256 l 1xa9a0
 185 318 l 1xd1a0
 248 318 l 1
 248 375 l 1xd590
 185 375 l 1xc5a0
 185 438 l 1xcaa0
 123 438 l 1xca40
 123 500 l 1xc940
 60 500 l 1
 60 568 l 1
 128 568 l 1xc9a0
 128 506 l 1xcaa0
 191 506 l 1xca40
 191 443 l 1xc540
 253 443 l 1xc5a0
 253 381 l 1xc9a0
 316 381 l 1
 316 313 l 1xc990
 253 313 l 1xc9a0
60 0 m 1
 60 68 l 1
 316 68 l 1
 316 0 l 1xc990
 60 0 l 1
EndSplineSet
EndChar

